<?xml version="1.0" encoding="utf-8"?>
<!-- Generator: Adobe Illustrator 19.0.0, SVG Export Plug-In . SVG Version: 6.00 Build 0)  -->
<svg version="1.1" id="Layer_1" xmlns="http://www.w3.org/2000/svg" xmlns:xlink="http://www.w3.org/1999/xlink" x="0px" y="0px"
	 viewBox="0 0 1027 382" style="enable-background:new 0 0 1027 382;" xml:space="preserve">
<style type="text/css">
	.st0{fill:#E9E9E9;}
	.st1{fill:#FAF8D7;}
	.st2{fill:#DBC18F;stroke:#AA966E;stroke-width:2.4908;stroke-miterlimit:10;}
	.st3{fill:#89BB6E;}
	.st4{fill:none;stroke:#83AC61;stroke-width:2.2716;stroke-miterlimit:10;}
	.st5{fill:#DBC18F;stroke:#AA966E;stroke-width:3.0129;stroke-miterlimit:10;}
	.st6{fill:#89BB6E;stroke:#83AC61;stroke-width:2.2716;stroke-miterlimit:10;}
	.st7{fill:#DBC18F;stroke:#AA966E;stroke-width:2.1676;stroke-miterlimit:10;}
	.st8{fill:#DBC18F;stroke:#AA966E;stroke-width:2.3824;stroke-miterlimit:10;}
	.st9{fill:#51C5D9;stroke:#4DB8BE;stroke-width:2.2716;stroke-miterlimit:10;}
	.st10{fill:url(#SVGID_3_);}
	.st11{fill:url(#SVGID_4_);}
	.st12{fill:#FFFFFF;}
	.st13{fill:url(#SVGID_5_);}
	.st14{fill:url(#SVGID_6_);}
	.st15{fill:#65646F;}
	.st16{fill:#908F97;}
	.st17{opacity:0.5;fill:#65646F;}
	.st18{fill:#83828B;}
	.st19{fill:#728C9F;}
	.st20{fill:#9AACBA;}
	.st21{fill:url(#SVGID_7_);}
	.st22{opacity:0.55;fill:url(#SVGID_8_);}
	.st23{opacity:0.45;fill:url(#SVGID_9_);}
	.st24{fill:#7D8F92;}
	.st25{opacity:0.32;fill:#7D8F92;}
	.st26{opacity:0.21;fill:#56626D;}
	.st27{fill:#FFCE66;}
	.st28{fill:#FFCEA5;}
	.st29{fill:#BDCBD6;}
	.st30{fill:#3B4956;}
	.st31{fill:#56626D;}
	.st32{fill:#F2F1F2;}
	.st33{fill:#5B5862;}
	.st34{fill:#2F2B38;}
	.st35{fill:#6F4325;}
	.st36{fill:#2A3236;}
	.st37{fill:url(#SVGID_10_);}
	.st38{opacity:0.5;fill:url(#SVGID_11_);}
	.st39{fill:#FFB481;}
	.st40{fill:#E6D7B6;}
	.st41{opacity:0.5;fill:#CCCDCE;}
	.st42{fill:#32333A;}
	.st43{fill:#F8F8F6;}
	.st44{fill:#FFC39A;}
	.st45{fill:#76432C;}
	.st46{opacity:0.32;fill:#754F39;}
	.st47{opacity:0.75;fill:#FFD6BD;}
	.st48{fill:#733F27;}
	.st49{fill:#E05C4A;}
	.st50{fill:#FFFEFF;}
	.st51{fill:#F6AE77;}
	.st52{fill:#9B673C;}
	.st53{opacity:0.25;fill:#9B6E4D;}
	.st54{opacity:0.25;fill:#8F5C37;}
	.st55{fill:url(#SVGID_12_);}
	.st56{fill:url(#SVGID_13_);}
	.st57{fill:#F8ECD1;}
	.st58{fill:#F5E4BD;}
	.st59{fill:url(#SVGID_14_);}
	.st60{fill:url(#SVGID_15_);}
	.st61{fill:url(#SVGID_16_);}
	.st62{fill:url(#SVGID_17_);}
	.st63{fill:url(#SVGID_18_);}
	.st64{fill:url(#SVGID_19_);}
	.st65{fill:#FCF6E8;}
	.st66{fill:url(#SVGID_20_);}
	.st67{fill:url(#SVGID_21_);}
	.st68{fill:url(#SVGID_22_);}
	.st69{fill:url(#SVGID_23_);}
	.st70{opacity:0.65;fill:#EEE3D7;}
	.st71{fill:#87522A;}
	.st72{fill:#7F4C2D;}
	.st73{fill:#FFB989;}
	.st74{opacity:0.75;fill:#FFDFCC;}
	.st75{fill:#D6D6D6;}
	.st76{opacity:0.32;fill:#545454;}
	.st77{opacity:0.45;fill:#484848;}
	.st78{fill:#956643;}
	.st79{fill:#8D5A34;}
	.st80{opacity:0.75;fill:#F8D6BD;}
	.st81{fill:#EC996B;}
	.st82{opacity:0.35;fill:#FFDFCC;}
	.st83{fill:#FFD7C0;}
	.st84{opacity:0.32;fill:#ECAE8B;}
	.st85{opacity:0.5;fill:#4D4F5C;}
	.st86{fill:#FFD11A;}
	.st87{opacity:0.65;fill:#FFD11A;}
	.st88{fill:#FEC30C;}
	.st89{fill:#FFEE47;}
	.st90{clip-path:url(#SVGID_25_);fill:#FFFEFF;}
	.st91{clip-path:url(#SVGID_25_);fill:url(#SVGID_26_);}
	.st92{clip-path:url(#SVGID_25_);fill:#733F27;}
	.st93{clip-path:url(#SVGID_28_);fill:#FFFEFF;}
	.st94{clip-path:url(#SVGID_28_);fill:url(#SVGID_29_);}
	.st95{clip-path:url(#SVGID_28_);fill:#733F27;}
	.st96{fill:url(#SVGID_30_);}
	.st97{opacity:0.65;fill:#F5AF87;}
	.st98{fill:#F5AF87;}
	.st99{fill:#798692;}
	.st100{fill:#93C9E1;}
	.st101{opacity:0.55;fill:#F0E2CC;}
	.st102{opacity:0.55;fill:#C7CCCC;}
	.st103{opacity:0.55;fill:#C2C9CC;}
	.st104{fill:url(#SVGID_31_);}
	.st105{opacity:0.15;fill:url(#SVGID_32_);}
	.st106{opacity:0.25;fill:url(#SVGID_33_);}
	.st107{fill:#317F93;}
	.st108{fill:#F29A2D;}
	.st109{fill:#4D4F5C;}
	.st110{opacity:0.32;fill:#4D4F5C;}
	.st111{clip-path:url(#SVGID_35_);fill:#E05C4A;}
	.st112{clip-path:url(#SVGID_35_);fill:#E8868C;}
	.st113{clip-path:url(#SVGID_35_);fill:#FFFEFF;}
	.st114{fill:url(#SVGID_36_);}
	.st115{fill:#F8F0E5;}
	.st116{fill:#D8D8D7;}
	.st117{fill:#E4E4E3;}
	.st118{opacity:0.5;fill:#E4E4E3;}
	.st119{opacity:0.32;fill:#EAA47C;}
	.st120{fill:#F3C400;}
	.st121{fill:#FEAD00;}
	.st122{clip-path:url(#SVGID_38_);fill:#FFFEFF;}
	.st123{clip-path:url(#SVGID_38_);fill:url(#SVGID_39_);}
	.st124{clip-path:url(#SVGID_38_);fill:#4D4F5C;}
	.st125{clip-path:url(#SVGID_41_);fill:#FFFEFF;}
	.st126{clip-path:url(#SVGID_41_);fill:url(#SVGID_42_);}
	.st127{clip-path:url(#SVGID_41_);fill:#4D4F5C;}
</style>
<image style="overflow:visible;" width="1027" height="382" xlink:href="banner05.jpg" >
</image>
<rect class="st0" width="1027" height="382"/>
<g>
	<defs>
		<rect id="SVGID_1_" x="513.5" y="118.2" width="514.7" height="263"/>
	</defs>
	<clipPath id="SVGID_2_">
		<use xlink:href="#SVGID_1_"  style="overflow:visible;"/>
	</clipPath>
</g>
<g>
	<g>
		<path class="st1" d="M1076,116.2c-136.3,0-272.5,0-408.8,0C600,193.4,532.8,270.7,465.7,348c268.2,0,536.4,0,804.6,0
			C1205.5,270.7,1140.7,193.4,1076,116.2z"/>
		<g>
			<path class="st2" d="M626.8,336.8c5.3-4.5,12.6-10.7,11.4-14.5c-2.9-8.8-21.1-10.7-30.3-12.4c-9.5-1.8-25.7-4.9-28.9-14.8
				c-1.7-5.3,1.8-11.8,6.8-17.9c-12.3,0-24.6,0-36.9,0c-16.4,20.1-32.8,40.2-49.1,60.3c42.1,0,84.1,0,126.2,0
				C626.3,337.2,626.6,337,626.8,336.8z"/>
			<path class="st2" d="M604,295.9c10.7,5.7,24.2,6.9,36.2,9.8c7.8,1.9,23.3,7.6,20.3,18c-1.3,4.6-6.1,9.2-11.1,13.6
				c8.4,0,12.5,0,20.9,0c8.9-20.1,17.9-40.2,26.8-60.3c-30.5,0-61.1,0-91.6,0C599.9,284.1,596.4,291.8,604,295.9z"/>
			<path class="st2" d="M860.2,277.2c-0.8,20.1-1.5,40.2-2.3,60.3c-56.8,0-113.6,0-170.5,0c8.2-20.1,16.4-40.2,24.6-60.3
				C761.5,277.2,810.9,277.2,860.2,277.2z"/>
			<path class="st2" d="M907.8,277.2c-10.4,0-20.8,0-31.3,0c0.1,20.1,0.1,40.2,0.2,60.3c12,0,24,0,36,0
				C911.1,317.4,909.4,297.3,907.8,277.2z"/>
			<path class="st2" d="M963.5,277.2c-10.9,0-21.7,0-32.6,0c2.8,20.1,5.6,40.2,8.4,60.3c12.5,0,25,0,37.5,0
				C972.4,317.4,968,297.3,963.5,277.2z"/>
			<path class="st2" d="M1003.4,337.4c14.6,0,29.2,0,43.8,0c-7.5-20.1-15-40.2-22.5-60.3c-12.7,0-25.4,0-38,0
				C992.2,297.3,997.8,317.4,1003.4,337.4z"/>
			<g>
				<path class="st3" d="M1104.1,329.4c-11.9-8.9-31.1-11.6-45.8-10.6c3.1,7.5,4.6,11.2,7.7,18.6c14.6,0,29.1,0,43.7,0
					C1109,334.7,1107.3,331.8,1104.1,329.4z"/>
				<path class="st4" d="M1104.1,329.4c-11.9-8.9-31.1-11.6-45.8-10.6c3.1,7.5,4.6,11.2,7.7,18.6c14.6,0,29.1,0,43.7,0
					C1109,334.7,1107.3,331.8,1104.1,329.4z"/>
			</g>
			<g>
				<path class="st3" d="M1092.1,284.9c5.5-2,8.6-4.7,10.2-7.7c-20.4,0-40.8,0-61.3,0c2,4.8,3,7.1,4.9,11.9
					C1060.9,289.7,1077.7,290,1092.1,284.9z"/>
				<path class="st4" d="M1092.1,284.9c5.5-2,8.6-4.7,10.2-7.7c-20.4,0-40.8,0-61.3,0c2,4.8,3,7.1,4.9,11.9
					C1060.9,289.7,1077.7,290,1092.1,284.9z"/>
			</g>
			<path class="st2" d="M1138.9,277.2c-6,0-9.1,0-15.1,0c-0.9,6.6-5.8,12.6-18.5,16.2c-17.9,5.1-37,5.2-55.5,4.9
				c1.9,4.6,2.8,6.9,4.7,11.4c20-0.7,42.7,2.4,60.6,11.4c10.3,5.2,15,10.8,16.8,16.4c15.6,0,31.1,0,46.7,0
				C1165.3,317.4,1152.1,297.3,1138.9,277.2z"/>
			<path class="st2" d="M1198.5,337.4c12.6,0,25.3,0,37.9,0c-15.8-20.1-31.5-40.2-47.3-60.3c-11,0-22,0-33,0
				C1170.3,297.3,1184.4,317.4,1198.5,337.4z"/>
			<path class="st5" d="M678.8,179.7c-16.8,0-33.6,0-50.4,0c-18,22-35.9,44.1-53.9,66.1c20.5,0,40.9,0,61.4,0
				C650.2,223.8,664.5,201.8,678.8,179.7z"/>
			<g>
				<path class="st3" d="M638.6,205.8c13.5-5.1,30.4-12.5,37.6-26c-15.9,0-31.9,0-47.8,0c-9.2,11.3-18.3,22.5-27.5,33.8
					C613.7,212.5,626.6,210.2,638.6,205.8z"/>
				<path class="st4" d="M638.6,205.8c13.5-5.1,30.4-12.5,37.6-26c-15.9,0-31.9,0-47.8,0c-9.2,11.3-18.3,22.5-27.5,33.8
					C613.7,212.5,626.6,210.2,638.6,205.8z"/>
			</g>
			<path class="st5" d="M655.2,245c18.8,0,37.5,0,56.3,0c9.7-21.8,19.4-43.5,29.1-65.3c-15.4,0-30.9,0-46.3,0
				C681.2,201.5,668.2,223.3,655.2,245z"/>
			<path class="st5" d="M650.4,253c-3.6,6-5.4,9-9,15c19.9,0,39.8,0,59.8,0c2.7-6,4-9,6.7-15C688.7,253,669.6,253,650.4,253z"/>
			<path class="st5" d="M631.9,252c-20.8,0-41.6,0-62.4,0c-5.2,6.4-7.8,9.6-13,15.9c21.7,0,43.4,0,65.1,0
				C625.7,261.6,627.8,258.4,631.9,252z"/>
			<path class="st5" d="M1046.2,238.5c-8.5,0-12.7,0-21.2,0c4.1,9.8,8.1,19.6,12.2,29.4c9.2,0,13.7,0,22.9,0
				C1055.5,258.1,1050.8,248.3,1046.2,238.5z"/>
			<path class="st5" d="M1081.2,238.5c-7.4,0-11.1,0-18.4,0c5.1,9.8,10.2,19.6,15.2,29.4c8,0,12,0,19.9,0
				C1092.4,258.1,1086.8,248.3,1081.2,238.5z"/>
			<path class="st5" d="M1115.3,238.5c-6.3,0-9.4,0-15.7,0c6.1,9.8,12.2,19.6,18.2,29.4c6.8,0,10.2,0,16.9,0
				C1128.3,258.1,1121.8,248.3,1115.3,238.5z"/>
			<path class="st5" d="M1151.7,267.9c10.1,0,20.1,0,30.2,0c-7.7-9.8-15.4-19.6-23.1-29.4c-11.2,0-16.8,0-27.9,0
				C1137.9,248.3,1144.8,258.1,1151.7,267.9z"/>
			<path class="st6" d="M1021.6,230.1c43.6,0,87.2,0,130.7,0c-13.2-16.8-26.3-33.6-39.5-50.4c-37.4,0-74.7,0-112.1,0
				C1007.6,196.5,1014.6,213.3,1021.6,230.1z"/>
			<path class="st7" d="M715.5,144.5c13.6,0,27.1,0,40.7,0c3.2-7.1,4.7-10.7,7.9-17.8c-12.7,0-25.3,0-38,0
				C721.8,133.8,719.7,137.4,715.5,144.5z"/>
			<path class="st7" d="M709.6,154.3c-4.3,7.2-6.5,10.9-10.8,18.1c15,0,29.9,0,44.9,0c3.2-7.2,4.8-10.9,8.1-18.1
				C737.7,154.3,723.7,154.3,709.6,154.3z"/>
			<path class="st7" d="M713.4,126.7c-13.9,0-27.9,0-41.8,0c-12.4,15.2-24.8,30.4-37.2,45.7c16.5,0,32.9,0,49.4,0
				C693.6,157.2,703.5,141.9,713.4,126.7z"/>
			<path class="st7" d="M1009.9,161.7c-6.7,0-10,0-16.7,0c1.8,4.3,2.6,6.4,4.4,10.6c6.9,0,10.4,0,17.3,0
				C1012.9,168.1,1011.9,166,1009.9,161.7z"/>
			<path class="st7" d="M1049.3,168.9c-1.9-2.4-4-4.8-6-7.2c-9.3,0-13.9,0-23.1,0c2.2,4.3,3.2,6.4,5.4,10.6c10.6,0,15.9,0,26.6,0
				C1051.1,171,1049.9,169.7,1049.3,168.9z"/>
			<path class="st7" d="M1067.1,172.4c13.3,0,26.6,0,39.9,0c-3.3-4.3-5-6.4-8.3-10.6c-13.6,0-27.1,0-40.7,0
				C1061.3,165.3,1064.8,168.9,1067.1,172.4z"/>
			<path class="st7" d="M1001.6,144c-6.3,0-9.4,0-15.6,0c1.9,4.7,2.9,7,4.8,11.6c6.5,0,9.8,0,16.3,0
				C1004.9,151,1003.8,148.7,1001.6,144z"/>
			<path class="st7" d="M1032,144c-8.3,0-12.5,0-20.9,0c2.4,4.7,3.5,7,5.9,11.6c8.5,0,12.8,0,21.3,0
				C1035.4,151.8,1033.3,147.9,1032,144z"/>
			<path class="st7" d="M1047.8,149.3c1.1,2,2.7,4.2,4.6,6.4c13.8,0,27.7,0,41.5,0c-3.6-4.7-5.5-7-9.1-11.6c-13.1,0-26.2,0-39.2,0
				C1046.1,145.7,1046.8,147.5,1047.8,149.3z"/>
			<path class="st7" d="M993.4,126.7c-5.9,0-8.8,0-14.6,0c1.9,4.5,2.8,6.8,4.7,11.3c6.1,0,9.2,0,15.3,0
				C996.6,133.5,995.5,131.2,993.4,126.7z"/>
			<path class="st7" d="M1030.6,137.5c-0.2-4.1,0.5-7.7,2-10.8c-10.1,0-20.2,0-30.3,0c2.3,4.5,3.4,6.8,5.7,11.3c9.1,0,13.6,0,22.6,0
				C1030.7,137.8,1030.6,137.6,1030.6,137.5z"/>
			<path class="st7" d="M1044.8,138c11.8,0,23.5,0,35.3,0c-3.5-4.5-5.3-6.8-8.8-11.3c-7.9,0-11.8,0-19.7,0
				C1047.3,129.3,1044.9,133.2,1044.8,138z"/>
			<path class="st5" d="M729.4,234.6c-2.4,6-3.6,8.9-6.1,14.9c46,0,92,0,137.9,0c0.2-6,0.3-8.9,0.6-14.9
				C817.7,234.6,773.5,234.6,729.4,234.6z"/>
			<path class="st6" d="M768.2,194.9c6.3-2.8,10.7-6.6,13.6-10.7c1-1.4,1.9-2.9,2.7-4.5c-10.9,0-21.8,0-32.6,0
				c-3,7.3-4.4,10.9-7.4,18.1C752.6,197.9,762.1,197.6,768.2,194.9z"/>
			<path class="st5" d="M795.2,187.7c-4.2,5.4-11.3,12.3-21,15c-11,3-21.7,3.8-33.5,4.3c-2.8,6.9-4.2,10.3-7,17.2
				c42.8,0,85.7,0,128.5,0c0.3-7.8,0.4-11.7,0.7-19.5c-15.3-1.8-40.1-5.4-42.5-24.9c-8.3,0-12.4,0-20.6,0
				C798.8,182.5,797.2,185.2,795.2,187.7z"/>
			<path class="st6" d="M823.6,224.1c12.9,0,25.7,0,38.6,0c0.3-7.8,0.4-11.7,0.7-19.5c-12.1-0.5-25.1-3.4-34.8-11.1
				C826.6,203.8,825.1,213.9,823.6,224.1z"/>
			<path class="st5" d="M720,257.6c-1.7,4.1-2.5,6.2-4.2,10.3c48.3,0,96.5,0,144.8,0c0.2-4.1,0.2-6.2,0.4-10.3
				C814,257.6,767,257.6,720,257.6z"/>
			<path class="st7" d="M788.9,142.4c6.5-4.5,8.4-11,5.9-15.7c-8.6,0-12.9,0-21.4,0c-3.1,7.7-4.7,11.6-7.9,19.3
				C772.9,146,782.5,146.8,788.9,142.4z"/>
			<path class="st7" d="M838.9,144.4c-6.3,5.1-16.3,6.7-23.7,11.2c-7.4,4.5-10.8,10.7-12.6,16.7c7.6,0,11.4,0,19,0
				c6-16.5,27.6-24.7,43.5-25.6c0.3-8,0.5-12,0.8-20c-7.9,0-11.9,0-19.8,0C847,132.9,844.9,139.5,838.9,144.4z"/>
			<path class="st7" d="M815.5,145.2c6.2-2.8,15.6-5.2,17.1-10.8c0.6-2.3,1-5.1,0.5-7.6c-9.8,0-14.7,0-24.6,0
				c1.3,7.1-2.5,15.6-11,21.3c-10.3,6.9-23.6,7.4-35.8,7.1c-2.8,6.9-4.2,10.3-7,17.2c11,0,22,0,33,0
				C792.6,158.5,803.4,150.7,815.5,145.2z"/>
			<path class="st5" d="M909.6,247c7.2-8.5,20.4-11.7,31.3-13.5c21.7-3.7,44.2-3.6,66.3-3.4c-3.6-9.6-7.2-19.2-10.8-28.8
				c-16.4,0.2-38.7-2.9-53,5.7c-10.1,6.2-13.2,18.9-25.5,23.3c-13.2,4.7-27.6,6-41.6,5.5c0,10.7,0.1,21.5,0.1,32.2
				c10.1,0,20.2,0,30.3,0C905.9,260.9,904.3,253.2,909.6,247z"/>
			<g>
				<path class="st3" d="M997.9,205.5c-11.8-0.7-26-0.8-35.8,5.6c-6.8,4.4-0.4,11.7-0.5,17.6c0,0.8-0.1,1.6-0.3,2.3
					c15.3-0.9,30.5-1,45.8-0.9C1003.5,220.2,1001.6,215.3,997.9,205.5z"/>
				<path class="st4" d="M997.9,205.5c-11.8-0.7-26-0.8-35.8,5.6c-6.8,4.4-0.4,11.7-0.5,17.6c0,0.8-0.1,1.6-0.3,2.3
					c15.3-0.9,30.5-1,45.8-0.9C1003.5,220.2,1001.6,215.3,997.9,205.5z"/>
			</g>
			<g>
				<path class="st3" d="M926.7,236.9c0.9-0.9,2.5-1.6,5.1-1.8c18.7-2.1,10-11.8,9.8-19c-0.1-4.3,2.6-8.3,7.1-11.4
					c-2,0.7-3.8,1.4-5.4,2.4c-10.2,6.3-13.2,18.9-25.5,23.3c-13.2,4.7-27.6,6-41.6,5.5c0,10.7,0.1,21.5,0.1,32.2
					c10.1,0,20.2,0,30.3,0c-0.9-7-2.5-14.4,2.7-20.9C913,242.6,919.3,239.3,926.7,236.9z"/>
				<path class="st4" d="M926.7,236.9c0.9-0.9,2.5-1.6,5.1-1.8c18.7-2.1,10-11.8,9.8-19c-0.1-4.3,2.6-8.3,7.1-11.4
					c-2,0.7-3.8,1.4-5.4,2.4c-10.2,6.3-13.2,18.9-25.5,23.3c-13.2,4.7-27.6,6-41.6,5.5c0,10.7,0.1,21.5,0.1,32.2
					c10.1,0,20.2,0,30.3,0c-0.9-7-2.5-14.4,2.7-20.9C913,242.6,919.3,239.3,926.7,236.9z"/>
			</g>
			<path class="st5" d="M954.3,241.2c-9.1,1.1-23.4,2.6-28,10.5c-2.6,4.5-0.9,10.8,0.1,16.2c31.6,0,63.2,0,94.8,0
				c-3.6-9.6-7.2-19.2-10.7-28.8C991.7,239,972.9,238.9,954.3,241.2z"/>
			<path class="st5" d="M876.3,204.4c0,8.9,0,13.3,0.1,22.2c12.6,0.5,31.2,0.4,38.9-9.1c6.8-8.4,14.3-18.3,26.4-21.3
				c16.7-4.1,34.1-3.4,51.2-3.9c-1.8-4.9-2.8-7.4-4.6-12.4c-24.2,0-48.3,0-72.5,0C913.7,196.8,890.6,203.4,876.3,204.4z"/>
			<path class="st7" d="M962.5,172.4c9.2,0,13.9,0,23.1,0c-5.7-15.2-11.4-30.4-17-45.7c-7.8,0-11.7,0-19.5,0
				C953.5,141.9,958,157.2,962.5,172.4z"/>
			<path class="st7" d="M929.8,172.4c9.6,0,14.3,0,23.9,0c-4-15.2-8.1-30.4-12.1-45.7c-8.1,0-12.1,0-20.2,0
				C924.2,141.9,927,157.2,929.8,172.4z"/>
			<path class="st7" d="M912.9,126.7c-12.3,0-24.5,0-36.8,0c0,8.1,0,12.2,0.1,20.3c15.1,1.3,33.5,10.2,38.9,25.3c1.9,0,2.8,0,4.7,0
				C917.5,157.2,915.2,141.9,912.9,126.7z"/>
			<path class="st8" d="M868,155.2c13.1,0.4,31.8,7.3,33,20.5c1.3,14.8-22.5,20.5-34,20.5c-11,0-35.1-5.5-33-20.5
				C835.8,163,854.9,154.8,868,155.2z"/>
			<g>
				<path class="st3" d="M702.1,131.4c-8.2,12.1-16.5,24.2-24.7,36.3c-10,0-20,0-29.9,0c9.5-12.1,18.9-24.2,28.4-36.3
					C686.4,131.4,691.7,131.4,702.1,131.4z"/>
				<path class="st4" d="M702.1,131.4c-8.2,12.1-16.5,24.2-24.7,36.3c-10,0-20,0-29.9,0c9.5-12.1,18.9-24.2,28.4-36.3
					C686.4,131.4,691.7,131.4,702.1,131.4z"/>
			</g>
			<path class="st6" d="M499.9,337.4c42.2,0,84.4,0,126.6,0c18-10.4,11.6-21.8-7.5-25.2c-12.2-2.2-26.5-6.3-37.7-13.1
				c-16.7,0-33.5,0-50.2,0C520.7,311.9,510.3,324.7,499.9,337.4z"/>
			<path class="st9" d="M870,164.1c8.9,0,16.3,4.6,16.5,10.2c0,1.1,0.1,1.7,0.1,2.8c0.2,5.7-7.4,10.2-17,10.2c-1.9,0-2.8,0-4.7,0
				c-9.6,0-17-4.6-16.5-10.2c0.1-1.1,0.2-1.7,0.3-2.8c0.5-5.7,8.1-10.2,17-10.2C867.3,164.1,868.2,164.1,870,164.1z"/>
			<path class="st9" d="M745.4,326.4c11.8-2.3,20.4-19.1,34.3-11.6c6.6,3.6,4,6.4,18,7c14.8,0.6,14.1-2,15.7-7
				c0.6-1.8,0.6-4.5,3-6.1c3.6-2.2,8.9-2.1,13.7-3.8c9.6-3.4,12.2-9.6,9.6-14.4c-2.5-4.7-9-6.9-18.5-3.4c-8.8,3.3-7.9,9.5-22.9,8.1
				c-10.1-0.9-9.4-5.3-16.6-7.6c-5.5-1.7-20.3-3.7-27.4-3.1c-5.6,0.4-5,1.6-9.2,2.3c-5.2,0.9-10.8,0.1-15.8,0.9
				c-9,1.4-12.8,6.3-5.3,9.2c6,2.3,23.8,0.9,15.4,6.3c-1.9,1.3-7.2,1.2-9.5,2.3c-3.8,1.7-4,3.4-5.5,5.5c0,0-5.9,7,0.2,12.6
				C724.6,323.7,728.4,329.7,745.4,326.4z"/>
			<g>
				<path class="st9" d="M1063.8,188.8c-7.2,3.3-5.6,9.9-4.6,15.5c1,5.8-2,10.8-12.5,12c-10.2,1.2-21.4-0.1-31.6-1.7
					c0.8,1.9,1.2,2.9,2,4.8c12.8,1.3,24.9,2.4,37.1,1c13.2-1.6,15.1-10.3,13.1-17.6c-1.3-4.8-0.8-9.9,7.2-11.2
					c3.6-0.6,8.4,0.1,13.3,1.3c-2.8,0.6-4.9,1.8-4.8,3.7c0.1,1.3,0.9,2.7,1.8,4.1c1.6,2.4,2.4,3.1-2.7,3c-1.7-0.1-3.3,0.8-2.9,1.7
					c4.3,12.1,31.9,15,40.1,6.9c3.9-3.8-1.3-9.8-9.1-14.5c-1.6-1.5-4.2-2.8-7.2-3.7c-4.7-2.1-9.7-3.9-14.2-5.1
					C1079.2,186.4,1069.9,186.1,1063.8,188.8z"/>
			</g>
		</g>
	</g>
</g>
<g>
	<linearGradient id="SVGID_3_" gradientUnits="userSpaceOnUse" x1="870.6907" y1="105.7195" x2="990.6514" y2="105.7195">
		<stop  offset="0" style="stop-color:#E81A48"/>
		<stop  offset="1" style="stop-color:#5E0007"/>
	</linearGradient>
	<path class="st10" d="M983.5,108.9L983.5,108.9c4.7-8.7,7.3-18.7,7.1-29.2c-0.4-33.1-27.7-59.6-60.8-59.2
		c-33.1,0.4-59.6,27.7-59.2,60.8c0.1,10.6,3,20.5,7.9,29h0l0.1,0.1c1.3,2.2,2.7,4.3,4.2,6.3l49.2,74.1l47.2-75.4
		c1.5-2.1,2.8-4.2,4-6.5L983.5,108.9z"/>
	<linearGradient id="SVGID_4_" gradientUnits="userSpaceOnUse" x1="870.6907" y1="105.7197" x2="958.0266" y2="105.7197">
		<stop  offset="0" style="stop-color:#E81A48"/>
		<stop  offset="1" style="stop-color:#5E0007"/>
	</linearGradient>
	<path class="st11" d="M917.6,98.7c-4.5-22.1-3.4-52.4,13.3-69.6c2.8-2.9,5.8-5.4,9-7.7c-3.3-0.5-6.7-0.8-10.1-0.7
		c-33.1,0.4-59.6,27.7-59.2,60.8c0.1,10.6,3,20.5,7.9,29h0l0.1,0.1c1.3,2.2,2.7,4.3,4.2,6.3l49.2,74.1l25.9-41.3
		C935.9,145.5,921.7,118.7,917.6,98.7z"/>
	<circle class="st12" cx="930.7" cy="79.2" r="44.4"/>
	<linearGradient id="SVGID_5_" gradientUnits="userSpaceOnUse" x1="893.1441" y1="79.2365" x2="968.1982" y2="79.2365">
		<stop  offset="0" style="stop-color:#E81A48"/>
		<stop  offset="1" style="stop-color:#5E0007"/>
	</linearGradient>
	<circle class="st13" cx="930.7" cy="79.2" r="37.5"/>
	<linearGradient id="SVGID_6_" gradientUnits="userSpaceOnUse" x1="896.5776" y1="79.2369" x2="964.7646" y2="79.2369">
		<stop  offset="0" style="stop-color:#5E0007"/>
		<stop  offset="1" style="stop-color:#E81A48"/>
	</linearGradient>
	<path class="st14" d="M964.8,78.8c0.3,18.8-14.8,34.3-33.6,34.5c-18.8,0.3-34.3-14.8-34.6-33.6c-0.3-18.8,14.8-34.3,33.6-34.5
		C949,44.9,964.5,59.9,964.8,78.8z"/>
</g>
<g>
	<path class="st15" d="M640.8,299.1l3.6-1.3l2.5,3.2c0,0-2,3.5-6,1.9L640.8,299.1z"/>
	<path class="st16" d="M640.8,299.1c0,0,3,1,3.6-1.3C644.4,297.8,641.4,297.6,640.8,299.1z"/>
	<path class="st15" d="M557.2,305.7l1.7-2.9l4.6,1.2l-0.2,4C563.4,308,558.7,309.2,557.2,305.7z"/>
	<path class="st16" d="M558.9,302.8c0,0,1.8,2.3,4.6,1.2C563.5,304,562.7,301.9,558.9,302.8z"/>
	<path class="st15" d="M598.8,320.1l5.6,0.4l1.3,4.4c0,0-5.1,3-8.6-0.6L598.8,320.1z"/>
	<path class="st16" d="M598.8,320.1c0,0,2,2.9,5.6,0.4C604.4,320.5,602.5,319.1,598.8,320.1z"/>
	<polygon class="st15" points="606.5,171 608.9,178.8 613.3,178.3 611.5,171.2 	"/>
	<polygon class="st15" points="600.6,171.3 600,177.1 607.8,177.5 607.4,171.5 	"/>
	<path class="st15" d="M561,303.8c0.5,0.1,1,0,1.5-0.1l38-126.2l-5-0.6L560,303C560.2,303.4,560.5,303.7,561,303.8z"/>
	<path class="st15" d="M643.7,298l-31.5-123.9L608,174l33.5,124.8C642.6,299.3,643.5,298.7,643.7,298z"/>
	<path class="st15" d="M600,320.3C600,320.3,600,320.3,600,320.3c0.3,0.2,0.5,0.2,0.8,0.3c0.5,0.1,1.3,0.2,1.8,0
		c0.2-0.1,0.4-0.3,0.6-0.4l2.1-65.8l1.1-0.3l2.3-82.8l-7.3,0.7l-1.3,82.1l1.2,0L600,320.3z M602.3,174.3l4.5,0.3l-1.4,76.6l-4.2,0.2
		L602.3,174.3z"/>
	<polygon class="st15" points="596.7,171 594.8,178.4 600.1,179.4 602,170.8 	"/>
	<polygon class="st15" points="596.3,168.3 595.7,172.8 612.3,173.5 611.5,169 	"/>
	<path class="st17" d="M611.9,171.5l-0.4-2.5l-15.2-0.6l-0.4,2.7C597.2,171.1,609.8,171.6,611.9,171.5z"/>
	<polygon class="st18" points="612.1,169.4 595.6,169.4 593,151.7 614.7,151.7 	"/>
	<path class="st15" d="M600.6,164.1c-0.6-2.6-0.8-5.3-1.5-7.9c-0.4-1.5-0.9-3-1.2-4.5h-5l2.7,17.7h6.1
		C601.4,167.6,601,165.9,600.6,164.1z"/>
	<path class="st17" d="M613.3,161.3l1.5-9.6H593l1.5,10.2C607.1,166.2,612,162.1,613.3,161.3z"/>
	<g>
		<path class="st19" d="M612.6,97.2c-1.2-0.9-2.6-1.6-3.9-2.3c0,0,0,0,0,0c-0.9,0.2-1.9,0.4-2.8,0.6c-1,0.1-2.1,0.2-3.1,0.2
			c2.3,1.2,6.6,3.7,6.9,5.7c0.2,1.9-1.1,3.3-2.1,4.4c0.8,0,4.1,0,5,0c1.1-0.6,0.3-1.4,1.2-2.4C615.2,101.7,614.7,98.9,612.6,97.2z"
			/>
		<path class="st20" d="M617.4,95.6C614,93,594.9,92.1,587,93c0.1,0.5,0.2,1.1,0.2,1.6c0,0.3,0,0.6,0.1,0.9c0,0,0,0,0,0
			c0.1,0.2,0.1,0.2,0.1,0.3c0.2,0.4,0.3,0.9,0.3,1.3c3.7,0.6,7.7,2.3,4.1,7.3c0,0-7,1.7-7.8,6.7c-0.8,5-5.9,38-1,41.4
			c3.7,2.6,24.7,2.9,34.7,1.3c0,0,0.1-0.1,0.1-0.1c1.1-0.8,3.1-1.5,3.8-2.7c0.9-1.5,1.4-3.1,2.1-4.7C624,132.5,620.6,98,617.4,95.6z
			 M613.4,101.2l-1.8,2.3c-0.1,0.2-0.3,0.3-0.6,0.3l-10.1-0.2c-0.1,0-0.2,0-0.3-0.1l-2.5-2.1c-0.3-0.2-0.4-0.6-0.3-0.9l1.8-3.1
			c0.1-0.2,0.3-0.3,0.5-0.4c1.7-0.2,7.9-0.1,9.3,0.6c1.1,0.6,2.9,1.9,3.8,2.6C613.6,100.5,613.6,100.9,613.4,101.2z"/>
		
			<linearGradient id="SVGID_7_" gradientUnits="userSpaceOnUse" x1="1889.4291" y1="112.6976" x2="1889.7693" y2="167.1209" gradientTransform="matrix(-1 0 0 1 2491.978 0)">
			<stop  offset="0.5806" style="stop-color:#9AACBA"/>
			<stop  offset="0.8817" style="stop-color:#6E889C"/>
		</linearGradient>
		<path class="st21" d="M617.4,95.6C614,93,594.9,92.1,587,93c0.1,0.5,0.2,1.1,0.2,1.6c0,0.3,0,0.6,0.1,0.9c0,0,0,0,0,0
			c0.1,0.2,0.1,0.2,0.1,0.3c0.2,0.4,0.3,0.9,0.3,1.3c3.7,0.6,7.7,2.3,4.1,7.3c0,0-7,1.7-7.8,6.7c-0.8,5-5.9,38-1,41.4
			c3.7,2.6,24.7,2.9,34.7,1.3c0,0,0.1-0.1,0.1-0.1c1.1-0.8,3.1-1.5,3.8-2.7c0.9-1.5,1.4-3.1,2.1-4.7C624,132.5,620.6,98,617.4,95.6z
			 M613.4,101.2l-1.8,2.3c-0.1,0.2-0.3,0.3-0.6,0.3l-10.1-0.2c-0.1,0-0.2,0-0.3-0.1l-2.5-2.1c-0.3-0.2-0.4-0.6-0.3-0.9l1.8-3.1
			c0.1-0.2,0.3-0.3,0.5-0.4c1.7-0.2,7.9-0.1,9.3,0.6c1.1,0.6,2.9,1.9,3.8,2.6C613.6,100.5,613.6,100.9,613.4,101.2z"/>
		
			<linearGradient id="SVGID_8_" gradientUnits="userSpaceOnUse" x1="1889.4244" y1="112.6976" x2="1889.7646" y2="167.121" gradientTransform="matrix(-1 0 0 1 2491.978 0)">
			<stop  offset="0.5806" style="stop-color:#9AACBA"/>
			<stop  offset="0.8817" style="stop-color:#6E889C"/>
		</linearGradient>
		<path class="st22" d="M589.3,144.8c5.9,1.4,12.1,2,18.3,2.1c5.3,0.1,11.3,0.5,16.2-1.9c0,0.4,0,0.8,0,1.2
			c-0.6,1.6-1.2,3.2-2.1,4.7c-0.7,1.2-2.7,2-3.8,2.7c0,0-0.1,0.1-0.1,0.1c-10,1.6-31.1,1.3-34.7-1.3c-1.5-1-2-4.8-2.1-9.6
			c1.9,0.5,3.8,0.9,5.7,1.3C587.6,144.4,588.5,144.6,589.3,144.8z"/>
		
			<linearGradient id="SVGID_9_" gradientUnits="userSpaceOnUse" x1="1903.5308" y1="126.3648" x2="1880.4778" y2="127.3187" gradientTransform="matrix(-1 0 0 1 2491.978 0)">
			<stop  offset="0.5806" style="stop-color:#9AACBA"/>
			<stop  offset="0.8817" style="stop-color:#6E889C"/>
		</linearGradient>
		<polygon class="st23" points="593.7,114.5 599.6,110.4 612.1,120.6 608.7,137.5 596.4,143.1 592.2,140.5 		"/>
		<path class="st19" d="M616.4,105.5c-4.5,0-9,0.1-13.6,0.1c-4.3,0-8.6,0-12.9,0c-1.4,0.6-2.9,1.4-4,2.4c11.9-0.1,23.8-0.1,35.7-0.8
			c-0.1-0.6-0.1-1.2-0.2-1.8C619.7,105.5,618.1,105.5,616.4,105.5z"/>
		<path class="st24" d="M591,95.5c-1.3-0.7-2.6-1.4-3.8-2.3c0.1,0.4,0.1,0.8,0.2,1.2c-0.1-0.7,0.1,0.6,0.2,0.7
			c0.1,0.2,0.5,1,0.1,0.3c0.3,0.6,0.5,1.2,0.5,1.8c3.5,0.7,7,2.5,3.5,7.2c0,0-7,1.7-7.8,6.7c-0.8,5-5.9,38-1,41.4
			c0.4,0.3,1,0.6,1.9,0.8c1.9-3.6,4.9-6.8,7.4-10c1.1-1.4,1.9-3,2.5-4.7c0.2-2.9,0.6-5.9,1.4-8.6l-1.7-32.8
			C593.3,96.5,592.1,96,591,95.5z"/>
		<path class="st25" d="M586.1,149.6c0.1,0,0.2-0.1,0.3-0.1c0.2-0.1,0.4-0.2,0.6-0.3c0.2-0.1,0.5-0.3,0.6-0.4c0.8-0.8,1.5-1.6,2-2.7
			c1.1-2.3,1.3-5.1,1.8-7.7c0.6-3.1,1.4-6.2,1.9-9.3c0.5-3,0.7-6,1.2-9c0.8-4.7-0.1-9.8,1.1-14.4c-0.7-0.4-3.1-0.9-3.6-1.6
			c-0.1,0.1-0.2,0.2-0.2,0.3c0,0,0.4,0.3-1.2,0.9c0.7,2.4,0.4,5.2,0.2,7.5c-0.3,5.1-0.6,10.1-1.4,15.2c-0.5,3.4-0.9,6.9-1.4,10.3
			c-0.4,2.3-0.7,5.4-2.5,7c-1.2,1.1-2.7,1.8-4.3,2.2c0.1,1.2,0.4,2.3,0.6,3.1C583.3,150.5,584.6,150.3,586.1,149.6z"/>
		<path class="st26" d="M591.9,123.7c0.3-2.8,0.7-7.5,1-10.4c-0.5-0.2-1-0.3-1.6-0.3c-0.4,0-3.2,0-3.5,0.1c0,0,0,0,0,0
			c-2.1,0.1-3.9,2-4,4.2c-0.1,1.4-1.1,3.8,1,4.7C585.8,122.5,591.5,123.8,591.9,123.7z"/>
		<path class="st27" d="M596,96.7c-0.6-2.3-4.9-3.3-7.3-3.8c-1.1,0.1-2.3,0.2-3.4,0.4c-0.8,0.2-1.4,1-1.5,1.8
			c-0.1,0.4-0.1,0.9,0.1,1.2c0.3,0.6,0.7,0.6,1.3,0.7c0.4,0.1,0.9,0.2,1.3,0.3c1,0.3,1.9,0.6,2.8,1.1c1.2,0.7,2.1,1.8,2.2,3.3
			c0,0,0.5,24-0.4,29.2c-0.9,5.3-1.4,10.8-4.3,15.5c-1,1.5-3.2,2.3-5.5,1.9c0.3,2.1,0.9,3.6,1.7,4.2c1.2,0.8,4,1.4,7.6,1.8
			c0.1-0.1,0.2-0.2,0.4-0.4c0,0,0,0,0,0c1.9-1.6,3.2-3.8,3.7-6.2C596.3,140.2,596.9,100.3,596,96.7z"/>
		<path class="st26" d="M583.9,140.4c0.4,0.2,4.8,1.2,5,1.3c1.1-3.5,1.6-7.6,2.2-10.8c0-0.1,0-0.2,0.1-0.4c-0.3-0.1-0.6-0.1-0.9-0.1
			c-0.5,0-4-0.1-4.5,0l0,0c-2,0.2-3.7,2.1-4.1,4.3C581.4,137.1,581.8,140,583.9,140.4z"/>
		<path class="st27" d="M617.4,95.6c-0.7-0.6-2.3-1.1-4.3-1.5c0,0,3.9,3.5,5.1,7.8c1.3,4.8,5.5,34.1,2.7,46.3c-0.6,2.8-3,5.5-3,5.5
			c3.3-0.5,4.9-1.6,5.6-2.2c5.6-5,2.2-32-1.6-48.5C620.9,99.1,618.2,96.2,617.4,95.6z"/>
		<path class="st28" d="M591.4,128.3c0.1-0.8,0.1-1.8,0.1-2.8c1.6,0.3,3.1,0.6,4.7,0.9c0,0.9-0.1,1.8-0.1,2.7
			C594.5,128.8,592.9,128.5,591.4,128.3z"/>
		<path class="st28" d="M591.9,111.7c-0.1,0-0.2,0-0.3-0.1c0,2,0,4.2,0,6.3c1.6,0.3,3.2,0.6,4.7,0.9c0-2.2,0.1-4.3,0.1-6.4
			C594.9,112.2,593.4,111.9,591.9,111.7z"/>
		<path class="st28" d="M621.1,122.7c-0.3-2.9-0.6-5.7-0.9-8.3c1.3,0.2,2.7,0.5,4,0.7c0.4,2.7,0.8,5.4,1.2,8.1
			C624,123.1,622.5,122.9,621.1,122.7z"/>
		<path class="st28" d="M623,134.2c-0.4-0.1-0.8-0.2-1.2-0.3c0-1.2-0.1-2.4-0.1-3.6c0.8,0.1,1.7,0.2,2.5,0.4c0.7,0.1,1.3,0.2,2,0.3
			c0.1,1.4,0.2,2.8,0.2,4.2C625.3,134.8,624.1,134.5,623,134.2z"/>
		<path class="st19" d="M599.6,110.4c0,0,1.2,23.4,0,26.6c-1.2,3.1-3.2,6.1-3.2,6.1h18.4c0,0,4.1-4.7,4.1-6.9c0-2.2-1.2-23.2-3-25
			C614.1,109.4,603.2,109.1,599.6,110.4z"/>
		<path class="st29" d="M614.2,116.4c-2.8-0.6-4.5-0.7-7.5-0.7c-0.9,0-1.8,0.1-2.6,0.2c-1.4,0.6-2.9,1.2-4.3,1.9
			c0.2,5.2,0.3,12,0.1,16.1c3.6,1.1,7.3,2,10.9,1.9c3-0.1,5.6-0.8,7.9-2.3c-0.2-3.9-0.7-11-1.4-16.2
			C616.5,117,615.5,116.7,614.2,116.4z"/>
		<g>
			<path class="st30" d="M589.3,117.7c-0.1,2.7-1.9,4.6-3.8,4.4c-0.4,0-2.5-0.2-2.8-0.3c-1.2-0.7-0.4-2.4-0.3-4.3
				c0.1-2-0.6-3.8,0.7-4.3c0.3-0.1,2.4-0.1,2.7-0.1C587.8,113,589.4,115.1,589.3,117.7z"/>
			<path class="st31" d="M586.4,117.6c-0.1,2.5-1.7,4.4-3.5,4.2c-1.7-0.2-2.9-2.2-2.8-4.4c0.1-2.3,1.5-4.1,3.2-4.2
				C585,113.1,586.5,115.1,586.4,117.6z"/>
		</g>
		<g>
			<path class="st30" d="M588.5,135.9c-0.3,3-2.5,5.1-4.6,4.6c-0.4-0.1-2.8-0.5-3-0.7c-1.1-0.9,0-2.6,0.3-4.7c0.2-2-0.8-4,0.5-4.6
				c0.3-0.2,3,0,3.4,0C587.2,130.4,588.8,132.8,588.5,135.9z"/>
			<path class="st31" d="M584.8,135.5c-0.3,2.8-2.1,4.7-3.9,4.3c-1.6-0.4-2.6-2.6-2.3-5c0.3-2.4,1.7-4.3,3.4-4.3
				C583.8,130.4,585.1,132.7,584.8,135.5z"/>
		</g>
		<g>
			<path class="st29" d="M614.9,125.2c0,3.9-1.6,7.1-5.6,7.1l-4.3-0.6c-3.1-1.3-4.7-3.4-4.7-6.5c0-2.6,1.9-4.8,2.9-5.6
				c0,0,4.6-1.5,6-1.5C613.2,118.1,614.9,121.3,614.9,125.2z"/>
			<ellipse class="st32" cx="609.6" cy="125.2" rx="7.3" ry="7.1"/>
			<ellipse class="st33" cx="609.6" cy="125.2" rx="5.8" ry="5.6"/>
			<path class="st34" d="M610,119.6c0.9,0.7,1.6,1.6,1.9,2.7c0.9,2.6,0.6,6.9-2,8.5c3-0.2,5.4-2.6,5.4-5.6
				C615.4,122.3,613,119.8,610,119.6z"/>
		</g>
	</g>
</g>
<g>
	<path class="st35" d="M730.2,147.8c0,0-3.3-6.3-8.9-3.6c-5.6,2.7-6.2,7.3-1,10.7S733.6,152.5,730.2,147.8z"/>
	<path class="st36" d="M755.3,309.9h7.8v-13h-11.5c-3.3,9.3-15.6,9.8-17.8,10.2c-2.2,0.5,0,5.2,0,5.2l15.7-1l5.6-5.9L755.3,309.9z"
		/>
	<path class="st36" d="M783.2,296.7v12.6c0,0,4.1-0.1,4.7,0.9c0.5,0.8,4.6,7.2,7.9,7.7c2.5,0.4,7.9,0.2,6.5-3.8
		c-1.5-4.1-10.5-16.9-10.5-16.9L783.2,296.7z"/>
	<linearGradient id="SVGID_10_" gradientUnits="userSpaceOnUse" x1="773.115" y1="316.2027" x2="769.4564" y2="163.2785">
		<stop  offset="0" style="stop-color:#337A9B"/>
		<stop  offset="0.914" style="stop-color:#045B7E"/>
	</linearGradient>
	<path class="st37" d="M750.6,167.6L750.6,167.6c0,0-6.5,11.9-6.8,26.8c-0.4,18.6,3.1,44.6,4,47.8c0.3,1,0.9,6.9,0.8,14.9
		c-0.1,3.8-1.4,39.6-2.1,42.2l0,0c0,0,8.7,3.3,19.2,0l0,0c0,0,0.1-37.8,0-40c-0.3-9.8-2.6-17.7-2.7-20.5c-0.1-3.4-0.6-48.2,0.5-49.7
		c0,0,10.8,52.6,11.7,55.7c0.6,2,1.8,12,2,16.7c0.6,12.4,2.1,39.2,2.1,39.2s15.5,1.7,20-1.7c0,0-4-22.9-5.7-33.3
		c-0.9-5.7-5.1-29.7-5.1-31.7c0-1-0.7-22.8-2.5-40.8c-1.3-12.8-4.9-23-8.5-25.8l0,0C777.5,167.6,754.4,168.7,750.6,167.6z"/>
	<linearGradient id="SVGID_11_" gradientUnits="userSpaceOnUse" x1="767.8715" y1="318.1138" x2="764.1691" y2="163.359">
		<stop  offset="0" style="stop-color:#337A8E"/>
		<stop  offset="0.914" style="stop-color:#045B74"/>
	</linearGradient>
	<path class="st38" d="M786,195.3c-0.9,0.5-8.3,2.4-10.7,2.5c-3.7,0.1-6.5-0.1-10.4-1.2c-0.9-4.4-1.5-7.3-1.5-7.3
		c-0.3,0.3-0.4,3.2-0.5,7.4c-1.7,0.1-5.6,1.7-9.8,1.8c-3.4,0.1-6-0.4-9.3-1.4c0-0.9,0-1.8,0-2.7c0.3-14.9,6.8-26.8,6.8-26.8l0,0
		c3.8,1.1,26.9,0,26.9,0h0c3.6,2.8,7.2,13,8.5,25.8c0.1,0.6,0.1,1.2,0.2,1.8C786.1,195.2,786,195.3,786,195.3z"/>
	<path class="st39" d="M772.7,78.1c-5.1,2.9-11.4,8.2-17.3,7.9c-0.2,3.1-0.7,7.8-1.6,9.6c-1.4,2.7-4.4,4.6-4.4,4.6s6,9.9,14.6,6.7
		c8.6-3.2,11.6-7.7,12.2-8.2C776.7,98.1,772,86.7,772.7,78.1z"/>
	<path class="st40" d="M748.6,100.8l6.5-3.3l7.9-0.4l12.6-1.1l6.5,6.6l-20.8,38C761.4,140.7,746.3,118.6,748.6,100.8z"/>
	<polygon class="st41" points="758.2,99.7 761,104.4 755.9,121.8 761,132.6 766.2,121.2 762.8,104.6 767,98.4 763.2,94.6 	"/>
	<polygon class="st42" points="757.3,99.5 760.2,104.1 755.1,121.5 760.2,132.4 764.9,122.1 761.9,104.3 766.2,98.2 762.3,94.3 	"/>
	<polygon class="st43" points="773.6,88 762.3,94.3 767.2,103.3 776.2,96 	"/>
	<polygon class="st43" points="757.1,103 762.3,94.3 754.4,93.2 750.3,99.6 	"/>
	<path class="st44" d="M765.9,48.9c-5.5-0.8-12.2,2.1-14.7,7.2c-1,2-1.9,4.3-2.4,6.5c-1.1,5.7-1.5,8.7-2.4,12.4
		c-0.8,3.6,1.9,15.2,5.2,15.7c3.3,0.5,17.5-1.9,18.6-4c1.1-2.1,1.9-8.8,1.9-8.8s5.6,1.4,7.8-4.1c2.2-5.5-0.9-8.4-6.3-4.3
		c0,0,6-12.3,0.7-17C772,50.4,768.9,49.3,765.9,48.9z"/>
	<path class="st45" d="M782,48.3c-5.8-7.2-32.8-1.4-31.1,8.4c0,0,3.2,1.9,7,1.8c2.6-0.1,11.2-2.9,14.6-0.6c1.4,1,1.3,3.4,1.1,4.9
		c-0.2,2.7-0.9,5.4-1.7,8c-0.9,3.1-2,6.2-3.4,9.2c-0.8-1.1-2.1-2.6-4.1-3.5c-2.1-0.9-4.2,0.2-9.2,0.6c-1.5,0.1-3.4-0.1-5.4-0.8
		c-1.2-0.5-3.6,0.3-3.7,0.4c-0.6,4,1.8,17.1,5,17.6c3.3,0.5,17.5-4.1,18.6-6.2c0.6-1.2,1.7-4.5,2.5-7.1c1.9,0.4,8.1,1.2,9.5-2.7
		C783.6,73.7,787.8,55.5,782,48.3z M773.6,77.2c-0.3-1.4-0.6-1.7-0.7-2.7c0.4-1.5,0.9-2.9,1.5-4.1c1.1-2.5,2.2-2.5,3.7-2.3
		C781.4,68.5,779.7,78.3,773.6,77.2z"/>
	<path class="st46" d="M751.5,89.7c-1.3-0.2-3.9-4-3.9-4c0.9,3.8,2.4,7.3,4,7.6c3.2,0.5,16.8-3.9,17.9-5.9c0.5-1,1.4-3.8,2.2-6.2
		C768.4,86.5,757.9,90.9,751.5,89.7z"/>
	<path class="st47" d="M755,59.9c-0.6-0.2-3.4-0.1-5.1,0.8c-0.5,0.3-0.8,0.6-1,1c0,0.2,0,0.4-0.1,0.6c0,0.4,0,0.7-0.1,1
		c0.1,0,0.1,0,0.2,0c1.7,0,5.9-0.2,6-0.5C755,62.4,756.1,60.3,755,59.9z"/>
	<path class="st47" d="M769.5,64.7c0,0-4.1-1.3-5-1.3s-5,0.3-5.1,0c-0.1-0.3-0.7-3.2,0.8-3.2c1.5,0,5.8,0.4,6.5,0.9
		C767.7,61.5,771.5,64.8,769.5,64.7z"/>
	<path class="st48" d="M748.7,61.9c-0.2,0.5-0.3,0.9,0.3,0.9c1.7,0,5.9-0.2,6-0.5c0.2-0.5,1.2-2.6,0.2-3c-0.6-0.2-3.4-0.1-5.1,0.8
		C749.2,60.5,748.9,61.2,748.7,61.9z"/>
	<path class="st48" d="M769.7,64.1c0,0-4.1-1.3-5-1.3c-0.9,0-5,0.3-5.1,0c-0.1-0.3-0.7-3.2,0.8-3.2c1.5,0,5.8,0.4,6.5,0.9
		C767.8,61,771.6,64.2,769.7,64.1z"/>
	<g>
		<path class="st49" d="M750.4,78c0,0,1,6.6,5.8,6.3c4.8-0.3,7.9-6.8,7.9-6.8S755.7,81.2,750.4,78z"/>
		<path class="st50" d="M763,78c-1.3,1.9-3.7,4.6-6.7,4.8c-3.2,0.2-4.7-2.6-5.4-4.5C755,80.3,760.6,78.8,763,78z"/>
	</g>
	<path class="st51" d="M732.7,151.2l-7.8-5.7l-7.9,4.1c0,0,3.8,4.8,9.8,6.6C732.8,158.1,734.3,152.5,732.7,151.2z"/>
	<path class="st52" d="M739.3,104.8l-1,2.1c-1.9,3.7-3.3,7.7-4,11.8c-0.2,1.3-0.4,2.5-0.4,3.5l0.4,26l-7.3-3.1c0,0,5.3,3.7,0.5,7.5
		c-4.7,3.7-10,2-10.6-3.7c0,0-0.6,5.2,2.2,6.9c4.8,2.8,26.9,11.4,28.4,11.4s3-2.3,1-10.5C746.4,148.5,749.5,136.8,739.3,104.8z"/>
	<path class="st53" d="M745.1,130.3c0.3,1.1,0.7,2.1,1,3.1c-0.8-5.4-2.1-11.9-4.3-19.8c-0.2,1.5-0.2,3,0,4.4
		C742.8,122.1,743.9,126.3,745.1,130.3z"/>
	<path class="st53" d="M747.5,161c-7.4-0.4-14.1-4.1-19.5-9c-0.2,0.2-0.4,0.4-0.7,0.6c-4.7,3.7-10,2-10.6-3.7c0,0-0.6,5.2,2.2,6.9
		c4.8,2.8,26.9,11.4,28.4,11.4c1.2,0,2.4-1.5,1.8-6.3C748.6,161,748,161,747.5,161z"/>
	<path class="st54" d="M749.2,162.6c-0.1-2.7-0.9-5.2-1.3-7.8c-1.3-0.4-2.5-1.1-3.4-2.1c-1-1.2-1.5-3-2.1-4.4
		c-1.4-3.3-2.5-6.8-3.6-10.2c-1,2.7-2.1,5.3-3.5,7.6c1.7,5.9,4.7,13,2,18.1c0,0,5.9,2.3,8.9,3.2c0.7,0.2,1.5,0.5,2.1-0.2
		C749.3,165.8,749.3,163.9,749.2,162.6z"/>
	<g>
		<g>
			
				<linearGradient id="SVGID_12_" gradientUnits="userSpaceOnUse" x1="707.5447" y1="183.9419" x2="714.6153" y2="193.2676" gradientTransform="matrix(0.976 -0.2176 0.2176 0.976 -22.6183 94.2101)">
				<stop  offset="8.602150e-002" style="stop-color:#F8ECD1"/>
				<stop  offset="0.2616" style="stop-color:#F7EACB"/>
				<stop  offset="0.4917" style="stop-color:#F5E3BB"/>
				<stop  offset="0.7509" style="stop-color:#F1D8A0"/>
				<stop  offset="0.8384" style="stop-color:#EFD495"/>
			</linearGradient>
			<path class="st55" d="M711.3,133.5c2.2-0.8,4.3-1.8,6.1-3.2c2-1.6,4.9-4.4,5.5-7c0.1-0.7,0.3-1.4,0.3-2.1
				c-0.8-0.9-1.5-1.7-2.1-2.4c0,0-1.1-0.3-3.1,0.5c-0.2,0.1-0.9-1-2-2.4c0,0-10.1,1.5-9.2,13.9c0,0,1.6,1,4.1,2.6
				C711.1,133.5,711.2,133.5,711.3,133.5z"/>
			
				<linearGradient id="SVGID_13_" gradientUnits="userSpaceOnUse" x1="714.7161" y1="191.7726" x2="716.3923" y2="194.3021" gradientTransform="matrix(0.976 -0.2176 0.2176 0.976 -22.6183 94.2101)">
				<stop  offset="0.2589" style="stop-color:#F5E5C2"/>
				<stop  offset="0.8441" style="stop-color:#F2DDAE"/>
			</linearGradient>
			<path class="st56" d="M720.8,123.3c-0.9-0.9-1.8-1.7-2.6-2.7c-0.5,1-1.1,1.9-2.1,2.5c-0.3,0.4-0.6,0.9-1,1.2
				c-0.5,0.4-1.1,0.8-1.6,1.2c0.7-0.5,0.1,0-0.1,0.2c-0.6,0.7-1.1,1.6-1.9,1.9c0.6,0.8,4.1,3.2,4.8,3.8c0.7-0.4,0.5-0.6,1.1-1.1
				c1.7-1.3,4-3.5,5-5.7C721.8,124.2,721.3,123.7,720.8,123.3z"/>
			<path class="st57" d="M721.1,118.9C721.1,118.9,721.1,118.9,721.1,118.9c1.4,5.2-3.6,14-13,12.3c-0.4-0.1-0.8-0.1-1.2-0.3
				c0,0,0,0,0,0c0,0,37.2,23,45.6,32.1l-2.7-19.5C749.8,143.6,727.3,126.6,721.1,118.9z"/>
			<path class="st57" d="M716.4,129.6c3.6,1.6,6.9,3.9,10.1,6.2c2.2,1.6,4.3,3.5,6.5,5.1c2.2,1.6,4.5,2.8,6.6,4.5
				c2.2,1.8,3.9,3.9,5.5,6.2c0.5,0.7,1.8,2.9,2.4,3.1c1.7,0.6,3.1,1.6,4.2,2.8l-2-14c0,0-22.5-17-28.6-24.7c0,0,0,0,0,0
				C722,122.2,720.3,127,716.4,129.6z"/>
			<path class="st57" d="M749.8,143.6c0,0-22.5-17-28.6-24.7c0,0,0,0,0,0c0.2,0.6,0.2,1.3,0.2,2c2.8,5.2,3.8,9.9,2.4,12.9
				c0.9,0.6,1.9,1.3,2.8,2c2.2,1.6,4.3,3.5,6.5,5.1c2.2,1.6,4.5,2.8,6.6,4.5c2.2,1.8,3.9,3.9,5.5,6.2c0.5,0.7,1.8,2.9,2.4,3.1
				c1.7,0.6,3.1,1.6,4.2,2.8L749.8,143.6z"/>
			<path class="st58" d="M752.4,159.5c-0.5-2.7-0.6-3.5-1.1-6.2c0,0-12.6-5.4-19.6-10.7c-0.3-0.1-0.7-0.2-1-0.4
				c-5.3-2.3-11.6-7.1-13.7-11.1c-3.5,1.8-6.4,1.1-6.4,1.1c0,0,30.6,18.9,42,29.1C752.5,160.7,752.5,160.1,752.4,159.5z"/>
			
				<linearGradient id="SVGID_14_" gradientUnits="userSpaceOnUse" x1="711.5501" y1="186.2538" x2="714.5917" y2="190.6423" gradientTransform="matrix(0.976 -0.2176 0.2176 0.976 -22.6183 94.2101)">
				<stop  offset="8.602150e-002" style="stop-color:#F8ECD1"/>
				<stop  offset="1" style="stop-color:#EFD495"/>
			</linearGradient>
			<path class="st59" d="M718.2,119.3c0,0-8,2-7.1,7.6C711.6,129.8,721.4,125.2,718.2,119.3z"/>
			
				<linearGradient id="SVGID_15_" gradientUnits="userSpaceOnUse" x1="713.666" y1="187.6072" x2="715.6091" y2="190.411" gradientTransform="matrix(0.976 -0.2176 0.2176 0.976 -22.6183 94.2101)">
				<stop  offset="8.602150e-002" style="stop-color:#F8ECD1"/>
				<stop  offset="1" style="stop-color:#EFD495"/>
			</linearGradient>
			<path class="st60" d="M718.8,121.3c-1.7,0-4.2,2.9-5.4,3.9c0.1,0.1,2.8,0.9,2.8,1.1C717.7,125.2,719,123.4,718.8,121.3
				C718.8,121.3,718.8,121.3,718.8,121.3z"/>
			
				<linearGradient id="SVGID_16_" gradientUnits="userSpaceOnUse" x1="714.2526" y1="189.9842" x2="715.1479" y2="191.5511" gradientTransform="matrix(0.976 -0.2176 0.2176 0.976 -22.6183 94.2101)">
				<stop  offset="0" style="stop-color:#F5E5C2"/>
				<stop  offset="0.8441" style="stop-color:#F2DDAE"/>
			</linearGradient>
			<path class="st61" d="M717.5,122.3c-0.4,0.4-1.4-0.1-1.7,0.4c-0.6,0.7-1.1,1.5-1.8,2.2c-0.1,0.1-0.6,0.2-0.7,0.3
				c0.6,0.5,1.4,1.1,2,1.7c1.4-0.8,2.6-2,3.2-3.5C717.9,122.8,717.5,122.3,717.5,122.3z"/>
			
				<linearGradient id="SVGID_17_" gradientUnits="userSpaceOnUse" x1="713.0446" y1="188.1236" x2="714.2813" y2="189.908" gradientTransform="matrix(0.976 -0.2176 0.2176 0.976 -22.6183 94.2101)">
				<stop  offset="8.602150e-002" style="stop-color:#F8ECD1"/>
				<stop  offset="1" style="stop-color:#EFD495"/>
			</linearGradient>
			<path class="st62" d="M713.3,125.1c1.2,0.5,3.5-0.5,4.2-2.8C717,121.7,713.8,122.4,713.3,125.1z"/>
		</g>
		<g>
			<linearGradient id="SVGID_18_" gradientUnits="userSpaceOnUse" x1="713.1431" y1="99.191" x2="720.2134" y2="108.5165">
				<stop  offset="8.602150e-002" style="stop-color:#F8ECD1"/>
				<stop  offset="0.2616" style="stop-color:#F7EACB"/>
				<stop  offset="0.4917" style="stop-color:#F5E3BB"/>
				<stop  offset="0.7509" style="stop-color:#F1D8A0"/>
				<stop  offset="0.8384" style="stop-color:#EFD495"/>
			</linearGradient>
			<path class="st63" d="M713.4,113.3c2.3-0.3,4.6-0.8,6.7-1.8c2.3-1.1,5.8-3.2,6.9-5.6c0.3-0.6,0.5-1.3,0.8-2
				c-0.6-1-1.1-1.9-1.5-2.8c0,0-1-0.5-3.1-0.2c-0.2,0-0.6-1.2-1.4-2.7c0,0-10.2-0.7-12,11.6c0,0,1.3,1.3,3.5,3.4
				C713.3,113.3,713.3,113.3,713.4,113.3z"/>
			<linearGradient id="SVGID_19_" gradientUnits="userSpaceOnUse" x1="720.3143" y1="107.0214" x2="721.9904" y2="109.5508">
				<stop  offset="0.2589" style="stop-color:#F5E5C2"/>
				<stop  offset="0.8441" style="stop-color:#F2DDAE"/>
			</linearGradient>
			<path class="st64" d="M724.9,105.4c-0.7-1-1.3-2.1-1.9-3.2c-0.7,0.9-1.5,1.6-2.6,2c-0.4,0.3-0.8,0.7-1.2,1
				c-0.6,0.3-1.2,0.6-1.9,0.8c0.8-0.3,0.1,0-0.1,0.2c-0.7,0.6-1.5,1.3-2.3,1.4c0.4,0.9,3.3,4,3.8,4.8c0.8-0.2,0.6-0.5,1.3-0.9
				c1.9-0.9,4.7-2.5,6.1-4.5C725.7,106.5,725.3,106,724.9,105.4z"/>
			<path class="st57" d="M726.2,101.2C726.2,101.2,726.2,101.2,726.2,101.2c0.2,5.4-6.6,12.9-15.3,9.2c-0.4-0.2-0.8-0.3-1.1-0.5
				c0,0,0,0,0,0c0,0,31.3,30.5,37.5,41.2l1.6-19.6C748.8,131.5,730.5,110.1,726.2,101.2z"/>
			<path class="st65" d="M748.5,136.8c-4.6-5.9-18.9-24.3-21.9-29.5c-0.4,0.8-1,1.5-1.6,2.2c3.5,4.8,17.7,22.9,23.5,29.7
				C748.3,138.4,748.3,137.6,748.5,136.8z"/>
			<path class="st57" d="M747.9,147.6c0.2-2.8,0.2-3.5,0.3-6.3c0,0-13.6-9.9-18.5-16.8c-2.4-3.5-5.1-7.4-6.2-13.9
				c-5,3.3-10.5,1.3-10.5,1.3c0,0,25.8,25.1,34.7,37.5C747.7,148.9,747.8,148.2,747.9,147.6z"/>
			<linearGradient id="SVGID_20_" gradientUnits="userSpaceOnUse" x1="717.1484" y1="101.5028" x2="720.1898" y2="105.8912">
				<stop  offset="8.602150e-002" style="stop-color:#F8ECD1"/>
				<stop  offset="1" style="stop-color:#EFD495"/>
			</linearGradient>
			<path class="st66" d="M723.3,101c0,0-8.2,0.2-8.6,5.8C714.5,109.8,725.1,107.4,723.3,101z"/>
			<linearGradient id="SVGID_21_" gradientUnits="userSpaceOnUse" x1="719.2642" y1="102.8562" x2="721.2073" y2="105.6599">
				<stop  offset="8.602150e-002" style="stop-color:#F8ECD1"/>
				<stop  offset="1" style="stop-color:#EFD495"/>
			</linearGradient>
			<path class="st67" d="M723.3,103c-1.7-0.3-4.7,1.9-6.2,2.6c0.1,0.1,2.6,1.5,2.5,1.7C721.5,106.6,723.1,105.1,723.3,103
				C723.4,103,723.4,103,723.3,103z"/>
			<linearGradient id="SVGID_22_" gradientUnits="userSpaceOnUse" x1="719.8507" y1="105.2332" x2="720.746" y2="106.7999">
				<stop  offset="0" style="stop-color:#F5E5C2"/>
				<stop  offset="0.8441" style="stop-color:#F2DDAE"/>
			</linearGradient>
			<path class="st68" d="M721.9,103.7c-0.5,0.3-1.3-0.4-1.7,0c-0.8,0.6-1.4,1.2-2.2,1.8c-0.2,0.1-0.6,0.1-0.7,0.2
				c0.4,0.6,1.1,1.4,1.6,2.1c1.5-0.5,3-1.4,3.9-2.7C722.2,104.3,721.9,103.7,721.9,103.7z"/>
			<linearGradient id="SVGID_23_" gradientUnits="userSpaceOnUse" x1="718.6428" y1="103.3726" x2="719.8794" y2="105.1569">
				<stop  offset="8.602150e-002" style="stop-color:#F8ECD1"/>
				<stop  offset="1" style="stop-color:#EFD495"/>
			</linearGradient>
			<path class="st69" d="M717.2,105.6c1,0.8,3.6,0.3,4.7-1.8C721.5,103.1,718.3,103,717.2,105.6z"/>
		</g>
	</g>
	<path class="st57" d="M733.2,144.5c0,0,0.8-0.6,0.7-1.5c-0.2-1.3-1-1.4-1-1.4s0.4-0.9,0.2-1.7c-0.5-1.5-2-1.3-2-1.3
		c0.9-0.9,0.2-3.1-1.5-3.3c-3.6-0.4-9.1-0.4-11.3,1.2c-0.5,0.3-1.1,0.3-1.7,0.4c4.6,2.9,10.2,6.6,15.8,10.4
		C733.7,147.4,734.1,145.2,733.2,144.5z"/>
	<path class="st70" d="M752.6,161.4c-0.1-0.7-0.1-1.3-0.2-1.9c-0.5-2.7-0.6-3.5-1.1-6.2c0,0-0.1,0-0.1-0.1l-1.3-9.6
		c0,0-0.6-0.5-1.7-1.3c0-0.3,0-0.6,0-1c0,0,0,0-0.1-0.1l0.2-2.3c0.1,0.1,0.2,0.2,0.2,0.3c-0.1-0.8-0.1-1.6,0-2.4
		c0,0-0.1-0.1-0.1-0.1l0.4-5.1c0,0-5.9-6.9-11.8-14.5c-0.7,3.3,0.5,7-0.7,10c-3.9,10.4-0.7,19-1,22.5c5.8,4.2,14.7,10.8,17.2,13.5
		l-0.3-2C752.4,161.2,752.5,161.3,752.6,161.4z"/>
	<path class="st52" d="M752.1,98.9l-12.8,5.9c0,0,2.4,18,2.4,21.1c0,3.1-1.3,12.5,4,32.7c0.4,1.5,0.4,3.1,0.1,4.6
		c-1.3,5.9-4.7,21.3-5.4,24.4c0,0,20.3,4.6,21.9-1.8c1.6-6.4-1.7-48.4-2.2-59.5C760.2,126.3,754.1,110.5,752.1,98.9z"/>
	<path class="st53" d="M749.6,152.3c-2.5-5.4-2.3-11.1-3.1-16.9c-0.8-5.7-2.3-11.1-4.5-16.4c-0.3-0.8-0.7-1.5-1.1-2.2
		c0.5,4,0.9,7.7,0.9,9c0,3.1-1.3,12.5,4,32.7c0.4,1.5,0.4,3.1,0.1,4.6c-1.3,5.9-4.7,21.3-5.4,24.4c0,0,20.3,4.6,21.9-1.8
		c0.7-2.8,0.5-12.2,0-22.9C756.9,161.4,751.9,157.3,749.6,152.3z"/>
	<path class="st71" d="M752.1,98.9c0,0-3.3,0.9-4.5,2.1c-1.2,1.2-2.9,9.9-2.9,9.9l5.5,2l-3,4.8c0,0,12,21.7,13.2,24.7v-16.6
		C760.4,125.8,752.5,100.9,752.1,98.9z"/>
	<path class="st72" d="M760.8,126.2l-0.8-1.8c0,0-0.4,5.8-0.5,11.4c-0.1,5-0.1,10.5,0,14.4c0.4,18.2,0.4,37.9,0,38.2
		c1.4-0.5,2.5-1.4,2.8-2.6C763.9,179.4,761.2,137.5,760.8,126.2z"/>
	<path class="st52" d="M789.4,184.8c0,0-21.3,7.3-25.2,1.5c-3.9-5.9-3.2-27.1-3.6-38.1c-0.4-11,0.3-22.7,0.3-22.7
		s14.2-22.3,14.7-29.3l15.4,5c0,0-5.3,10.2-2.5,29c0,0-6.7,26.2-6.2,31.8C782.7,167.6,789.4,184.8,789.4,184.8z"/>
	<path class="st53" d="M788.4,130.2c-0.6-4.2-0.8-8-0.8-11.3c-0.7,1.6-1.3-1.2-1.8,0.4c-2,6.2-2.7,16.9-4.1,23.2
		c-1.5,7.1-5.3,12.7-11.6,16.4c-2.4,1.4-5.8,3.2-9.1,3.9c0.2,9.7,0.8,19.8,3.3,23.6c3.9,5.9,25.2-1.5,25.2-1.5s-6.7-17.2-7.2-22.9
		C781.7,156.4,788.4,130.2,788.4,130.2z"/>
	<path class="st73" d="M722.4,141.9c0,0,7.1,5.3,6,7.1c-1.1,1.8-4.9,4.4-8.8,3.3c-3.1-0.9-6.9-10.4-6.8-11.3
		c0.2-1.9,3.8-4.5,4.1-4.6C717.3,136.4,722.4,141.9,722.4,141.9z"/>
	<path class="st74" d="M722.8,142.2c-0.2-0.2-0.4-0.3-0.4-0.3s-5.1-5.5-5.4-5.5c-0.3,0.1-4,2.7-4.1,4.6c-0.1,0.9,3.6,10.5,6.8,11.3
		c1.7,0.5,3.5,0.2,4.9-0.3C721.8,149.6,721.2,145.3,722.8,142.2z"/>
	<path class="st71" d="M775.6,96.2c0,0,5.7,1.4,7,2.3c0,0-3,9.6-3.5,10.4c-0.5,0.8-7.3,2.8-7.3,2.8l3.8,5.6c0,0-13.1,20.6-15.1,25.1
		l0.2-16.8C761.6,122.4,775.1,96.8,775.6,96.2z"/>
	<path class="st35" d="M782.2,178.8c0,0-9.9-7.1-7-16.1C775.3,162.7,789,164.8,782.2,178.8z"/>
	<g>
		<path class="st75" d="M741.4,154.2c0,0,10.2,26,10.7,31.4c0,0,12.7,2.3,26.2-4.9c0,0-9-23-9-30.2
			C769.3,150.5,753.9,155,741.4,154.2z"/>
		<path class="st42" d="M741,155c0,0,10.2,26,10.7,31.4c0,0,12.7,2.3,26.2-4.9c0,0-9-23-9-30.2C768.9,151.3,753.6,155.8,741,155z"/>
		<path class="st76" d="M771.4,162.7c-2.5-0.2-4.9,0.5-7.4,0.6c-0.4,0-5.8,3.9-6.7,4.8c-1.9,2.8,2,3.5,2,3.5
			c-0.1,0.3-0.7,0.8-1.2,1.8c-1,2.3,2.7,2.8,2.7,2.7c0,0-0.8,2.7,3.6,2.1c0,0,0.5,1.5,1.7,1.5c2.6,0.3,10.1-2.4,10.2-2.6
			C775,173.6,773,168,771.4,162.7z"/>
		<path class="st77" d="M773.5,173.4c-1.7,0.1-3.3-0.2-4.9-0.3c2.5,0.3-1.2,0.1-1.4,0.1c-0.7,0-1.7,1.4-2.4,1.3
			c-4-0.4-5.6,0.3-9.2-1.5c-2.9-1.4-7.9-6.7-10.3-9.4c2.8,7.5,6.9,18.7,7.2,22c0,0,11.8,2.2,24.3-4.6c0,0-1.3-3.2-2.8-7.6
			C773.8,173.4,773.6,173.4,773.5,173.4z"/>
		<path class="st42" d="M749.8,155.4c-0.4-1-1.1-3-1.6-4.2c-0.2-0.5,0.1-1.1,0.7-1.2c2.3-0.2,7.5-0.8,10.2-1.5
			c0.5-0.1,1,0.2,1.1,0.7c0.2,1.1,0.6,3,1,4.2c0.2,0.5-0.1,1-0.6,1.1l0,0c-0.4,0.1-0.9-0.2-1-0.6l-0.7-2.6c-0.1-0.4-0.5-0.7-1-0.6
			c-1.4,0.2-4.5,0.7-6.2,0.8c-0.5,0-0.9,0.5-0.8,1.1l0.6,2.4c0.1,0.5-0.2,0.9-0.7,1l0,0C750.4,156,749.9,155.8,749.8,155.4z"/>
	</g>
	<g>
		<ellipse class="st78" cx="764.4" cy="145.5" rx="1.4" ry="1.8"/>
		<ellipse class="st79" cx="764.4" cy="145.5" rx="0.9" ry="1.2"/>
	</g>
	<path class="st80" d="M775.3,70.7c0.4-0.6,1-1.5,1.7-1.7c0.8-0.2,1.5-0.1,1.7,0.5c0.3,0.9,0.3,2.2-0.4,4c-1.7,4.2-3.9,2.5-4.8,1.9
		C773.6,75.3,774.1,72.5,775.3,70.7z"/>
	<path class="st81" d="M778.3,70.7c0,0-1.4-1.5-2-0.5c-0.6,1-2.4,4.1-1.5,4.6c0.9,0.6,2,0.6,1.6-1.8
		C776.1,70.5,777.2,70.2,778.3,70.7z"/>
	<g>
		<path class="st44" d="M783.2,166.2c0,0-8.2-3.2-11.6-2.7c-3.4,0.5-5.7-0.3-6.9,0.7c-1.8,1.3-7,4.5-6.7,4.9
			c0.3,0.4,0.9,3.5,7.6-1.3c1.6-1.2,5.4-0.5,5.4-0.5s-2-0.3-3.9,0.5c-1.9,0.9-8.3,6-8.3,6.4c0,0.4,1.1,2.8,7.9-2.4
			c0,0,2.2-1.5,4.8-1.5c0,0-4.6,1.9-4.8,2c-0.2,0.2-4.7,3.4-5,4c-0.3,0.5,1.6,2.8,7.8-1.9c0,0,2.4-1.1,3.7-1.3c0,0-3.1,1.2-3.7,1.6
			c-0.6,0.4-3.6,2.3-3.6,2.5c0,0.8,1.3,2,5.4-0.2c4-2.2,4.4-1.9,7.2-2c2.8,0,3.1-0.7,4.8,0.4C783.2,175.4,787.4,171.4,783.2,166.2z"
			/>
		<path class="st82" d="M761.6,176.4c0.2-0.4,3.3-2.7,4.5-3.6c0.2,1.1,0.8,2.2,1.9,2.7C763,178.8,761.4,176.8,761.6,176.4z"/>
		<path class="st82" d="M769.3,174.8c0.1,1,0.5,1.9,1.2,2.5c-3.5,1.7-4.7,0.6-4.7-0.1C765.9,177.1,768.5,175.4,769.3,174.8z"/>
		<path class="st82" d="M764.2,169.8c0,1.1,0.5,2.3,1.5,2.9c-5.9,4.2-6.9,2-6.9,1.6C758.8,174,761.7,171.6,764.2,169.8z"/>
		<path class="st82" d="M762.9,165.5c0,1.2,0.5,2.5,1.6,3.1c-5.7,3.8-6.3,0.9-6.5,0.5C757.8,168.8,760.8,167.1,762.9,165.5z"/>
		<path class="st83" d="M760.8,172.8c0,0,1.1,0.5,0.9,1.5c0,0.2-1.9,1.2-2.4-0.1C759.2,173.9,760.8,172.8,760.8,172.8z"/>
		<path class="st83" d="M763.5,175.1c0,0,1,0.5,0.8,1.5c0,0.1-2,1.2-2.3-0.1C762,176.2,763.5,175.1,763.5,175.1z"/>
		<path class="st83" d="M767.6,176.1c0,0,0.9,0.4,0.8,1.4c0,0.1-2,0.9-2.2-0.2C766.2,177,767.6,176.1,767.6,176.1z"/>
		<path class="st83" d="M760.2,167.7c0,0,1.5,0.1,1.2,1.9c0,0.2-2.2,1.1-2.9-0.3C758.3,169,760.2,167.7,760.2,167.7z"/>
		<path class="st74" d="M782.6,166.7c0,0-6.2-2.2-6.8-2c2.5,1.9,4.1,6.7,3.2,9.6c1.9-0.1,2.2-0.5,3.5,0.3
			C782.6,174.7,786.2,171.2,782.6,166.7z"/>
	</g>
	<path class="st52" d="M775.3,162.7c0,0,8.9,4.8,7,16.1c0,0,34.5-20,33.2-27c-1.3-6.9-15.1-44.8-24.5-50.6c0,0-9.3,3.3-3.4,28.3
		c0,0,10.3,18.7,11.2,20.8C799.1,151.1,775.3,162.7,775.3,162.7z"/>
	<path class="st53" d="M792.6,130.8c-1.9-4.4-3.3-9-5.1-13.3c-0.1-0.1-0.1-0.2-0.2-0.3c-0.6-1-1.2-1.9-1.7-2.9
		c-0.1,3.9,0.5,8.8,2,15.3c0,0,10.3,18.7,11.2,20.8c0.4,0.8-23.5,12.4-23.5,12.4s2.8,1.5,4.9,4.8c3.1-3.5,15.4-13.3,22.7-17
		C797.4,144.6,795.9,138.3,792.6,130.8z"/>
	<g>
		<path class="st44" d="M720.5,143.5c0.6-0.4,1.3-0.7,2-0.8c1.2-0.2,2.9-0.4,3.3-0.7c0.5-0.4,6.4,1,6.5-1.8c0-0.4-0.3-0.7-0.6-0.8
			c-0.9-0.3-3.2-0.9-7.6-0.5c-6.3,0.5-5.5,0.8-5.9,1c-0.4,0.2-4,2.9-3.7,3.5C714.7,143.9,714.9,147.4,720.5,143.5z"/>
		<path class="st84" d="M727.7,138.8c-1,0-2.3,0-3.8,0.1c-6.3,0.5-5.5,0.8-5.9,1c-0.4,0.2-3.1,2.2-3.6,3.1c0.1,0.2,0.3,0.8,0.4,1
			c0.6-0.9,3.2-3,3.6-3.1c0.4-0.2-0.5-1,5.7-1.5c1.5-0.1,2.7-0.1,3.7-0.1C727.8,139.1,727.7,138.9,727.7,138.8z"/>
		<path class="st74" d="M718.8,139.5c-0.6,0.2-0.5,0.3-0.7,0.4c-0.4,0.2-4,2.9-3.7,3.5c0.3,0.6,0.5,4.1,6.1,0.2
			c0.1,0,0.1-0.1,0.2-0.1C719.7,142.3,719,140.9,718.8,139.5z"/>
		<path class="st83" d="M729.7,139.3c0,0-1,0.7-0.2,2c0.1,0.1,2.2,0.3,2.3-1.1C731.8,139.5,729.7,139.3,729.7,139.3z"/>
	</g>
	<g>
		<path class="st44" d="M723,145.5c0,0,2.7-0.9,3.4-1c0.6-0.1,7,0.4,6.5-2.1c-0.1-0.2-0.2-0.5-0.5-0.5c-1-0.3-4.1-1.1-8.1-0.3
			c-4.9,1-7.5,2.4-7.6,3.4C716.7,146,716.7,149.5,723,145.5z"/>
		<path class="st84" d="M728.2,141.3c-1.2,0-2.5,0-3.9,0.3c-4.9,1-7.5,2.4-7.6,3.4c0,0.1,0,0.3,0,0.5c0.1,0.1,0.1,0.2,0.2,0.3
			c0-0.1,0-0.2,0-0.3c0-1,2.7-2.4,7.6-3.4c1.4-0.3,2.8-0.4,3.9-0.3C728.3,141.6,728.3,141.5,728.2,141.3z"/>
		<path class="st74" d="M720.6,142.6c-2.5,0.8-3.8,1.8-3.9,2.4c0,0.9,0,4.2,5.6,0.9C721.5,145,720.9,143.8,720.6,142.6z"/>
		<path class="st83" d="M730.9,141.9c-0.2,0-0.3,0-0.4,0.1c-0.2,0.3-0.5,0.8-0.1,1.6c0.1,0.1,2.1,0.3,2.1-1
			C732.5,142.2,731.4,142,730.9,141.9z"/>
	</g>
	<g>
		<path class="st44" d="M724.7,148.3c0.3-0.2,0.6-0.3,0.9-0.4c0.9-0.2,2.7-0.6,3-0.7c0.4-0.1,3.5,0.1,4.1-1.6
			c0.1-0.4-0.1-0.8-0.5-0.9c-0.8-0.2-2.7-0.6-6.2-0.1c0,0-3.1,0.7-3.8,1.1c-0.7,0.4-3.4,1.6-3.2,2.3
			C719.1,148.7,719.3,151.6,724.7,148.3z"/>
		<path class="st74" d="M722.1,145.8c-0.7,0.4-3.4,1.6-3.2,2.3c0.2,0.6,0.4,3.2,4.8,0.8C723,148,722.4,146.9,722.1,145.8z"/>
		<path class="st84" d="M729.3,144.4c-0.9,0-2,0-3.3,0.2c0,0-3.1,0.7-3.8,1.1c-0.7,0.4-3.4,1.6-3.2,2.3c0,0.1,0,0.1,0,0.2
			c0.1,0.1,0.1,0.2,0.2,0.4c0,0,0,0,0-0.1c-0.2-0.7,2.4-1.9,3.2-2.3c0.7-0.4,3.8-1.1,3.8-1.1c1.3-0.2,2.4-0.2,3.3-0.2
			C729.4,144.7,729.3,144.6,729.3,144.4z"/>
		<path class="st83" d="M730.4,144.9c0,0-0.5,0.9,0.1,1.6c0.1,0.1,2.2-0.3,1.7-1.4C732.1,144.9,730.4,144.9,730.4,144.9z"/>
	</g>
	<g>
		<path class="st44" d="M717.8,140.5c0.5-0.4,1.1-0.9,1.7-1c1.1-0.3,3.2-0.8,3.9-1c0.8-0.3,7.6,1.3,7.1-1.6
			c-0.1-0.4-0.4-0.8-0.8-0.9c-1.6-0.4-6.4-1.2-12.1,0.1c-0.4,0.1-0.8,0.3-1.2,0.6c-1.2,1-3.9,3.3-3.6,4.4c0.4,1.4,1.1,2.7,2.1,1.8
			C715.7,142.2,716.7,141.5,717.8,140.5z"/>
		<path class="st84" d="M726.5,135.5c-2.3-0.2-5.4-0.2-8.9,0.6c-0.4,0.1-0.8,0.3-1.2,0.6c-1,0.8-3.3,2.8-3.6,3.9
			c0.1,0.1,0.3,0.3,0.4,0.5c0.5-1.2,2.5-3,3.5-3.8c0.3-0.3,0.7-0.5,1.2-0.6c3.3-0.8,6.3-0.8,8.5-0.6
			C726.5,135.9,726.5,135.7,726.5,135.5z"/>
		<path class="st74" d="M717.3,136.2c-0.3,0.1-0.6,0.3-0.8,0.5c-1.2,1-3.9,3.3-3.6,4.4c0.4,1.4,1.1,2.7,2.1,1.8
			c0.8-0.7,2.1-1.7,3-2.5c0.2-0.2,0.5-0.4,0.8-0.5C718,138.8,717.5,137.5,717.3,136.2z"/>
		<path class="st83" d="M728.1,135.9c0,0-1.4,0.6-0.5,2.2c0.1,0.2,2.7,0.3,2.7-1.2C730.2,136.2,728.1,135.9,728.1,135.9z"/>
	</g>
	<path class="st47" d="M760.7,60.1c3.5-0.3,8.1-0.6,11.4,0.5c1.6,0.5,2.8,1.2,3.9,2c0.8-3.6,1-7.8-1.7-10.1c-2.3-2-5.4-3.1-8.5-3.6
		c-5.5-0.8-12.2,2.1-14.7,7.2c-0.8,1.6-1.6,3.4-2,5.2C752.9,61.3,756.7,60.4,760.7,60.1z"/>
	<path class="st85" d="M772.5,57.9c0.9,0.6,1.1,1.7,1.2,2.8c3.8,0.4,7.7,1.3,11.1,3c0.5-5.9,0-11.9-2.8-15.4
		c-5.8-7.2-30.8-3-29.1,6.9c0,0,2,1.4,4.9,2.7C760.3,58.9,769.2,55.6,772.5,57.9z"/>
	<g>
		<path class="st86" d="M748.6,49.4c0,0-7.3-0.3-6.6,4.7c0.7,5.7,18.6,2.8,27.2,2.1c8.6-0.7,19.7,10,21.8,1.3c0,0,0-2.2-3.1-3.2
			c0,0,4.7-19.5-15-22.5C754.8,29,751.7,42.8,748.6,49.4z"/>
		<path class="st87" d="M747.6,50.9c2.4,2.7,7.1,2.9,9.6,2.9c3.8-0.1,7.6-0.6,11.4-0.6c2.1,0,4.4-0.4,6.5-0.3
			c2.8-13.5-5.6-19.5-5.6-19.7c-14.4-0.8-17.2,11-19.9,16.9c0,0-1.1,0-2.5,0.2C747.3,50.5,747.4,50.7,747.6,50.9z"/>
		<path class="st88" d="M788.4,54.6c-2,1.3-4.8,1.4-7.6,0.4c-6.2-2.3-12.9-1.3-19.3-0.9c-3.1,0.2-6.5,0.6-9.5,0.1
			c-2.6-0.4-4-1.6-6-3.2c-0.4-0.3-0.6-0.6-0.9-1c-1.7,0.6-3.3,1.7-3,4.2c0.7,5.7,18.6,2.8,27.2,2.1c8.6-0.7,19.7,10,21.8,1.3
			C791,57.6,791,55.6,788.4,54.6z"/>
		<path class="st86" d="M788.4,54.6c-2,1.3-4.8,1.4-7.6,0.4c-6.2-2.3-12.9-1.3-19.3-0.9c-3.1,0.2-6.5,0.6-9.5,0.1
			c-2.6-0.4-4-1.6-6-3.2c-0.4-0.3-0.6-0.6-0.9-1c-1.7,0.6-3.3,1.7-3,4.2c0.7,5.7,18.6,2.8,27.2,2.1c8.6-0.7,19.7,10,21.8,1.3
			C791,57.6,791,55.6,788.4,54.6z"/>
		<path class="st89" d="M789.1,55.4c-2,1.3-4.9,1.4-7.8,0.4c-6.3-2.3-13.2-1.3-19.7-1c-3.1,0.2-6.6,0.6-9.7,0
			c-2.7-0.5-4.1-1.6-6.1-3.2c-0.4-0.3-0.7-0.6-0.9-1c-1.1,0.4-2.2,1-2.8,2.1c0.4-1.5,1.6-2.3,2.9-2.7c0.2,0.3,0.5,0.7,0.9,1
			c2,1.6,3.4,2.7,6,3.2c3.1,0.5,6.5,0.1,9.5-0.1c6.4-0.3,13.1-1.3,19.3,0.9c2.8,1,5.6,0.9,7.6-0.4c1.1,0.4,1.8,1.1,2.2,1.6
			C790.2,55.9,789.7,55.6,789.1,55.4z"/>
	</g>
	<g>
		<g>
			<defs>
				<path id="SVGID_24_" d="M760.2,69.2c0,0-0.1-3.9,3.4-3.8c3.5,0.1,2.8,3.9,2.1,4.8C764.9,71,760.5,69.9,760.2,69.2z"/>
			</defs>
			<clipPath id="SVGID_25_">
				<use xlink:href="#SVGID_24_"  style="overflow:visible;"/>
			</clipPath>
			<path class="st90" d="M760.2,69.2c0,0-0.1-3.9,3.4-3.8c3.5,0.1,2.8,3.9,2.1,4.8C764.9,71,760.5,69.9,760.2,69.2z"/>
			<linearGradient id="SVGID_26_" gradientUnits="userSpaceOnUse" x1="763.3826" y1="70.4713" x2="763.3826" y2="66.2201">
				<stop  offset="5.913980e-002" style="stop-color:#733F27"/>
				<stop  offset="1" style="stop-color:#4D1E13"/>
			</linearGradient>
			<ellipse class="st91" cx="763.4" cy="68.3" rx="2.2" ry="2.4"/>
			<path class="st92" d="M759.9,67.4c0,0,0.9-2.5,3.2-2.5c3.9,0,3.3,3.4,3.3,3.4s-0.8-1.8-2.9-2C761.5,66.3,760.2,67.4,759.9,67.4z"
				/>
		</g>
		<circle class="st12" cx="764.4" cy="67.9" r="0.4"/>
	</g>
	<g>
		<g>
			<defs>
				<path id="SVGID_27_" d="M750.8,69.1c-0.4-0.1-0.7-0.5-0.7-0.9c-0.1-1.1,0-3,2-3.2c2.6-0.3,3.9,2.4,2.5,4.2
					C754,69.8,751.8,69.5,750.8,69.1z"/>
			</defs>
			<use xlink:href="#SVGID_27_"  style="overflow:visible;fill:#733F27;"/>
			<clipPath id="SVGID_28_">
				<use xlink:href="#SVGID_27_"  style="overflow:visible;"/>
			</clipPath>
			<path class="st93" d="M750.8,69.1c-0.4-0.1-0.7-0.5-0.7-0.9c-0.1-1.1,0-3,2-3.2c2.6-0.3,3.9,2.4,2.5,4.2
				C754,69.8,751.8,69.5,750.8,69.1z"/>
			<linearGradient id="SVGID_29_" gradientUnits="userSpaceOnUse" x1="752.7957" y1="70.0143" x2="752.7957" y2="65.6705">
				<stop  offset="5.913980e-002" style="stop-color:#733F27"/>
				<stop  offset="1" style="stop-color:#4D1E13"/>
			</linearGradient>
			<ellipse class="st94" cx="752.8" cy="67.7" rx="1.9" ry="2"/>
			<path class="st95" d="M752.3,66c1.6-0.2,2.4,0.4,2.8,1.4c-0.1-1.4-1.2-2.6-3.1-2.4c-1.4,0.2-1.8,1.3-1.9,2.2
				C750.3,66.5,751.1,66.1,752.3,66z"/>
		</g>
		<circle class="st12" cx="753.7" cy="67.2" r="0.4"/>
	</g>
	<g>
		<path class="st44" d="M757.7,64.2c0,0-1.9,2.9-4,5.6c-1.9,2.5-4.6,5.1-4.4,5.7c0.6,1.2,7.4,2.5,6.7-1.4
			C755.2,69.5,758.7,70.6,757.7,64.2z"/>
		<linearGradient id="SVGID_30_" gradientUnits="userSpaceOnUse" x1="752.1288" y1="68.983" x2="754.2087" y2="70.5829">
			<stop  offset="0.1183" style="stop-color:#FFD7BB"/>
			<stop  offset="0.914" style="stop-color:#FFC39A"/>
		</linearGradient>
		<path class="st96" d="M753.4,69.8c-1.9,2.5-4.2,5-3.9,5.5c0.1,0.1,1.2,0,1.1-0.4c-0.1-0.6,1.8-2.7,3.7-5.2c0.8-1,2.8-4.3,3-4.9
			c0,0,0-0.1,0-0.1C756.8,65.6,755,67.7,753.4,69.8z"/>
		<path class="st97" d="M755,74c-0.6-0.1-1-0.7-0.8-1.2c0.6-1.5,3.9-7.1,4.1-6.8c0,0,0,0,0,0.1c0.3,0.7-0.9,4.2-1.5,6.9
			c-0.2,1,1.9,2.7-1.1,3.5c1.3-0.5,1.2-1.6,0.8-1.9C756.1,74.2,755.6,74,755,74z"/>
		<path class="st98" d="M751,75.7C751,75.7,751,75.7,751,75.7c0.7-0.1,1.4-0.2,2,0.1c0.7,0.3,1.4,0.6,1.4,0.6
			c-2.2,0.3-3.7-0.4-4.1-0.7C750.5,75.7,750.8,75.7,751,75.7z"/>
	</g>
</g>
<g>
	<path class="st99" d="M707.6,182.1c0,0-5.1-5.6-1.2-12.4C706.3,169.7,717.4,170.4,707.6,182.1z"/>
	<path class="st36" d="M656.8,307.4c-2.5,0.2-4.9-0.1-6.8-1.2c-1.3,2.4-2.9,5.2-4.4,6.7c-3.2,3-13.7,13.2-11.1,15.1
		c0.8,0.6,16.1-5.2,16.9-6.2c0.8-1,6-8.1,6-8.1v3.1h4.7v-9.6l-0.7-0.4C659.9,307.1,658.3,307.3,656.8,307.4z"/>
	<path class="st36" d="M690.1,307.4c2.5,0.2,4.9-0.1,6.8-1.2c1.3,2.4,2.9,5.2,4.4,6.7c3.2,3,13.7,13.2,11.1,15.1
		c-0.8,0.6-16.1-5.2-16.9-6.2c-0.8-1-6-8.1-6-8.1v3.1h-4.7v-9.6l0.7-0.4C687,307.1,688.7,307.3,690.1,307.4z"/>
	<path class="st100" d="M673.1,106.2l-12.3-2.9c0,0-21,6.9-21,7.1c0,0,11.3,14.2,8.7,27.6l6.9,41.7l34.1-0.6l5.8-42.4
		c0,0-0.7-18.2,8-27.3c0,0-4.3-1.6-6.4-2.2c-2.1-0.7-11.7-3.4-11.7-3.4S674,106.4,673.1,106.2z"/>
	<path class="st101" d="M656,112.8c-0.8,0-1.7,0-2.5,0c0.1,0.1,0.1,0.1,0.2,0.2C654.5,113,655.2,112.9,656,112.8z"/>
	<path class="st102" d="M690.9,169.4c-0.7-2.8-1.5-5-1.5-5c-6.4-11.4-0.8-39-0.8-39c-0.7,0.1-1.4,0.3-2.1,0.4
		c0.2-1.3,0.4-2.9,0.7-4.6l0.5,0.1c0.5,0.1,0.9-0.2,1.1-0.6l1.3-3.9c0.2-0.5-0.2-1.1-0.7-1.2l-0.9-0.2c1.2-5.3,2.5-10,2.5-10
		l-5.3-1.3c0,2.4-0.8,6.3-1.6,10.3l-0.9-0.2c-0.5-0.1-1,0.2-1.1,0.7l-0.7,3.9c-0.1,0.5,0.2,1,0.7,1.1l0.7,0.2
		c-0.7,2.8-1.3,5.1-1.6,6.2c-6.7,0.5-13.6,0.1-18.8-0.4c-0.3-1.1-0.9-3.4-1.6-6.1l0.7-0.2c0.5-0.1,0.8-0.6,0.7-1.1l-0.7-3.9
		c-0.1-0.5-0.6-0.8-1.1-0.7l-0.9,0.2c-0.8-3.7-1.5-7.3-1.6-9.7c-1.4,0.5-3.3,0.8-5.1,1.5c0.5,1.7,1.5,5.5,2.4,9.2l-0.9,0.2
		c-0.5,0.1-0.9,0.7-0.7,1.2l1.3,3.9c0.1,0.5,0.6,0.7,1.1,0.6l0.5-0.1c0.3,1.6,0.6,3.1,0.7,4.4c-1.7-0.2-2.7-0.4-2.7-0.4
		s3.8,26.4-1.4,38.7l2.6,16l34.1-0.6L690.9,169.4z"/>
	<path class="st103" d="M695.5,132.7c-5.5,4.5-11.3,8.7-17.8,11.8c-6.6,3.1-16.2,6-21.8-0.6c-2.5-2.9-4.6-6.2-6.9-9.2
		c0,1.1-0.1,2.3-0.4,3.4l6.9,41.7l34.1-0.6l5.8-42.4C695.4,136.7,695.4,135.1,695.5,132.7z"/>
	<linearGradient id="SVGID_31_" gradientUnits="userSpaceOnUse" x1="671.7076" y1="311.5871" x2="665.7405" y2="120.6405">
		<stop  offset="5.913980e-002" style="stop-color:#317F93"/>
		<stop  offset="1" style="stop-color:#1A7187"/>
	</linearGradient>
	<path class="st104" d="M694.3,246.2c0.3-4.1,0.5-31.1,0.7-39.6c0.2-8.5-1.2-28.1-1.7-32.5c-0.5-4.4-2.5-9.6-2.5-9.6
		c-6.4-11.4-0.8-39-0.8-39c-14.3,2.9-34.3-0.5-34.3-0.5s4.2,28.9-2.2,40.3c0,0-2,5.2-2.5,9.6c-0.5,4.4-2,24.1-1.7,32.5
		c0.2,8.5,0.6,33.3,0.7,39.6c0.2,5.1-6.6,56.7-7.8,59.2c0,0,8,7.4,24,1.4c0,0,0.7-33.2-0.2-52.5c-0.4-9.5,0.3-16.1,2.3-25.5
		l3.9-25.1l3.7,24.3c2,9.3,2.7,15.9,2.2,25.4c-0.9,19.4-1.6,53.4-1.6,53.4c16,6,24-1.4,24-1.4C699.5,303.7,693.6,255.4,694.3,246.2z
		"/>
	<linearGradient id="SVGID_32_" gradientUnits="userSpaceOnUse" x1="697.7759" y1="1145.7761" x2="662.9985" y2="32.8951">
		<stop  offset="5.913980e-002" style="stop-color:#317F93"/>
		<stop  offset="1" style="stop-color:#1A7187"/>
	</linearGradient>
	<path class="st105" d="M694.3,246.2c0.3-4.1,0.5-31.1,0.7-39.6c0.2-8.5-1.2-28.1-1.7-32.5c-0.3-2.3-0.9-4.9-1.5-6.8l0,0l0,0
		c-0.5-1.7-1-2.9-1-2.9c-0.2-0.3-0.4-0.7-0.5-1.1c0-0.1-0.1-0.2-0.1-0.3c-0.2-0.4-0.3-0.7-0.4-1.1c0-0.1-0.1-0.3-0.1-0.4
		c-0.1-0.3-0.2-0.5-0.3-0.8c-0.1-0.2-0.1-0.4-0.2-0.6c-0.1-0.3-0.2-0.7-0.3-1c-0.1-0.3-0.1-0.5-0.2-0.8c0-0.1-0.1-0.3-0.1-0.4
		c-0.1-0.3-0.1-0.5-0.2-0.8h0c-1-5.9-0.8-13.1-0.2-19.1c-1.1,1.9-2.5,3.7-4.1,5.1c-4.4,3.9-10.4,8.7-16.4,9.3
		c-4.6,0.4-8-2.7-10.7-5.6c-0.1,3.6-0.4,7.3-1,10.6c-0.1,0.3-0.1,0.6-0.2,0.8c0,0.1,0,0.2-0.1,0.3c-0.1,0.3-0.1,0.6-0.2,0.8
		c0,0.1-0.1,0.2-0.1,0.3c-0.1,0.3-0.1,0.5-0.2,0.8c0,0.1-0.1,0.2-0.1,0.3c-0.1,0.2-0.1,0.5-0.2,0.7c0,0.1-0.1,0.2-0.1,0.4
		c-0.1,0.2-0.1,0.4-0.2,0.6c-0.1,0.1-0.1,0.3-0.2,0.4c-0.1,0.2-0.1,0.4-0.2,0.5c-0.1,0.2-0.2,0.4-0.2,0.5c-0.1,0.1-0.1,0.3-0.2,0.4
		c-0.1,0.3-0.3,0.6-0.4,0.8c0,0,0,0.1-0.1,0.1c0,0,0,0,0,0c-0.3,0.8-2,5.5-2.4,9.5c-0.5,4.4-2,24.1-1.7,32.5
		c0.2,8.5,0.6,33.3,0.7,39.6c0.2,5.1-6.6,56.7-7.8,59.2c0,0,8,7.4,24,1.4c0,0,0.7-33.2-0.2-52.5c-0.4-9.5,0.3-16.1,2.3-25.5
		l3.9-25.1l3.7,24.3c2,9.3,2.7,15.9,2.2,25.4c-0.9,19.4-1.6,53.4-1.6,53.4c16,6,24-1.4,24-1.4C699.5,303.7,693.6,255.4,694.3,246.2z
		"/>
	<linearGradient id="SVGID_33_" gradientUnits="userSpaceOnUse" x1="675.3897" y1="310.7241" x2="669.4465" y2="120.5412">
		<stop  offset="5.913980e-002" style="stop-color:#317F93"/>
		<stop  offset="1" style="stop-color:#1A7187"/>
	</linearGradient>
	<path class="st106" d="M693.3,174.1c-0.5-4.4-2.5-9.6-2.5-9.6c-2.5-4.4-3.2-11.3-3.1-18.1c-0.8,0.1-1.5,0.2-2.3,0.3
		c-5.8,0.7-10.6,5-12,10.7c-0.2,0.8-1.6,13.3-8.7,11.2c-4.2-1.2-7.9-2.8-9.9-6.4c-0.4,1.2-0.9,2.3-1.4,3.2c0,0-2,5.2-2.5,9.6
		c-0.5,4.4-2,24.1-1.7,32.5c0.1,2.8,0.2,7.4,0.3,12.5c6.3,2.6,13,4.6,19.6,4.1l3.1-19.6l2.8,18.4c0.5-0.2,1.2-0.3,1.9-0.5
		c4.3-1.1,5.6-1.4,6.8-8.3c0.7-3.8,1.6-8.4,2.5-12.4c0.4-1.9,0.8-8.3,1.9-10.9c0,0,3.5,1,6.2-1.2
		C694.1,182.8,693.6,176.4,693.3,174.1z"/>
	<path class="st73" d="M680,92.1c-4.1,2.1-8.9,1.2-13.4-0.1c-0.3,3.3-1.7,9.9-4.2,11.6c0,0,2.5,3.4,11.8,3.3c9.3-0.1,10.2-3,10.2-3
		S680.1,100.3,680,92.1z"/>
	<g>
		<g>
			<path class="st44" d="M659.2,72.1c0,0-4.3-4-6.1-1.7s-1,10.4,2,10.5c3,0.1,4.2,1.8,4.2,1.8V72.1z"/>
			<path class="st80" d="M657.1,73.1c-0.5-0.8-1.1-2-2-2.2c-1-0.2-1.7-0.2-2,0.7c-0.4,1.1-0.3,2.9,0.5,5.2c2,5.5,4.6,3.3,5.6,2.5
				C659,79.1,658.5,75.4,657.1,73.1z"/>
			<path class="st81" d="M653.6,73.1c0,0,1.6-2.1,2.3-0.7c0.7,1.3,2.8,5.5,1.8,6.3c-1,0.8-2.3,0.8-1.9-2.5
				C656.1,72.9,654.9,72.4,653.6,73.1z"/>
		</g>
		<g>
			<path class="st44" d="M685.6,72.1c0,0,4.3-4,6.1-1.7c1.9,2.3,1,10.4-2,10.5c-3,0.1-4.2,1.8-4.2,1.8V72.1z"/>
			<path class="st80" d="M687.7,73.1c0.5-0.8,1.1-2,2-2.2c1-0.2,1.7-0.2,2,0.7c0.4,1.1,0.3,2.9-0.5,5.2c-2,5.5-4.6,3.3-5.6,2.5
				C685.8,79.1,686.3,75.4,687.7,73.1z"/>
			<path class="st81" d="M691.3,73.1c0,0-1.6-2.1-2.3-0.7c-0.7,1.3-2.8,5.5-1.8,6.3c1,0.8,2.3,0.8,1.9-2.5
				C688.7,72.9,690,72.4,691.3,73.1z"/>
		</g>
	</g>
	<path class="st44" d="M674.6,55.2c-1.2,0.1-2.4,0-3.6-0.2c-4-0.5-13.1-0.4-14,11.5c-1.2,15.4,7.6,31.2,15.8,30.3
		c0,0,15.8-0.2,15.1-30.1C687.9,66.8,687.5,54.5,674.6,55.2z"/>
	<g>
		<path class="st107" d="M654.1,105.5c0,0,4.1,14.8,4.6,21.2h5.4c0,0-4.7-16.8-4.8-22.9L654.1,105.5z"/>
		<g>
			<path class="st86" d="M655,116.6l1.3,3.9c0.1,0.5,0.6,0.7,1.1,0.6l5.6-1.3c0.5-0.1,0.8-0.6,0.7-1.1l-0.7-3.9
				c-0.1-0.5-0.6-0.8-1.1-0.7l-6.1,1.3C655.1,115.5,654.8,116.1,655,116.6z"/>
			<path class="st108" d="M656.9,117.5l0.4,1.3c0.2,0.5,0.7,0.8,1.2,0.7l2.3-0.5c0.5-0.1,0.9-0.7,0.8-1.2l-0.2-1.2
				c-0.1-0.6-0.7-0.9-1.2-0.8l-2.5,0.5C657.1,116.3,656.8,116.9,656.9,117.5z"/>
		</g>
	</g>
	<g>
		<path class="st107" d="M692.4,105.8c0,0-4.1,14.9-4.5,21.3h-5.4c0,0,4.7-16.7,4.8-22.8L692.4,105.8z"/>
		<g>
			<path class="st86" d="M691.5,116.9l-1.3,3.9c-0.1,0.5-0.6,0.7-1.1,0.6l-5.6-1.3c-0.5-0.1-0.8-0.6-0.7-1.1l0.7-3.9
				c0.1-0.5,0.6-0.8,1.1-0.7l6.1,1.3C691.4,115.8,691.7,116.4,691.5,116.9z"/>
			<path class="st108" d="M689.6,117.8l-0.4,1.3c-0.2,0.5-0.7,0.8-1.2,0.7l-2.3-0.5c-0.5-0.1-0.9-0.7-0.8-1.2l0.2-1.2
				c0.1-0.6,0.7-0.9,1.2-0.8l2.5,0.5C689.4,116.6,689.8,117.3,689.6,117.8z"/>
		</g>
	</g>
	<path class="st109" d="M676.5,63.6c-0.6,0.1-1,0.5-1.1,1.1c-0.1,0.9-0.1,2.4,0.6,2.7c1.1,0.4,3.9-1.9,8.6-0.5c0,0,1.3-2-3.6-2.9
		C678.4,63.7,677.1,63.5,676.5,63.6z"/>
	<path class="st109" d="M668.7,63.5c0.6,0,1.1,0.5,1.1,1.1c0.1,0.9,0.2,2.4-0.5,2.8c-1,0.5-3.9-1.7-8.6-0.1c0,0-1.4-1.9,3.5-3
		C666.9,63.6,668.1,63.4,668.7,63.5z"/>
	<path class="st109" d="M686.1,71.4c0,0,0.3,12.2-4.4,16.4c0,0-1.1-5.4-2.9-5.5c-1.2-0.1-3.4,0.5-6.2,0.5c-2.8,0-5-0.6-6.2-0.5
		c-1.8,0.1-2.9,5.5-2.9,5.5c-4.7-4.2-4.3-14.3-4.3-14.3s-2-2.5-1.8-1.5c0.1,1,0.2,0.5,0.8,10.9c0.5,10.2,8.3,18.6,14.4,18.7
		c6.1-0.2,13.9-8.5,14.4-18.7c0.5-10.3,0.6-10.7,0.8-11.8C688,70.2,686.1,71.4,686.1,71.4z"/>
	<path class="st110" d="M672.6,97.1c-6.6,0-13-10.3-13-10.3c1.8,7.5,8,13.2,13,13.3c5-0.1,11.2-5.8,13-13.3
		C685.6,86.8,678.5,97.1,672.6,97.1z"/>
	<g>
		<defs>
			<path id="SVGID_34_" d="M666.2,83.7c0,0,8.4,2.5,12.5-0.5c0,0-1.2,7.2-6.1,7S666.4,85.6,666.2,83.7z"/>
		</defs>
		<clipPath id="SVGID_35_">
			<use xlink:href="#SVGID_34_"  style="overflow:visible;"/>
		</clipPath>
		<path class="st111" d="M666.2,83.7c0,0,8.4,2.5,12.5-0.5c0,0-1.2,7.2-6.1,7S666.4,85.6,666.2,83.7z"/>
		<path class="st112" d="M670.9,87.5c-1.2,0.1-1.9,0.5-2.7,0.8c1,1,2.4,1.8,4.4,1.9c1.7,0.1,2.9-0.7,3.8-1.8
			C675.9,87.9,673.3,87.3,670.9,87.5z"/>
		<path class="st113" d="M664.5,82.7c0,0,10.6,3.2,15.8-0.6c0,0-1.7,5.9-7.7,5.9C666.5,87.9,665.1,83.7,664.5,82.7z"/>
	</g>
	<path class="st97" d="M675.4,80.5c-0.4,0-0.8,0-1.1,0.1c-3.9,3.2-1.8-9.9-2.2-11.4c-0.4,0-0.9,0.3-0.9,0.3s-2.8,10.1-2.6,10.9
		c0.2,0.8,2.6,1.2,2.8,1.7c0.1,0.2,0.4,0.4,0.7,0.3c0.3,0,0.6-0.1,0.7-0.3c0.2-0.4,2.4-0.8,2.8-1.5
		C675.6,80.5,675.5,80.5,675.4,80.5z"/>
	<path class="st97" d="M672.3,69.2C672.3,69.2,672.4,69.2,672.3,69.2C672.4,69.2,672.3,69.2,672.3,69.2z"/>
	<path class="st97" d="M672.3,69.1C672.2,69.1,672.2,69.1,672.3,69.1c-0.1,0-0.1,0-0.1,0C672.2,69.1,672.2,69.1,672.3,69.1z"/>
	<linearGradient id="SVGID_36_" gradientUnits="userSpaceOnUse" x1="671.7818" y1="75.1616" x2="673.4766" y2="75.1152">
		<stop  offset="0" style="stop-color:#FFC8A2"/>
		<stop  offset="0.914" style="stop-color:#FFC39A"/>
	</linearGradient>
	<path class="st114" d="M671.7,69.3C671.7,69.3,671.7,69.3,671.7,69.3C671.7,69.3,671.7,69.3,671.7,69.3
		C671.6,69.3,671.6,69.3,671.7,69.3c0.2,1.1-0.2,7.8,0.3,10.8c0.3,1.7,2,1,2.9,0.6c-2.4,0-2.3-10.1-2.8-11.5
		C671.9,69.2,671.8,69.2,671.7,69.3C671.6,69.3,671.7,69.3,671.7,69.3z"/>
	<path class="st109" d="M662.6,50.8c0.4,0.1,0.7,0,0.9-0.3c0.8-1.4,3.5-4.6,11.4-3.4c4.2,0.6,13.1,2.2,16.4,5.6
		c1,1,1.8,10.9-0.4,17.1c0,0-1.8-0.6-3.1,1.4c0,0,0,0,0,0.1c0,0.1-0.1,0.3-0.3,0.5c-0.4,0.7-1.4,0.4-1.4-0.3c0-2.6-0.2-6.3-1.3-8.4
		c-1.8-3.5-6.4-6.5-12-2.1c-0.2,0.2-0.5,0.2-0.8,0.1c-1.5-0.7-7-3-9.2-1.9c-2.5,1.2-3.5,8.1-3.6,13.6c0,0.4-0.3,0.7-0.8,0.7h0
		c-0.3,0-0.6-0.2-0.7-0.5c-0.3-1-1.2-3.1-3.1-3.3c-0.3,0-0.6-0.2-0.6-0.5c-0.7-2.5-3.4-12.9,0.8-16.4
		C658.5,49.7,661.4,50.3,662.6,50.8z"/>
	<polygon class="st102" points="688,104.8 681.9,101.6 673.2,106.8 662.7,102.1 659,104.8 668,117.1 673.2,108.8 677.9,117.1 	"/>
	<polygon class="st115" points="686.8,104.5 681.7,100 673.2,106.8 664.8,100 659.7,104.5 668.4,115.3 673.2,107.1 678.1,115.3 	"/>
	<g>
		<path class="st116" d="M636.6,178.4l-4.7,22.2c-0.3,1.6,0.6,3.1,2,3.6l40.1,13c1.7,0.6,3.5-0.5,3.9-2.4l5.6-29
			c0.3-1.7-0.8-3.4-2.5-3.7l-41-6.2C638.4,175.7,637,176.8,636.6,178.4z"/>
		<path class="st117" d="M636.5,178.3l-4.6,21.6c-0.3,1.5,0.5,3.1,2,3.5l39.1,12.7c1.7,0.5,3.4-0.5,3.8-2.3l5.4-28.3
			c0.3-1.7-0.8-3.3-2.5-3.6l-40-6.1C638.3,175.7,636.8,176.8,636.5,178.3z"/>
		<path class="st117" d="M659.3,197.8c-2.9-2.5-4.6-5.9-6.5-9.2c-2.1-3.6-4.2-7.3-5.1-11.4l-7.9-1.2c-1.5-0.2-3,0.8-3.3,2.4
			l-4.6,21.6c-0.3,1.5,0.5,3.1,2,3.5l39.1,12.7c1.7,0.5,3.4-0.5,3.8-2.3l3.1-16.1C673.7,200.8,664.8,202.5,659.3,197.8z"/>
		<path class="st118" d="M667.8,210.7c-0.1-2-0.5-2.8-3.5-4.6c-2.6-1-7.7-7.7-8.5-8.5c-2.1-2-4-4.2-5.9-6.4c-1.6-2-2.7-4.6-4.5-6.4
			c-4.6-4.6-5.4,4.9-5.4,7.9c0,2.8-0.1,5.6,0.2,8.4c0.2,1.7,0.8,3.2,1.3,4.8l24.5,7.9C666.2,213,667.8,211.8,667.8,210.7z"/>
		<ellipse class="st12" cx="657.7" cy="184.9" rx="1.4" ry="1.3"/>
	</g>
	<path class="st99" d="M642.7,205.1c0,0,12.5-1.4,14.2-6.4C656.9,198.6,642.1,189.4,642.7,205.1z"/>
	<g>
		<path class="st44" d="M646.1,196.7c0,0-1.8,9-2.1,10.2c-0.5,1.9,0.2,2,3.8,9.5c0.1,0.3,0.5,0.5,0.8,0.4c0.6-0.1,1.5-0.4,1.9-1.1
			c0,0,1.7,2.9,2.8,1.7c0.5-0.6,1.1-1.3,1.1-1.3s0.9,1.4,1.9,1.2c0.7-0.1,1.4-1.3,1.8-2.4c0,0,1.3,1,2.1,0.8c0.4-0.1,1-0.7,1.9-2.1
			l-1-0.8c0,0-1.7-0.2-4.1-2.8c-1-1.1-0.8-2.3,0.4-2c1.6,0.4,1.1,1.3,3.4,3c2,1.5,4.9,1.6,5.4,0.3c0.8-2.3-3-3.4-4-4.3
			c-2.3-1.9-4.2-6-4.9-6.4c-1.2-0.7-3.8-1.9-3.9-4.4L646.1,196.7z"/>
		<path class="st74" d="M656.6,208.1c-2.3-2.1-2.3-6.1,0-8c-1.3-0.8-3.1-1.9-3.2-4l-7.3,0.7c0,0-1.8,9-2.1,10.2
			c-0.3,1.4-0.1,1.8,1.4,4.7c0.1,0,0.1,0,0.2,0c3.4-0.1,6.8,0.6,10.1-0.4c0.6-0.2,1.2-0.4,1.8-0.7c-0.2-0.2-0.3-0.3-0.5-0.5
			C656.3,209.2,656.2,208.4,656.6,208.1z"/>
		<path class="st44" d="M661.1,212.7c0,0-1.7-0.2-4.1-2.8c-1-1.1-0.8-2.3,0.4-2c1.6,0.4,1.1,1.3,3.4,3c2,1.5,4.9,1.6,5.4,0.3
			c0.2-0.5,0.1-1-0.1-1.4c-0.3,1.3-1.3,1.7-2.3,1.6c-1.1-0.1-2.5-1-3.2-1.9c-1.2-1.5-3-3-4.3-3c-0.3,1.2-1.4,3.1-2.6,2.5
			c-0.4,1.3-1.8,1.9-3.4,1.3c-0.4,0.7-2.4,0.7-3.1-0.2c0,0-2,0.6-2.5-2c-0.2-1,2-8.7,1.9-11.4l-0.6,0.1c0,0-1.8,9-2.1,10.2
			c-0.5,1.9,0.5,4.5,3.8,9.5c0.2,0.3,0.5,0.5,0.8,0.4c0.6-0.1,1.5-0.4,1.9-1.1c0,0,1.7,2.9,2.8,1.7c0.5-0.6,1.1-1.3,1.1-1.3
			s0.9,1.4,1.9,1.2c0.7-0.1,1.4-1.3,1.8-2.4c0,0,1.3,1,2.1,0.8c0.4-0.1,1.1,0,2-2.4L661.1,212.7z"/>
		<path class="st82" d="M661.1,212.7c0,0-0.7-0.1-1.8-0.8c-0.7,0.5-1.7,0.9-2.8,0.9c-0.8,0.7-1.9,1.2-3.3,1.2c-0.3,0-0.6,0-0.8-0.1
			c-0.5,0.2-1.2,0.3-1.8,0.3c-0.9,0-1.7-0.2-2.4-0.6c-0.5,0.2-1.1,0.3-1.7,0.3h-0.1c0.4,0.7,1,1.6,1.5,2.4c0.2,0.3,0.5,0.5,0.8,0.4
			c0.6-0.1,1.5-0.4,1.9-1.1c0,0,1.7,2.9,2.8,1.7c0.5-0.6,1.1-1.3,1.1-1.3s0.9,1.4,1.9,1.2c0.7-0.1,1.4-1.3,1.8-2.4
			c0,0,1.3,1,2.1,0.8c0.4-0.1,1.1,0,2-2.4L661.1,212.7z"/>
		<path class="st82" d="M666.1,209.8c-0.3,1.3-1.3,1.7-2.3,1.6c-1-0.1-3.3-1-3.4-0.8c0.1,0.1,0.3,0.2,0.5,0.4c2,1.5,4.9,1.6,5.4,0.3
			C666.4,210.7,666.3,210.2,666.1,209.8z"/>
		<path class="st119" d="M657.9,215.5c0.1-0.2,0.1-0.3,0.2-0.5c-0.2-0.5-2.8-3.9-3.6-5C654.4,210.2,656.7,214.1,657.9,215.5z"/>
		<path class="st119" d="M654.1,216.5c0.1-0.2,0.3-0.3,0.3-0.4c-0.2-0.5-3-4-3.8-5C650.6,211.3,652.9,215.2,654.1,216.5z"/>
		<path class="st119" d="M650.2,216.1c0,0,0.3-0.2,0.3-0.4c-0.2-0.5-2.1-2.7-2.9-3.8C647.5,212.2,649.1,214.8,650.2,216.1z"/>
		<path class="st83" d="M662.8,208.7c0.9-1.1,2.9,0.6,2.9,0.7c0,0,0.1,1.2-1.4,1.5c-0.7-0.2-1-0.5-1.3-0.8
			C662.6,209.6,662.6,209.1,662.8,208.7z"/>
	</g>
	<path class="st100" d="M639.9,110.4c0,0-15.2,49.7-13.7,55.3c1.4,5.6,15.3,36.6,16.5,39.4c0,0,4.5-6.6,14.2-6.4
		c0,0-16.6-31.4-17-32.7c-0.4-1.4,8.9-25.4,9.1-29.4C649.2,132.5,652.1,117.3,639.9,110.4z"/>
	<path class="st103" d="M647.9,119.9c-0.2,5.6-0.4,14.8-3.7,22.9c-5.4,13.4-4.4,19.7-4.7,22.7c0.1,0,0.2,0.1,0.3,0.1
		c0.3-2.9,8.9-25.2,9.1-29.1C649.1,133.9,650.4,126.6,647.9,119.9z"/>
	<path class="st103" d="M644,197.2c-2.9-3.3-4.9-6.6-6.7-10.6c-2.2-4.9-4.5-9.3-8.1-12.8c0,0,0,0-0.1,0
		c4.6,11.2,12.5,29.2,13.5,31.3c0,0,1.5-2.2,4.7-4C646.2,199.8,645.1,198.4,644,197.2z"/>
	<path class="st100" d="M703.4,109.4c0,0-11.5,8.1-8,27.3c0,0,10.8,18.5,11.9,21.1c1.1,2.5-1.5,11.6-1.5,11.6s8.5,3.2,1.7,12.7
		c0,0,17.2-11.2,14.7-22.5C720.2,150.4,704.5,110.6,703.4,109.4z"/>
	<path class="st101" d="M712.2,168.9c-2.2,0.4-4.5-0.4-5.8-1.9c-0.3,1.4-0.6,2.4-0.6,2.4s8.5,3.2,1.7,12.7c0,0,14-9.1,14.9-19.2
		C720.4,166.5,716.5,168.2,712.2,168.9z"/>
	<path class="st103" d="M707.4,158.1c0.2-0.7,0.3-1.5,0.3-2.3c-0.3-2.4-1-4.6-2.1-6.7c-2.3-4.5-5.1-8.9-6.6-13.7
		c-1.5-5-2.4-11-2.2-16.9c-1.8,4.3-2.9,10.3-1.4,18.2c0,0,10.8,18.5,11.9,21.1C707.4,157.8,707.4,157.9,707.4,158.1z"/>
	<g>
		<path class="st120" d="M691.2,149.9c-0.5-0.9-2-2.8-2.1-3.1c-5.6,2-11,4.3-12.2,15c-0.2,1.3-0.2,2.7-0.2,4.2c0,0,0,0,0,0
			c0,0.3,0,0.5,0,0.8c0.1,10.2,7.8,13.4,14.3,14.4c-0.2-0.5,1.5-1.1,3.5-1.7l1.6-25.7C693.9,153.6,692.3,151.8,691.2,149.9z"/>
		<path class="st86" d="M692.5,148.1c-0.6,0.2-3.8,1.2-4.4,1.4c0.3-1.7,0.9-2.7,0.9-2.7c-5.5,2-10.9,4.4-12,14.9
			c-0.2,1.3-0.2,2.7-0.2,4.2c0,0,0,0,0,0c0,0.3,0,0.5,0,0.8c0.1,10.2,7.8,13.4,14.3,14.4c-0.5-1.1-1-2.2-1.4-3.3
			c5.4,0.9,10.5,0.3,10.5,0.3c11.9,1,15.2-11.8,11.4-21.4c-1.6-3.9-6.2-6.7-10-7.6C697.4,148.1,693.2,147.9,692.5,148.1z"/>
		<path class="st87" d="M710.1,174.1c1.7-2.2,2.5-5,2.8-7.7c0,0,0,0,0,0c0.1-1.3,0.1-2.7,0-4c-1.6,0.4-3.2,0.7-4.8,0.9
			c-0.7,0.1-6.6,0.9-6.6,0.4c-0.2-1.4-1.8-2.5-3.2-1.8c-0.6,0.3-1,0.8-1.2,1.3c-0.2,0.5-2-0.3-2.4-0.5c-4.7-4.2-4.9-11-4-14
			c-0.8,0.3-1.7,0.5-2.5,0.8c-0.9,0.3-4.5,5.7-4.9,15c-0.1,2.2,0.4,4.6,1.5,6.5c0.5,1,1.4,1.8,2.2,2.7c0.9,0.9,1.7,1.8,2.7,2.6
			c0.2,0.5,0.5,1,0.7,1.5c0.5,0.1,1.1,0.1,1.6,0.2c0,0,0,0,0,0c2.7,0.3,5.6,0.3,8.3,0C704,178.4,707.7,177.2,710.1,174.1z"/>
		<g>
			<path class="st121" d="M711.8,157.2l-21.5,1.1v0.9l22.3,1C712.4,159.2,712.1,158.2,711.8,157.2z"/>
			<path class="st121" d="M712.9,166l-22.7,1.2v0.9l22.2,1C712.7,168.1,712.8,167.1,712.9,166z"/>
			<path class="st121" d="M712.8,161.3l-24.4,1.2v0.9l24.7,1.5C713,163.7,712.9,162.5,712.8,161.3z"/>
		</g>
		<g>
			<path class="st89" d="M682.1,166.7c0-12.7,3.8-16.6,3.8-17c-2.9,2.9-4.9,7.7-4.8,17c0.1,6.7,3.1,10.6,6.8,12.8
				C687.8,179.2,682.1,174.5,682.1,166.7z"/>
		</g>
	</g>
	<path class="st89" d="M711.8,162.9c-0.6,0.9-1.2,1.7-1.9,2.5c-2.7,2.9-8,1.8-8.8-2c-0.4-1.9-2.5-2.9-4-1.5c-0.6,0.5-0.8,1.3-0.9,2
		c0,0.8,0,1.6,0,2.4c0.1,5.5-6.5,6.9-9.6,3c-0.9-1.2-2.5-2.1-4.1-1.3c-3,1.6-2.8,4.6-2.8,7.7c2.9,3.4,7.3,4.8,11.3,5.4
		c-0.2-0.5,1.5-1.1,3.5-1.7l0.1-1.2c1.3,0,2.7,0,4-0.1c1-0.1,1.5-0.1,1.5-0.1c0.3,0,0.6,0,0.9,0c0.2,0,0.3,0,0.5,0c0,0,0.1,0,0.1,0
		c9.2-0.1,12.6-9.1,11.1-17.4C712.3,161.4,712.1,162.4,711.8,162.9z"/>
	<g>
		<path class="st44" d="M707.7,170c0,0-1.3,1.8-2.6,1.5c-1.3-0.3-0.5-1-2.8-2.6c-2.3-1.7-1.9-4.8-2.3-5.6c-0.4-0.7-3-0.8-2.4,3.3
			c0,0,0.4,2,1.5,3.3s1,2.2-0.2,2.2c-1.4,0-1-0.2-5,0.9c-2.9,0.8-4.4,0.3-4.5,0.2c-1.4-0.4-4.2-4.6-6.1-3.2
			c-2.1,1.6,4.7,6.5,5.4,6.5c0.7,0,6.4-0.7,6.4-0.7s-4.3,0.8-6.3,0.8c-2,0-5.4-5-7.1-4.1c-2,1,2.6,6.1,4.9,6.6
			c2.3,0.5,7.6-0.5,8.5-0.7c0,0-6.4,1.1-8.1,0.9c-2.1-0.2-4.5-3.4-4.8-3.3c-0.2,0-1.3,1.4,0,3.1c0.6,0.8,1.9,1.7,3.8,2.5
			c0.3,0.1,0.6,0.2,0.9,0.2c1.3,0,4.4,0.2,7.8-0.9c0,0-3.7,1.1-7.6,1c-1.2,0-3.3-1.2-3.3-1.2c-0.2-0.1-0.6,1.8,1.7,2.7
			c1.1,0.4,2.8,0.7,5.6,0.3c4.1-0.5,4.7-1.7,5.6-1.9c0.8-0.2,4.8-1.9,5.5-1.9c0.7-0.1,7.7-0.9,8.7-4.2
			C711.9,172.2,709.5,170.7,707.7,170z"/>
		<path class="st74" d="M707.6,170.6c0,0-1.1,1.5-2.3,1.3c-0.3-0.1-0.5-0.2-0.6-0.3c0.3,2.2,0,4.1-1.1,6c-0.2,0.4-4.1,2.2-4.3,2.5
			c0.5-0.1,2.2-1.1,3.9-1.2c3-0.2,6.7-1.8,7.2-3.6C711.2,172.5,709.2,171.2,707.6,170.6z"/>
		<path class="st119" d="M694.6,175.8c-1.6,0.3-4.2,0.7-5.5,0.7c-1.6,0-4-2.4-4.1-2.5c1.1,1.7,2.2,2.5,3.5,2.9
			C690.3,177.4,694.6,175.8,694.6,175.8z"/>
		<path class="st119" d="M693.1,178.6c-1.6,0.3-4.4,0.6-5.7,0.6c-1.6,0-3.9-2.3-4-2.4c1.1,1.7,2.2,2.4,3.5,2.7
			C688.7,180.1,693.1,178.6,693.1,178.6z"/>
		<path class="st119" d="M693.5,181c-2.1,0.5-3.7,0.6-5.2,0.7c-2.2,0.1-3.5-0.7-3.6-0.8c1.2,0.9,2.2,1.1,3.4,1.2
			C690.1,182.3,693.5,181,693.5,181z"/>
		<path class="st82" d="M687.8,175.8c-0.2-1.2-0.1-2.4,0.4-3.5c-1.5-1.3-3.4-3.4-4.8-2.3c-1.7,1.3,2.4,4.7,4.4,5.9
			C687.7,175.9,687.8,175.8,687.8,175.8z"/>
		<path class="st82" d="M687.4,178.6c-0.1-0.9,0-1.7,0.3-2.5c-2-1.2-4.5-4.4-5.9-3.7c-2,1,2.6,6.1,4.9,6.6c0.2,0,0.4,0.1,0.7,0.1
			C687.3,178.9,687.3,178.7,687.4,178.6z"/>
		<path class="st82" d="M687.3,179.1c-0.1,0-0.1,0-0.2,0c-2.1-0.2-4.5-3.4-4.8-3.3c-0.2,0-1.3,1.4,0,3.1c0.6,0.8,1.9,1.7,3.8,2.5
			c0.3,0.1,0.6,0.2,0.9,0.2c0.1,0,0.3,0,0.5,0C687.2,180.8,687.2,180,687.3,179.1z"/>
		<path class="st82" d="M687.6,182c0-0.1-0.1-0.2-0.1-0.4c-0.1,0-0.2,0-0.4,0c-1.2,0-3.3-1.2-3.3-1.2c-0.2-0.1-0.6,1.8,1.7,2.7
			c0.6,0.2,1.4,0.4,2.5,0.5C687.8,183.1,687.6,182.6,687.6,182z"/>
		<path class="st83" d="M683.7,173.4c0.2,0.2,0.3,0.5,0.2,0.7c-0.2,0.4-0.5,1-1.3,1.1c-0.2,0-2.1-1.7-0.8-2.5
			C682.3,172.5,683.2,173.1,683.7,173.4z"/>
		<path class="st83" d="M683.9,177.8c0,0-0.4,1.1-1.4,1.1c-0.2,0-1.4-1.9-0.2-2.5C682.6,176.3,683.9,177.8,683.9,177.8z"/>
		<path class="st83" d="M684,180.9c-0.6,1.1,1.3,1.9,1.4,1.8c0.3-0.3,0.4-0.7,0.4-1C685.1,181.5,684,180.9,684,180.9z"/>
		<path class="st83" d="M686.1,171.2c0,0,0.3,1-1.4,1.3c-0.2,0-2.1-1.7-0.7-2.4C684.9,169.6,686.1,171.2,686.1,171.2z"/>
		<path class="st83" d="M699.7,163.3c-1.5-0.7-1.1,2.4-0.9,2.5c1,0.6,1.6-0.1,1.6-0.1s0,0,0,0C700.1,165,700.1,163.5,699.7,163.3z"
			/>
	</g>
	<path class="st100" d="M722.3,159.5c-0.1-0.4-0.2-0.8-0.3-1.2h-8.7c0.1,1.8-0.2,3.7-0.9,5.5c-1.2,2.7-4.4,6.4-5.3,6.9
		c1.3,0.6,4.8,2.8,1,11.1C708,181.8,724.8,170.9,722.3,159.5z"/>
	<g>
		<g>
			<defs>
				<path id="SVGID_37_" d="M683,73.8c0,0,0-4.8-4-4.3c-3.2,0.5-2.1,5.1-2.1,5.1S681.8,74.7,683,73.8z"/>
			</defs>
			<clipPath id="SVGID_38_">
				<use xlink:href="#SVGID_37_"  style="overflow:visible;"/>
			</clipPath>
			<path class="st122" d="M683,73.8c0,0,0-4.8-4-4.3c-3.2,0.5-2.1,5.1-2.1,5.1S681.8,74.7,683,73.8z"/>
			<linearGradient id="SVGID_39_" gradientUnits="userSpaceOnUse" x1="679.673" y1="70.4345" x2="679.673" y2="75.2031">
				<stop  offset="0" style="stop-color:#353746"/>
				<stop  offset="0.8817" style="stop-color:#4D4F5C"/>
			</linearGradient>
			<ellipse class="st123" cx="679.7" cy="72.8" rx="2.2" ry="2.7"/>
			<path class="st124" d="M680.5,71c-1.3,0-2.8,0-3.7,0.7c0.2-1,0.5-2.1,1.8-2.5c2.9-0.9,3.5,1.3,4.1,2.3
				C682.1,71.1,681.4,71,680.5,71z"/>
		</g>
		<circle class="st50" cx="680.7" cy="72.1" r="0.4"/>
	</g>
	<g>
		<g>
			<defs>
				<path id="SVGID_40_" d="M662.1,73.8c0,0,0-4.8,4-4.3c3.2,0.5,2.1,5.1,2.1,5.1S663.3,74.7,662.1,73.8z"/>
			</defs>
			<clipPath id="SVGID_41_">
				<use xlink:href="#SVGID_40_"  style="overflow:visible;"/>
			</clipPath>
			<path class="st125" d="M662.1,73.8c0,0,0-4.8,4-4.3c3.2,0.5,2.1,5.1,2.1,5.1S663.3,74.7,662.1,73.8z"/>
			<linearGradient id="SVGID_42_" gradientUnits="userSpaceOnUse" x1="665.434" y1="70.125" x2="665.434" y2="75.3488">
				<stop  offset="0" style="stop-color:#353746"/>
				<stop  offset="0.8817" style="stop-color:#4D4F5C"/>
			</linearGradient>
			<ellipse class="st126" cx="665.4" cy="72.8" rx="2.2" ry="2.7"/>
			<path class="st127" d="M664.5,71c1.3,0,2.9,0,3.7,0.7c-0.2-1-1.1-2.4-2.4-2.6c-1.7-0.3-2.9,1.4-3.4,2.4
				C663,71.1,663.7,71,664.5,71z"/>
		</g>
		<circle class="st50" cx="666.3" cy="72.1" r="0.4"/>
	</g>
</g>
</svg>
