<?xml version="1.0" encoding="utf-8"?>
<!-- Generator: Adobe Illustrator 19.0.0, SVG Export Plug-In . SVG Version: 6.00 Build 0)  -->
<svg version="1.1" id="Layer_1" xmlns="http://www.w3.org/2000/svg" xmlns:xlink="http://www.w3.org/1999/xlink" x="0px" y="0px"
	 viewBox="0 0 1026.8 381.8" style="enable-background:new 0 0 1026.8 381.8;" xml:space="preserve">
<style type="text/css">
	.st0{fill:#E9E9E9;}
	.st1{fill:#DDDDDD;}
	.st2{fill:#FFAE41;}
	.st3{fill:#EF772C;}
	.st4{fill:#FF4F3F;}
	.st5{fill:#CE101D;}
	.st6{fill:#FF9D83;}
	.st7{fill:#00433B;}
	.st8{fill:#006C60;}
	.st9{fill:#FF7D65;}
	.st10{fill:#270A05;}
	.st11{opacity:0.5;}
	.st12{fill:#FFFFFF;}
	.st13{fill:#008889;}
	.st14{fill:#594B54;}
	.st15{fill:#BABABA;}
	.st16{fill:#CCCCCC;}
	.st17{fill:#EAEAEA;}
	.st18{fill:#666666;}
	.st19{fill:#3D2027;}
	.st20{fill:#8A5C54;}
	.st21{fill:#6D4744;}
	.st22{fill:#F1D5B8;}
	.st23{fill:#DEDAC6;}
	.st24{fill:#E5BF9E;}
</style>
<image style="overflow:visible;" width="1280" height="476" xlink:href="banner02.jpg"  transform="matrix(0.8022 0 0 0.8022 0 0)">
</image>
<rect class="st0" width="1026.8" height="381.8"/>
<g id="Layer_2">
	<g id="XMLID_2_">
		<g id="XMLID_3_">
			<g id="XMLID_4_">
				<g id="XMLID_5_">
					<path id="XMLID_6_" class="st1" d="M748.1,138.3c-19.5-2.8-37.9-10.4-53.9-21.9c-23.8-17.2-73.6-46.6-121.1-32
						c-65.5,20.2-65.8,78.5-48.7,110.1c17.1,31.7,138.1,124.4,295,109.7c140.4-13.2,167.7-164.4,92.9-191.7
						C847.3,88.7,825.2,149.2,748.1,138.3z"/>
				</g>
			</g>
		</g>
		<g id="XMLID_7_">
			<g id="XMLID_8_">
				<g id="XMLID_9_">
					<g id="XMLID_10_">
						<path id="XMLID_11_" class="st1" d="M585.7,254.4c0,0-9.8-4.5-13.6,3.3c-3.8,7.8,10.2,15.8,17.8,13.5
							C597.5,268.8,596.1,257.4,585.7,254.4z"/>
					</g>
				</g>
			</g>
		</g>
		<g id="XMLID_12_">
			<g id="XMLID_13_">
				<g id="XMLID_14_">
					<g id="XMLID_15_">
						<path id="XMLID_16_" class="st1" d="M740.4,114c0,0-10.7-3.3-13.6,5.2c-2.9,8.5,12.5,14.9,20,11.6
							C754.4,127.4,751.5,115.8,740.4,114z"/>
					</g>
				</g>
			</g>
		</g>
	</g>
	<g id="XMLID_17_">
		<g id="XMLID_18_">
			<ellipse id="XMLID_2536_" class="st1" cx="725.8" cy="339.1" rx="144.7" ry="14.3"/>
		</g>
		<g id="XMLID_19_">
			<g id="XMLID_20_">
				<g id="XMLID_21_">
					<g id="XMLID_22_">
						<path id="XMLID_23_" class="st2" d="M806.9,317.9c-1.7,1.7-3.6,3.3-5.6,4.9c-10.1,7.7-24,13.3-42.4,15.1
							c-94.4,9.4-125.6-34.8-133.2-103c-3.4-30.4,4.6-50.4,14.4-63.3c1-1.3,2.1-2.6,3.1-3.8c0.6-0.7,1.2-1.3,1.8-2
							c12.7-13,31.1-19.1,49.2-16.2c14.2,2.3,27.1,9.9,37.6,25.1c16.7,24.2,0.9,45.1,48.7,46.5C817.2,222.2,840.4,284.5,806.9,317.9
							z"/>
					</g>
				</g>
				<g id="XMLID_24_">
					<g id="XMLID_25_">
						<path id="XMLID_26_" class="st3" d="M662.4,170.7c0,0-11.2,23.9,1.7,67.7c12.9,43.9,30,40.4,41,40.4
							c19.3,0,58.3-18.2,65.9-32.5c7.6-14.3-6.8-15.2-33.7-17.3C710.4,227,690.3,161.2,662.4,170.7z"/>
					</g>
				</g>
				<g id="XMLID_27_">
					<g id="XMLID_28_">
						<path id="XMLID_29_" class="st3" d="M686.6,297.2c-0.2,0-0.4-0.1-0.6-0.2c-0.3-0.3-0.3-0.8,0-1.1c9.6-9.2,18.8-14.6,24.9-17.5
							c6.6-3.2,10.8-4.2,11-4.2c0.4-0.1,0.9,0.2,1,0.6c0.1,0.4-0.2,0.9-0.6,1c-0.2,0-17,4.1-35.1,21.3
							C687,297.2,686.8,297.2,686.6,297.2z"/>
					</g>
				</g>
				<g id="XMLID_30_">
					<g id="XMLID_31_">
						<path id="XMLID_32_" class="st3" d="M689.8,286.5c-0.3,0-0.5-0.1-0.7-0.4c-0.2-0.4-0.2-0.9,0.2-1.1c0.4-0.3,9.3-6.2,23.2-7.7
							c0.4,0,0.8,0.3,0.9,0.7c0,0.4-0.3,0.8-0.7,0.9c-13.5,1.5-22.4,7.4-22.5,7.5C690.1,286.5,689.9,286.5,689.8,286.5z"/>
					</g>
				</g>
				<g id="XMLID_33_">
					<g id="XMLID_34_">
						<path id="XMLID_35_" class="st3" d="M660.7,220.2c-0.4,0-0.7-0.3-0.8-0.7c-1.2-9.3-5.2-16.4-8.3-20.7
							c-3.4-4.7-6.6-7.2-6.6-7.3c-0.3-0.3-0.4-0.8-0.1-1.1c0.3-0.3,0.8-0.4,1.1-0.1c0.1,0.1,3.4,2.7,6.9,7.5
							c3.3,4.5,7.4,11.9,8.6,21.5c0.1,0.4-0.3,0.8-0.7,0.9C660.7,220.2,660.7,220.2,660.7,220.2z"/>
					</g>
				</g>
				<g id="XMLID_36_">
					<g id="XMLID_37_">
						<g id="XMLID_38_">
							<path id="XMLID_39_" class="st3" d="M806.9,317.9c-1.7,1.7-3.6,3.3-5.6,4.9c-11.6,7-25.8,11.6-41.4,13.4
								c-4.8,0.6-9.7,0.8-14.6,0.8c-13.5,0-27-2.1-39.7-6.2C672.4,320,648.5,297,638.3,266c-5.6-17-8.4-33.5-8.2-49.1
								c0.1-12.5,2.2-24.4,6-35.4c1.3-3.7,2.7-7,4.1-10c1-1.3,2.1-2.6,3.1-3.8c0.6-0.7,1.2-1.3,1.8-2c-2.5,4.3-5.2,9.8-7.5,16.4
								c-5.9,17.1-10.3,45.4,2.3,83.3c10.1,30.4,33.6,53,66.2,63.6c34.7,11.2,74.7,6.7,99.7-11.3
								C806.2,317.5,806.7,317.6,806.9,317.9z"/>
						</g>
					</g>
				</g>
			</g>
			<g id="XMLID_40_">
				<g id="XMLID_41_">
					<g id="XMLID_42_">
						<g id="XMLID_43_">
							<path id="XMLID_44_" class="st4" d="M668.5,143.1c0,0-13-13.3,6-22.7c19-9.4,41.4,5,45,15.4
								C723.1,146.3,668.5,143.1,668.5,143.1z"/>
						</g>
					</g>
					<g id="XMLID_45_">
						<g id="XMLID_46_">
							<path id="XMLID_47_" class="st5" d="M691.2,134c-0.1,0-0.2,0-0.3-0.1c-5.2-4.4-13.9-4-14-4c0,0,0,0,0,0
								c-0.3,0-0.5-0.2-0.5-0.5c0-0.3,0.2-0.5,0.5-0.5c0.4,0,9.2-0.4,14.7,4.3c0.2,0.2,0.2,0.5,0.1,0.7
								C691.4,133.9,691.3,134,691.2,134z"/>
						</g>
					</g>
					<g id="XMLID_48_">
						<g id="XMLID_49_">
							<path id="XMLID_50_" class="st5" d="M678.4,134.6c-0.2,0-0.4-0.1-0.4-0.3c-0.1-0.2,0-0.5,0.2-0.7c0.3-0.1,6.3-3.3,10.5-2.3
								c0.3,0.1,0.4,0.3,0.4,0.6c-0.1,0.3-0.3,0.4-0.6,0.4c-3.9-0.9-9.8,2.2-9.8,2.2C678.6,134.6,678.5,134.6,678.4,134.6z"/>
						</g>
					</g>
				</g>
				<g id="XMLID_51_">
					<g id="XMLID_52_">
						<g id="XMLID_53_">
							<g id="XMLID_54_">
								<g id="XMLID_55_">
									<path id="XMLID_56_" class="st6" d="M809.8,309.8l6.7,12.3c0,0,8.2,1.9,18,2.7c14.9,1.1,19.3-1.2,20.3,2.1
										c0.8,2.6-10.5,8.4-15.7,9.4c-5.2,0.9-16.6,5.6-24.1,6.4c-7.4,0.8-10.7-8.5-12.4-11.9c-1.7-3.3-7-14.6-7-14.6L809.8,309.8z"
										/>
								</g>
							</g>
						</g>
					</g>
					<g id="XMLID_57_">
						<g id="XMLID_58_">
							<g id="XMLID_59_">
								<g id="XMLID_60_">
									<path id="XMLID_61_" class="st4" d="M849,330.2c0,0.9-0.1,1.8-0.6,2.5c-0.1,0.1-0.2,0.2-0.3,0.3
										c-2.6,2.9-13.2,4.3-13.2,4.3c0.8-0.8,1.2-1.9,1.4-3.2c0.3-3.3-1.3-7.6-2-9.3c-0.2-0.5-0.3-0.7-0.3-0.7
										c1.8-0.4,3.6-0.7,5.1-0.8c1.5-0.1,2.9-0.1,4.1-0.1c2.1,0.1,3.5,0.4,3.5,0.4s0.4,0.6,0.8,1.5
										C848.1,326.5,848.9,328.4,849,330.2z"/>
								</g>
							</g>
						</g>
					</g>
					<g id="XMLID_62_">
						<g id="XMLID_63_">
							<g id="XMLID_64_">
								<g id="XMLID_65_">
									<path id="XMLID_66_" class="st5" d="M844.5,328.2l-3.6,0.4c0,0-0.5-1.8-1-3.4c-0.2-0.7-0.5-1.3-0.7-1.8
										c1.5-0.1,2.9-0.1,4.1-0.1c0.2,0.5,0.5,1.2,0.7,1.9C844.2,326.2,844.4,327.2,844.5,328.2z"/>
								</g>
							</g>
						</g>
					</g>
					<g id="XMLID_67_">
						<g id="XMLID_68_">
							<g id="XMLID_69_">
								<path id="XMLID_2489_" class="st4" d="M853.5,328.8c0,0-34,10.8-38.6,11.6c-4.6,0.8-7.1-0.1-7.1-0.1s0.1,1.9,0.5,3.6
									c0.5,2.1,2.6,3.3,4.6,2.7c9.1-2.8,39.2-12.2,41.2-13.9C856.7,330.7,856.1,328.6,853.5,328.8z"/>
							</g>
						</g>
					</g>
				</g>
				<g id="XMLID_70_">
					<g id="XMLID_71_">
						<g id="XMLID_72_">
							<g id="XMLID_73_">
								<g id="XMLID_74_">
									<g id="XMLID_75_">
										<path id="XMLID_76_" class="st6" d="M778.4,307l-0.4,11.1c0,0,6.1,5.9,14.1,11.5c12.2,8.6,17.2,8.8,16.4,12.2
											c-0.6,2.6-13.3,1.9-18.3,0c-5-1.9-17.2-3.7-24-6.8c-6.8-3.1-4.8-12.8-4.6-16.5c0.3-3.7,0.8-12.1,0.8-12.1L778.4,307z"/>
									</g>
								</g>
							</g>
						</g>
						<g id="XMLID_77_">
							<g id="XMLID_78_">
								<g id="XMLID_79_">
									<g id="XMLID_80_">
										<path id="XMLID_81_" class="st4" d="M801.8,341.6c-0.4,0.8-1,1.5-1.8,1.9c-0.1,0.1-0.3,0.1-0.4,0.1
											c-3.7,1.2-13.5-3-13.5-3c1.1-0.3,2.1-1,2.8-2.1c2-2.7,2.8-7.2,3.1-9c0.1-0.5,0.1-0.8,0.1-0.8c1.8,0.6,3.4,1.2,4.8,1.9
											c1.4,0.7,2.6,1.4,3.5,2c1.8,1.2,2.8,2.1,2.8,2.1s0,0.7-0.1,1.7C803,337.9,802.7,340,801.8,341.6z"/>
									</g>
								</g>
							</g>
						</g>
						<g id="XMLID_82_">
							<g id="XMLID_83_">
								<g id="XMLID_84_">
									<g id="XMLID_85_">
										<path id="XMLID_86_" class="st5" d="M799,337.6l-3.3-1.5c0,0,0.5-1.8,0.9-3.5c0.1-0.7,0.3-1.4,0.3-1.9
											c1.4,0.7,2.6,1.4,3.5,2c-0.1,0.5-0.2,1.2-0.4,2C799.8,335.7,799.4,336.7,799,337.6z"/>
									</g>
								</g>
							</g>
						</g>
						<g id="XMLID_87_">
							<g id="XMLID_88_">
								<g id="XMLID_89_">
									<path id="XMLID_2469_" class="st4" d="M806.4,342.7c0,0-34.8-8.1-39.1-9.8c-4.3-1.7-6-3.7-6-3.7s-0.8,1.7-1.4,3.4
										c-0.7,2,0.6,4.2,2.6,4.6c9.3,2.2,39.9,9.5,42.5,9.2C808.2,346,808.8,343.9,806.4,342.7z"/>
								</g>
							</g>
						</g>
					</g>
					<g id="XMLID_90_">
						<g id="XMLID_91_">
							<g id="XMLID_92_">
								<path id="XMLID_2464_" class="st7" d="M790.3,219.1c-8.8-6.8-40.5-4-65.3-0.5c-0.7,11.2,2.8,1.9,0.7,13
									c31,1.6,39.7,4,39.7,4s-4.6,25.2-4.4,35.8c0.2,10.5-3.5,41-3.5,41l22.3,4.2C779.7,316.6,802.9,228.8,790.3,219.1z"/>
							</g>
						</g>
					</g>
					<g id="XMLID_93_">
						<g id="XMLID_94_">
							<g id="XMLID_95_">
								<path id="XMLID_2460_" class="st8" d="M780.9,311.7c-0.1,0-0.2,0-0.3,0l-22.1-4.5c-0.3-0.1-0.5-0.4-0.5-0.7
									c0.1-0.3,0.4-0.5,0.7-0.5l22.1,4.5c0.3,0.1,0.5,0.4,0.5,0.7C781.2,311.5,781.1,311.6,780.9,311.7z"/>
							</g>
						</g>
					</g>
					<g id="XMLID_96_">
						<g id="XMLID_97_">
							<g id="XMLID_98_">
								<path id="XMLID_2456_" class="st8" d="M762.7,307.4c-0.1,0-0.2,0-0.3,0c-0.3-0.1-0.5-0.4-0.5-0.7c0-0.1,2.4-11.3,2.5-29.3
									c0.1-18.1,5.7-45.2,5.8-45.4c0.1-0.3,0.4-0.5,0.7-0.5c0.3,0.1,0.5,0.4,0.5,0.7c-0.1,0.3-5.6,27.2-5.7,45.2
									c-0.1,18.1-2.5,29.4-2.5,29.5C763.1,307.2,762.9,307.3,762.7,307.4z"/>
							</g>
						</g>
					</g>
				</g>
				<g id="XMLID_99_">
					<g id="XMLID_100_">
						<g id="XMLID_101_">
							<g id="XMLID_102_">
								<g id="XMLID_103_">
									<g id="XMLID_104_">
										<g id="XMLID_105_">
											<g id="XMLID_106_">
												<g id="XMLID_107_">
													<g id="XMLID_108_">
														<g id="XMLID_109_">
															<g id="XMLID_110_">
																<g id="XMLID_111_">
																	<g id="XMLID_112_">
																		<g id="XMLID_113_">
																			<g id="XMLID_114_">
																				<path id="XMLID_115_" class="st6" d="M778.4,153.5c-0.8-1.1-0.2-3.4-0.4-5.2c-0.3-2.4,0.1-6,0.8-8
																					c1.1-3,4.8-11.7,7.2-12.7c2.4-1-0.2,6.7-0.7,8.3c-0.5,1.6-0.3,2.9-0.3,2.9s7.3-17.2,9.4-17.8
																					c2-0.6-1.2,9.6-2,12.2c0,0,6.2-12.7,7.7-12.6c2.8,0.1-3.7,14.4-3.7,14.4s5.8-10.4,7.5-9.4
																					c1.8,1.1-4.5,12.2-4.5,12.2s4.8-6.2,6.6-6c1.8,0.2-7.2,14.1-8.8,16c-1.6,2-5.6,7.6-8.2,9.8
																					C787.4,158.9,781,157,778.4,153.5z"/>
																			</g>
																		</g>
																	</g>
																</g>
															</g>
														</g>
													</g>
												</g>
											</g>
										</g>
									</g>
								</g>
							</g>
						</g>
						<g id="XMLID_116_">
							<g id="XMLID_117_">
								<g id="XMLID_118_">
									<g id="XMLID_119_">
										<g id="XMLID_120_">
											<g id="XMLID_121_">
												<g id="XMLID_122_">
													<g id="XMLID_123_">
														<g id="XMLID_124_">
															<path id="XMLID_2436_" class="st9" d="M798.6,142.1c0.2-0.2,0.2-0.5,0.1-0.7c-3.6-5.1-9.8-5.8-10.1-5.8
																c-0.3,0-0.5,0.2-0.6,0.5c0,0.3,0.2,0.5,0.5,0.6l0,0c0.1,0,6,0.6,9.3,5.3C797.9,142.3,798.3,142.3,798.6,142.1
																C798.5,142.2,798.5,142.1,798.6,142.1z"/>
														</g>
													</g>
												</g>
											</g>
										</g>
									</g>
								</g>
							</g>
						</g>
						<g id="XMLID_125_">
							<g id="XMLID_126_">
								<g id="XMLID_127_">
									<g id="XMLID_128_">
										<g id="XMLID_129_">
											<g id="XMLID_130_">
												<g id="XMLID_131_">
													<g id="XMLID_132_">
														<g id="XMLID_133_">
															<path id="XMLID_2426_" class="st9" d="M788.7,151c0.2-0.1,0.2-0.4,0.1-0.6c-2.2-5.9,1.3-9.3,1.4-9.4
																c0.2-0.2,0.2-0.5,0-0.7c-0.2-0.2-0.5-0.2-0.7,0c0,0,0,0,0,0c-0.2,0.2-4.1,4-1.6,10.5c0.1,0.3,0.4,0.4,0.7,0.3
																C788.6,151,788.6,151,788.7,151z"/>
														</g>
													</g>
												</g>
											</g>
										</g>
									</g>
								</g>
							</g>
						</g>
					</g>
					<g id="XMLID_134_">
						<g id="XMLID_135_">
							<g id="XMLID_136_">
								<path id="XMLID_137_" class="st4" d="M729.4,141.4L729.4,141.4L729.4,141.4C729.3,141.4,729.3,141.4,729.4,141.4
									L729.4,141.4l0.1,0.1l0.1,0.3l0.3,0.6c0.2,0.4,0.4,0.8,0.6,1.2c0.4,0.8,0.8,1.7,1.2,2.5c0.9,1.7,1.8,3.4,2.8,5
									c0.5,0.8,1,1.6,1.5,2.5c0.5,0.8,1.1,1.6,1.6,2.4c0.5,0.8,1.1,1.6,1.7,2.3c0.6,0.8,1.2,1.5,1.8,2.3
									c4.8,5.9,10.4,10.9,16.7,14.8c0.4,0.2,0.8,0.5,1.2,0.7c0.4,0.2,0.8,0.5,1.2,0.7l0.3,0.2c-0.1-0.1-0.3-0.1-0.4-0.2
									c-0.3-0.1-0.6-0.3-1-0.3c-0.3-0.1-0.7-0.2-1-0.2c-0.3,0-0.7,0-0.9,0c-0.6,0-1,0.1-1.2,0.2c-0.2,0.1-0.4,0.1-0.4,0.2
									c0,0,0.3-0.1,0.7-0.5c0.4-0.3,0.9-0.8,1.5-1.3c0.5-0.5,1.1-1.1,1.7-1.8c1.2-1.3,2.3-2.8,3.5-4.3c2.3-3.1,4.6-6.6,6.8-10.1
									c1.1-1.8,2.2-3.6,3.3-5.4c0.5-0.9,1.1-1.8,1.6-2.7l1.5-2.6l18.6,8.5l-0.3,0.9l-0.3,0.8l-0.7,1.6c-0.5,1.1-0.9,2.2-1.4,3.2
									c-1,2.1-2,4.3-3,6.4c-2.1,4.2-4.4,8.4-7.2,12.6c-1.4,2.1-2.9,4.2-4.6,6.3c-0.9,1-1.8,2.1-2.8,3.2c-1,1.1-2.1,2.1-3.5,3.2
									c-1.3,1.1-2.8,2.2-4.8,3.2c-1,0.5-2.1,1-3.4,1.4c-1.3,0.4-2.8,0.7-4.5,0.8c-0.8,0-1.7,0-2.6-0.1c-0.9-0.1-1.8-0.3-2.7-0.5
									c-0.9-0.2-1.7-0.5-2.5-0.9c-0.4-0.2-0.8-0.4-1.2-0.6l-0.4-0.2c-0.6-0.3-1.1-0.6-1.7-1c-0.6-0.3-1.1-0.7-1.7-1
									c-1.1-0.7-2.2-1.4-3.3-2.1c-1.1-0.7-2.1-1.5-3.2-2.3c-1-0.8-2.1-1.6-3.1-2.4c-1-0.8-2-1.7-2.9-2.5
									c-3.8-3.5-7.3-7.3-10.3-11.3c-1.5-2-3-4.1-4.3-6.3c-1.3-2.1-2.6-4.3-3.8-6.6c-0.6-1.1-1.1-2.3-1.7-3.4
									c-0.5-1.1-1-2.3-1.5-3.5c-0.5-1.2-0.9-2.4-1.4-3.6c-0.2-0.6-0.4-1.2-0.6-1.9c-0.1-0.3-0.2-0.6-0.3-1l-0.3-1.2L729.4,141.4z"
									/>
							</g>
						</g>
					</g>
					<g id="XMLID_138_">
						<g id="XMLID_139_">
							<g id="XMLID_140_">
								<g id="XMLID_141_">
									<path id="XMLID_142_" class="st5" d="M760.6,185.7c-0.3,0.1-0.6,0-0.7-0.3c-2.1-4.1-3-9.3-3-9.5c-0.1-0.3,0.2-0.6,0.5-0.7
										c0.3-0.1,0.6,0.2,0.7,0.5c0,0.1,1,5.2,2.9,9.2C761.1,185.1,761,185.5,760.6,185.7C760.7,185.6,760.7,185.7,760.6,185.7z"/>
								</g>
							</g>
						</g>
						<g id="XMLID_143_">
							<g id="XMLID_144_">
								<g id="XMLID_145_">
									<path id="XMLID_146_" class="st5" d="M756,182.3c-0.1,0-0.2,0-0.3,0c-0.3-0.1-0.5-0.4-0.4-0.7c0-0.2,1.1-4.3,1.7-5.7
										c0.1-0.3,0.5-0.4,0.8-0.3c0.3,0.1,0.4,0.5,0.3,0.8c-0.6,1.2-1.6,5.4-1.6,5.4C756.3,182.1,756.2,182.2,756,182.3z"/>
								</g>
							</g>
						</g>
					</g>
					<g id="XMLID_147_">
						<g id="XMLID_148_">
							<g id="XMLID_149_">
								<g id="XMLID_150_">
									<path id="XMLID_151_" class="st5" d="M790.2,166.2c-0.2,0.1-0.4,0-0.5-0.1c-6-3.9-18.2-9.2-18.3-9.3
										c-0.3-0.1-0.4-0.5-0.3-0.8c0.1-0.3,0.5-0.4,0.8-0.3c0.1,0.1,12.5,5.4,18.5,9.4c0.3,0.2,0.4,0.6,0.2,0.8
										C790.5,166.1,790.4,166.2,790.2,166.2z"/>
								</g>
							</g>
						</g>
					</g>
				</g>
				<g id="XMLID_152_">
					<g id="XMLID_153_">
						<g id="XMLID_154_">
							<g id="XMLID_2393_">
								<g id="XMLID_156_">
									<g id="XMLID_157_">
										<path id="XMLID_158_" class="st4" d="M729.5,141.8c1.6,4.8-1,16.4,1.5,37c0.2,1.5,0.4,3.1,0.6,4.7
											c0.2,1.5,0.5,3.1,0.8,4.7c0.3,1.5,0.6,3,0.9,4.6c0.3,1.4,0.6,2.8,0.9,4.3c0.3,1.5,0.7,3,1.1,4.6c0.1,0.4,0.2,0.9,0.4,1.4
											c0,0.1,0.1,0.3,0.1,0.4c0,0.1,0.1,0.2,0.1,0.3c0,0.1,0,0.2,0.1,0.3c0,0.1,0,0.1,0,0.2c0,0.1,0.1,0.2,0.1,0.3
											c0,0,0,0,0,0.1c0,0.1,0.1,0.3,0.1,0.4c0,0,0,0,0,0.1c0,0.1,0.1,0.2,0.1,0.4c0.2,0.6,0.3,1.2,0.5,1.8
											c0,0.2,0.1,0.3,0.1,0.5c0.1,0.2,0.1,0.4,0.2,0.6c0.1,0.4,0.2,0.9,0.3,1.3c0.1,0.2,0.1,0.4,0.2,0.7
											c0.1,0.5,0.3,0.9,0.4,1.4c0,0.1,0,0.2,0.1,0.3c0.3,1.2,0.6,2.3,1,3.6c0.2,0.5,0.3,1.1,0.5,1.7c0.2,0.7,0.4,1.4,0.6,2
											c0.3,1,0.6,2,0.9,3c0.1,0.4,0.2,0.9,0.4,1.3c0.1,0.4,0.2,0.8,0.3,1.2c0.1,0.5,0.3,0.9,0.4,1.4c0.1,0.3,0.2,0.6,0.3,0.9
											c0.1,0.2,0.1,0.4,0.2,0.6c0.1,0.4,0.2,0.8,0.3,1.1c0.1,0.4,0.2,0.7,0.3,1.1c0.1,0.3,0.2,0.5,0.2,0.8
											c0.1,0.2,0.1,0.5,0.2,0.7c0,0.1,0,0.1,0.1,0.2c0,0.1,0.1,0.3,0.1,0.4c0.1,0.3,0.2,0.5,0.3,0.8c0.1,0.3,0.2,0.6,0.3,0.9
											c0.8,2.4,1.6,4.7,2.3,6.7c-5.4,6.2-14.6,11.7-25.4,14.9l-6-3.9l-5,6.4c-10.6,1.5-21.9,0.9-32.3-2.9
											c-3.4-7-9.1-32.9-10.7-40.6c-0.3-1.5-0.6-3.1-0.9-4.6c-1.3-7.4-2-15-2.4-23c0-0.4,0-0.9-0.1-1.3c0-0.1,0-0.1,0-0.2
											c-0.5-6.7-9.2-26.4-8.4-33.5c1.7-14.1,10.7-10.4,18.8-12.5c2.7-0.7,4.9-1.6,6.7-2.5c0.8-0.4,1.5-0.8,2.1-1.1
											c0.3-0.2,0.5-0.3,0.7-0.5c2.5-1.6,3.9-3,3.9-3L706,130c1.8,2.1,4,3.4,6.2,4.2c0.2,0.1,0.5,0.2,0.8,0.3
											c0.4,0.1,0.8,0.2,1.1,0.3C720.6,136.4,727.5,135.5,729.5,141.8z"/>
									</g>
								</g>
							</g>
							<g id="XMLID_155_">
								<g id="XMLID_159_">
									<path id="XMLID_160_" class="st5" d="M683.5,240.5c-0.2,0-0.4-0.1-0.5-0.3c-10-26.9-15.2-73.4-15.3-73.9
										c0-0.3,0.2-0.5,0.4-0.6c0.3,0,0.5,0.2,0.6,0.4c0.1,0.5,5.2,46.8,15.2,73.7c0.1,0.3,0,0.5-0.3,0.6
										C683.6,240.5,683.6,240.5,683.5,240.5z"/>
								</g>
							</g>
							<g id="XMLID_2386_">
								<g id="XMLID_162_">
									<g id="XMLID_163_">
										
											<ellipse id="XMLID_164_" transform="matrix(0.9496 -0.3133 0.3133 0.9496 -9.2615 226.2843)" class="st5" cx="699.3" cy="142" rx="2" ry="1.1"/>
									</g>
								</g>
							</g>
							<g id="XMLID_2382_">
								<g id="XMLID_165_">
									<g id="XMLID_166_">
										
											<ellipse id="XMLID_167_" transform="matrix(0.9496 -0.3134 0.3134 0.9496 -8.1929 228.759)" class="st5" cx="707.5" cy="139.9" rx="2" ry="1.1"/>
									</g>
								</g>
							</g>
							<g id="XMLID_2378_">
								<g id="XMLID_168_">
									<g id="XMLID_169_">
										<path id="XMLID_170_" class="st5" d="M711.8,143.6c-0.2,0-0.4-0.2-0.5-0.4c-0.1-0.3,0.1-0.5,0.4-0.6
											c7.1-1.8,7.5-6.1,7.5-6.2c0-0.3,0.3-0.5,0.5-0.5c0.3,0,0.5,0.3,0.5,0.5c0,0.2-0.5,5.1-8.3,7.1
											C711.8,143.6,711.8,143.6,711.8,143.6z"/>
									</g>
								</g>
							</g>
							<g id="XMLID_161_">
								<g id="XMLID_171_">
									<path id="XMLID_172_" class="st5" d="M722.6,188c-9.4,0-17.6-2.4-23.1-4.6c-6.8-2.7-11-5.7-11.1-5.8
										c-0.2-0.2-0.3-0.5-0.1-0.7c0.2-0.2,0.5-0.3,0.7-0.1c0,0,4.2,3,10.9,5.7c6.2,2.5,15.9,5.2,26.9,4.4c0.3,0,0.5,0.2,0.5,0.5
										c0,0.3-0.2,0.5-0.5,0.5C725.5,187.9,724,188,722.6,188z"/>
								</g>
							</g>
							<g id="XMLID_2371_">
								<g id="XMLID_174_">
									<g id="XMLID_175_">
										<path id="XMLID_176_" class="st5" d="M694.1,205.7c0,0,22.5-5.7,36.6-5.9l4.3,18.6c0,0-22.2,3.7-36.3,6.2L694.1,205.7z"/>
									</g>
								</g>
							</g>
							<g id="XMLID_2367_">
								<g id="XMLID_177_">
									<g id="XMLID_178_">
										<path id="XMLID_179_" class="st5" d="M681.4,148c-4.3,0-7.7-1.2-9.9-2.5c-3.6-2-5.4-4.4-5.4-4.5c-0.2-0.2-0.1-0.5,0.1-0.7
											c0.2-0.2,0.5-0.1,0.7,0.1l0,0c0,0,1.7,2.4,5.1,4.3c3.1,1.7,8.4,3.4,15.8,1.4c0.3-0.1,0.5,0.1,0.6,0.4
											c0.1,0.3-0.1,0.5-0.4,0.6C685.7,147.7,683.5,148,681.4,148z"/>
									</g>
								</g>
							</g>
							<g id="XMLID_173_">
								<g id="XMLID_180_">
									<path id="XMLID_2366_" class="st10" d="M739.1,215.6c-0.3-1.2-0.7-2.4-1-3.6C738.5,213.2,738.8,214.4,739.1,215.6z"/>
								</g>
							</g>
							<g id="XMLID_181_">
								<g id="XMLID_182_">
									<path id="XMLID_2363_" class="st10" d="M737.5,209.7c-0.1-0.4-0.2-0.9-0.3-1.3C737.3,208.8,737.4,209.2,737.5,209.7z"/>
								</g>
							</g>
						</g>
						<g id="XMLID_183_">
							<g id="XMLID_184_">
								<g id="XMLID_185_">
									<path id="XMLID_186_" class="st5" d="M732.5,185.6c0,0-0.1,0-0.1,0c-0.3,0-0.6-0.2-0.7-0.5c-1.1-8.4-2.3-18.4-2.4-21.2
										c0-0.3,0.2-0.6,0.6-0.6c0.3,0,0.6,0.2,0.6,0.6c0.1,2.8,1.3,12.7,2.4,21.1C733,185.3,732.8,185.6,732.5,185.6z"/>
								</g>
							</g>
						</g>
					</g>
					<g id="XMLID_187_">
						<g id="XMLID_188_">
							<g id="XMLID_189_">
								<g id="XMLID_190_">
									<g id="XMLID_191_">
										<g id="XMLID_192_">
											<path id="XMLID_193_" class="st10" d="M710.6,92c0,0,5.8,4.6,2,11.5C712.6,103.6,710.5,95.4,710.6,92z"/>
										</g>
									</g>
								</g>
								<g id="XMLID_194_">
									<g id="XMLID_195_">
										<g id="XMLID_196_">
											<path id="XMLID_197_" class="st10" d="M687.3,123.5c0,0-3.8,3.7-4.5,1c-0.8-2.7,0.5-4,0.5-4s-4.1,3.9-4.1,1
												c-0.1-2.9,2.1-5.6,2.1-5.6s-3.8-2.8-2.5-7.2c1.2-4.4,1.4-7.7,0.2-11.3c-1.2-3.6-0.7-7.4,1.1-9c2.6-2.4,6.4-2,6.4-2
												s2-6.6,9.6-6.4c7.6,0.2,12-5.7,15.8-4.2c3.8,1.5,8.2,14.1-2.1,17.9C709.7,93.5,689.4,107.2,687.3,123.5z"/>
										</g>
									</g>
								</g>
								<g id="XMLID_198_">
									<g id="XMLID_199_">
										<g id="XMLID_200_">
											<g id="XMLID_201_">
												<g id="XMLID_202_">
													<g id="XMLID_203_">
														<g id="XMLID_204_">
															<path id="XMLID_205_" class="st6" d="M706.6,127.1l0.5,4.8c-0.5,0.5-1,1-1.6,1.4c-7.8,5.9-17.4,0.6-17.4,0.6
																l-1.7-16.6l17.8,8.6L706.6,127.1z"/>
														</g>
													</g>
												</g>
											</g>
										</g>
									</g>
									<g id="XMLID_206_">
										<g id="XMLID_207_">
											<g id="XMLID_208_">
												<g id="XMLID_209_">
													<g id="XMLID_210_">
														<g id="XMLID_211_">
															<path id="XMLID_212_" class="st10" d="M706.5,126.6l0.5,5.2c-0.5,0.5-1,1-1.6,1.4c-7.4-2.1-13.3-8.9-13.3-8.9
																l11.9,1.6L706.5,126.6z"/>
														</g>
													</g>
												</g>
											</g>
										</g>
									</g>
								</g>
								<g id="XMLID_213_">
									<g id="XMLID_214_">
										<g id="XMLID_215_">
											<g id="XMLID_216_">
												<g id="XMLID_217_">
													<g id="XMLID_218_">
														<path id="XMLID_2331_" class="st9" d="M710.3,105.2c0,0,2.4-3.5,4.3-0.4c1.9,3,1.4,9.7-2.9,9L710.3,105.2z"/>
													</g>
												</g>
											</g>
										</g>
									</g>
								</g>
								<g id="XMLID_219_">
									<g id="XMLID_220_">
										<g id="XMLID_221_">
											<path id="XMLID_2324_" class="st6" d="M714.4,116.2c0,0,1,9.9-9.2,10.9c-10.2,1-18-6.2-18.4-6.6c0,0,0,0,0,0l-0.3-2.1
												l-1.7-10.7l-0.9-5.7c0,0-2.4-10.2,7.3-13.2c7.1-2.1,13.9-1.6,17.8,1.8c0.1,0.1,0.2,0.2,0.4,0.3c1.2,1.2,2.1,2.8,2.4,4.6
												l1.4,10.3l0.3,2.5L714.4,116.2z"/>
										</g>
									</g>
								</g>
								<g id="XMLID_222_">
									<g id="XMLID_223_">
										<g id="XMLID_224_">
											<path id="XMLID_225_" class="st10" d="M684.7,107.7c0,0,2.3,0.7,3.3,3.5l0,0c1.5-0.2,2.6-1.6,2.3-3.1
												c-0.2-0.9-0.4-1.9-0.6-3.1c-0.7-3.6-1.9-4.7,0.2-6.9c2.1-2.2,0.1-3.5,2-5.1c2.1-1.7,7.1,1.3,10.9,0.6
												c4.4-0.9,4.1-3.9,7.9-0.5c0,0-1-5.2-6.1-6.6c-5-1.4-19.2-0.2-21.4,6.6C681.1,99.8,684.7,107.7,684.7,107.7z"/>
										</g>
									</g>
								</g>
								<g id="XMLID_226_">
									<g id="XMLID_227_">
										<g id="XMLID_228_">
											<g id="XMLID_229_">
												<g id="XMLID_230_">
													<g id="XMLID_231_">
														<path id="XMLID_232_" class="st10" d="M692.8,100.3L692.8,100.3c0.7,1.2,2.2,1.6,3.4,0.9c0.7-0.4,1.5-0.8,2.4-1.1
															c1.2-0.4,1.9-1.8,1.4-3l0,0C700,97.1,694.8,97.2,692.8,100.3z"/>
													</g>
												</g>
											</g>
										</g>
									</g>
								</g>
								<g id="XMLID_233_">
									<g id="XMLID_234_">
										<g id="XMLID_235_">
											<g id="XMLID_236_">
												<g id="XMLID_237_">
													<g id="XMLID_238_">
														<path id="XMLID_239_" class="st10" d="M711.8,98.1L711.8,98.1c-0.4,1.2-1.7,1.9-2.9,1.5c-0.7-0.2-1.5-0.4-2.4-0.5
															c-1.2-0.1-2.1-1.3-1.9-2.5l0,0C704.6,96.6,709.4,95.7,711.8,98.1z"/>
													</g>
												</g>
											</g>
										</g>
									</g>
								</g>
								<g id="XMLID_240_">
									<g id="XMLID_241_">
										<g id="XMLID_242_">
											<g id="XMLID_243_">
												<g id="XMLID_244_">
													<g id="XMLID_245_">
														
															<ellipse id="XMLID_2302_" transform="matrix(0.9946 -0.1039 0.1039 0.9946 -7.5475 72.9652)" class="st9" cx="696.4" cy="108.9" rx="3.3" ry="1.3"/>
													</g>
												</g>
											</g>
										</g>
									</g>
								</g>
								<g id="XMLID_246_">
									<g id="XMLID_247_">
										<g id="XMLID_248_">
											<g id="XMLID_249_">
												<g id="XMLID_250_">
													<g id="XMLID_251_">
														<path id="XMLID_2295_" class="st9" d="M713.3,108.4c-0.3,0.1-0.5,0.1-0.8,0.1c-1.8,0.2-3.4-0.2-3.4-1
															c-0.1-0.7,1.3-1.5,3.2-1.6c0.2,0,0.5,0,0.7,0L713.3,108.4z"/>
													</g>
												</g>
											</g>
										</g>
									</g>
								</g>
								<g id="XMLID_252_">
									<g id="XMLID_253_">
										<g id="XMLID_254_">
											<g id="XMLID_255_">
												<g id="XMLID_256_">
													<g id="XMLID_257_">
														
															<ellipse id="XMLID_258_" transform="matrix(0.9946 -0.1039 0.1039 0.9946 -7.089 73.1682)" class="st10" cx="698.9" cy="104.6" rx="1" ry="1.8"/>
													</g>
												</g>
											</g>
										</g>
									</g>
								</g>
								<g id="XMLID_259_">
									<g id="XMLID_260_">
										<g id="XMLID_261_">
											<g id="XMLID_262_">
												<g id="XMLID_263_">
													<g id="XMLID_264_">
														
															<ellipse id="XMLID_265_" transform="matrix(0.9946 -0.1039 0.1039 0.9946 -6.9287 74.226)" class="st10" cx="708.8" cy="103.6" rx="1" ry="1.8"/>
													</g>
												</g>
											</g>
										</g>
									</g>
								</g>
								<g id="XMLID_266_">
									<g id="XMLID_267_">
										<g id="XMLID_268_">
											<g id="XMLID_269_">
												<g id="XMLID_270_">
													<g id="XMLID_271_">
														<path id="XMLID_272_" class="st10" d="M706.6,113.7c-3.6,0.4-6.9-2.4-6.9-2.5c-0.2-0.1-0.2-0.4,0-0.6
															c0.1-0.2,0.4-0.2,0.6,0c0.2,0.2,5.3,4.5,9.4,0.8c0.2-0.1,0.4-0.1,0.6,0c0.1,0.2,0.1,0.4,0,0.6
															C709,113.1,707.8,113.6,706.6,113.7z"/>
													</g>
												</g>
											</g>
										</g>
									</g>
								</g>
								<g id="XMLID_273_">
									<g id="XMLID_274_">
										<g id="XMLID_275_">
											<g id="XMLID_276_">
												<g id="XMLID_277_">
													<g id="XMLID_278_">
														<path id="XMLID_279_" class="st10" d="M689.5,116.2c0,0.1-1,3.3-2.8,4.3c0,0,0,0,0,0l-0.3-2.1
															C686.4,118.5,688,118,689.5,116.2z"/>
													</g>
												</g>
											</g>
										</g>
									</g>
								</g>
								<g id="XMLID_280_">
									<g id="XMLID_281_">
										<g id="XMLID_282_">
											<g id="XMLID_283_">
												<g id="XMLID_284_">
													<g id="XMLID_285_">
														<path id="XMLID_286_" class="st6" d="M687,109.5c0,0-4.5-4.9-7-0.4c-2,3.7,3.4,12.2,7.8,8.6L687,109.5z"/>
													</g>
												</g>
											</g>
										</g>
									</g>
								</g>
								<g id="XMLID_287_">
									<g id="XMLID_288_">
										<g id="XMLID_289_">
											<g id="XMLID_290_">
												<g id="XMLID_291_">
													<g id="XMLID_292_">
														<path id="XMLID_293_" class="st10" d="M687.1,116.2c-0.2,0-0.4-0.1-0.4-0.3c-0.9-4-4.4-5-4.5-5.1
															c-0.2-0.1-0.3-0.3-0.3-0.5c0.1-0.2,0.3-0.3,0.5-0.3c0.2,0,4.1,1.2,5.1,5.7C687.5,115.9,687.4,116.1,687.1,116.2
															C687.2,116.2,687.2,116.2,687.1,116.2z"/>
													</g>
												</g>
											</g>
										</g>
									</g>
								</g>
								<g id="XMLID_294_">
									<g id="XMLID_295_">
										<g id="XMLID_296_">
											<g id="XMLID_297_">
												<g id="XMLID_298_">
													<g id="XMLID_299_">
														<path id="XMLID_300_" class="st10" d="M683.1,114.1c-0.1,0-0.2,0-0.3-0.1c-0.2-0.2-0.2-0.4,0-0.6
															c0.1-0.1,1.5-1.5,2.7-1.3c0.2,0,0.4,0.2,0.3,0.5c0,0.2-0.2,0.4-0.5,0.3c-0.7-0.1-1.7,0.7-2,1
															C683.3,114,683.2,114.1,683.1,114.1z"/>
													</g>
												</g>
											</g>
										</g>
									</g>
								</g>
								<g id="XMLID_301_">
									<g id="XMLID_302_">
										<g id="XMLID_303_">
											<g id="XMLID_304_">
												<g id="XMLID_305_">
													<g id="XMLID_306_">
														<path id="XMLID_307_" class="st10" d="M704.5,109.1c-0.2,0-0.4-0.1-0.4-0.4c0-0.2,0.1-0.4,0.4-0.4
															c1.5-0.2,2.1-1,2.3-1.4c-2-3.2-3.9-6.4-4-6.4c-0.1-0.2-0.1-0.4,0.1-0.6c0.2-0.1,0.4-0.1,0.6,0.1c0,0,2.1,3.4,4.1,6.6
															c0.1,0.1,0.1,0.2,0,0.3C707.5,107.1,706.9,108.8,704.5,109.1z"/>
													</g>
												</g>
											</g>
										</g>
									</g>
								</g>
							</g>
						</g>
						<g id="XMLID_308_">
							<g id="XMLID_309_">
								<g id="XMLID_310_" class="st11">
									<g id="XMLID_311_">
										<g id="XMLID_312_">
											
												<ellipse id="XMLID_2230_" transform="matrix(0.9982 -6.055096e-002 6.055096e-002 0.9982 -5.1448 42.551)" class="st12" cx="699.5" cy="106.2" rx="5.2" ry="2.5"/>
										</g>
									</g>
								</g>
								<g id="XMLID_313_" class="st11">
									<g id="XMLID_314_">
										<g id="XMLID_315_">
											
												<ellipse id="XMLID_2226_" transform="matrix(0.9982 -6.055867e-002 6.055867e-002 0.9982 -5.0877 43.3521)" class="st12" cx="712.7" cy="105.6" rx="5.2" ry="2.5"/>
										</g>
									</g>
								</g>
								<g id="XMLID_316_">
									<g id="XMLID_317_">
										<g id="XMLID_318_">
											<path id="XMLID_319_" class="st10" d="M707.6,105.9c-0.1,0-0.1,0-0.2-0.1c-1.1-0.9-2.5,0-2.6,0c-0.1,0.1-0.3,0.1-0.4-0.1
												c-0.1-0.1-0.1-0.3,0.1-0.4c0.6-0.4,2.2-1,3.3,0c0.1,0.1,0.1,0.3,0,0.4C707.7,105.9,707.6,105.9,707.6,105.9z"/>
										</g>
									</g>
								</g>
							</g>
							<g id="XMLID_320_">
								<g id="XMLID_321_">
									<path id="XMLID_322_" class="st10" d="M683.5,107.3c-0.1,0-0.2,0-0.2-0.1c-0.1-0.1-0.1-0.3,0.1-0.4
										c4.5-3.5,10.9-1,11.2-0.9c0.2,0.1,0.2,0.2,0.2,0.4c-0.1,0.2-0.2,0.2-0.4,0.2c-0.1,0-6.3-2.5-10.6,0.8
										C683.6,107.3,683.6,107.3,683.5,107.3z"/>
								</g>
							</g>
						</g>
					</g>
				</g>
				<g id="XMLID_323_">
					<g id="XMLID_324_">
						<g id="XMLID_325_">
							<g id="XMLID_326_">
								<path id="XMLID_2211_" class="st8" d="M675,246.4c0,0,1.4,41.4,51.4,24.9c26.7-8.8,38.5-15.6,38.5-15.6s8.4,23.3,12.9,32.9
									c4.5,9.5,17.1,32.8,17.1,32.8l21.5-5.3c0,0-25.1-87.3-40.6-91c-15.5-3.7-34.1,2.2-66.9,9.6C709,234.8,680.4,239.2,675,246.4
									z"/>
							</g>
						</g>
					</g>
					<g id="XMLID_327_">
						<g id="XMLID_328_">
							<g id="XMLID_329_">
								<path id="XMLID_2207_" class="st13" d="M795.5,313.6c-0.3,0.1-0.6,0-0.7-0.3c-7-11.3-13.9-28.3-19.4-42
									c-2.3-5.8-4.4-10.7-6-14.5c-2.3-5-3.2-6-3.6-6.2c-1.5-0.7-6.6,1.6-13.1,4.5c-9.3,4.2-23.4,10.6-39.8,14
									c-8.4,1.7-15.7,0.6-21.6-3.4c-10.6-7.1-13.2-20.6-13.3-21.1c-0.1-0.3,0.2-0.6,0.5-0.7c0.3-0.1,0.6,0.2,0.7,0.5
									c0,0.1,2.6,13.5,12.8,20.4c5.7,3.8,12.6,4.9,20.7,3.2c16.2-3.4,30.2-9.7,39.5-13.9c7.5-3.4,12-5.4,14-4.5
									c1.9,0.8,4.8,7.9,10.2,21.3c5.5,13.7,12.4,30.7,19.3,41.8c0.2,0.3,0.1,0.7-0.2,0.8C795.6,313.6,795.6,313.6,795.5,313.6z"/>
							</g>
						</g>
					</g>
					<g id="XMLID_330_">
						<g id="XMLID_331_">
							<g id="XMLID_332_">
								<path id="XMLID_2203_" class="st13" d="M813.9,309.5C813.9,309.5,813.8,309.5,813.9,309.5l-21.8,5.8
									c-0.3,0.1-0.7-0.1-0.7-0.4c-0.1-0.3,0.1-0.7,0.4-0.7l21.8-5.8c0.3-0.1,0.7,0.1,0.7,0.4C814.3,309.1,814.2,309.4,813.9,309.5
									z"/>
							</g>
						</g>
					</g>
				</g>
				<g id="XMLID_333_">
					<g id="XMLID_334_">
						<g id="XMLID_335_">
							<g id="XMLID_336_">
								<path id="XMLID_337_" class="st10" d="M724.1,236.6l66.1-6.2c0.1,0,0.2-0.1,0.2-0.3l-0.8-8.2c0-0.1-0.1-0.2-0.3-0.2
									l-66.1,6.2c-0.1,0-0.2,0.1-0.2,0.3l0.8,8.2C723.8,236.6,723.9,236.6,724.1,236.6z"/>
							</g>
						</g>
					</g>
					<g id="XMLID_338_">
						<g id="XMLID_339_">
							<g id="XMLID_340_">
								<path id="XMLID_2194_" class="st10" d="M797.3,229.7c2.5-0.2,4.5-2.1,5-4.6l8-47.8c0.5-2.9-1.9-5.5-4.9-5.2l-29.8,2.8
									c-2,0.2-3.6,1.7-4,3.7l-9.9,54.5L797.3,229.7z"/>
							</g>
						</g>
					</g>
					<g id="XMLID_341_">
						<g id="XMLID_342_">
							<g id="XMLID_343_">
								<path id="XMLID_2188_" class="st4" d="M777.9,220.1l-0.5,2.2l2-0.2l-0.4,2.6l-2.3,0.2l-0.6,2.4l-2.7,0.2l0.6-2.4l-1.7,0.1
									l-0.6,2.4l-2.7,0.2l0.6-2.4l-2,0.2l0.4-2.6l2.3-0.2l0.5-2.2l-2,0.2l0.4-2.6l2.3-0.2l0.6-2.4l2.7-0.2l-0.6,2.4l1.7-0.1
									l0.6-2.4l2.7-0.2l-0.6,2.4l2-0.2l-0.4,2.6L777.9,220.1z M775.2,220.3l-1.7,0.1l-0.5,2.2l1.7-0.1L775.2,220.3z"/>
							</g>
						</g>
					</g>
					<g id="XMLID_344_">
						<g id="XMLID_345_">
							<g id="XMLID_346_">
								<g id="XMLID_347_">
									<g id="XMLID_348_">
										<path id="XMLID_349_" class="st2" d="M806.6,185.2c-0.7,3.1-3.5,5.8-6.3,6.1s-4.5-2.1-3.8-5.2c0.7-3.1,3.5-5.8,6.3-6.1
											C805.6,179.8,807.3,182.1,806.6,185.2z"/>
									</g>
								</g>
							</g>
						</g>
						<g id="XMLID_350_">
							<g id="XMLID_351_">
								<g id="XMLID_352_">
									<g id="XMLID_353_">
										<g id="XMLID_354_">
											<path id="XMLID_2179_" class="st10" d="M801,184.7c-0.1,0.6-0.4,1.1-0.7,1.2c-0.2,0-0.3-0.5-0.2-1.1
												c0.1-0.6,0.4-1.1,0.7-1.2C801,183.6,801.1,184,801,184.7z"/>
										</g>
									</g>
								</g>
							</g>
							<g id="XMLID_355_">
								<g id="XMLID_356_">
									<g id="XMLID_357_">
										<g id="XMLID_358_">
											<path id="XMLID_2174_" class="st10" d="M803.6,184.4c-0.1,0.6-0.4,1.1-0.7,1.2c-0.2,0-0.3-0.5-0.2-1.1
												c0.1-0.6,0.4-1.1,0.7-1.2C803.7,183.3,803.7,183.8,803.6,184.4z"/>
										</g>
									</g>
								</g>
							</g>
						</g>
						<g id="XMLID_359_">
							<g id="XMLID_360_">
								<g id="XMLID_361_">
									<g id="XMLID_362_">
										<path id="XMLID_2168_" class="st10" d="M801,188.4c-2.2,0.2-2.1-2.2-2.1-2.2c0-0.1,0.1-0.3,0.2-0.3c0.1,0,0.2,0,0.2,0.2
											c0,0.1,0,2,1.8,1.9c1.8-0.2,2.7-2.2,2.7-2.3c0.1-0.1,0.2-0.2,0.3-0.2c0.1,0,0.2,0.1,0.1,0.3
											C804.2,185.8,803.2,188.2,801,188.4z"/>
									</g>
								</g>
							</g>
						</g>
					</g>
					<g id="XMLID_363_">
						<g id="XMLID_364_">
							<g id="XMLID_365_">
								<path id="XMLID_2162_" class="st10" d="M771.6,178.6l-9.8,54l-3.4,0.3l9.8-54c0.4-2,2-3.5,4-3.7l3.4-0.3
									C773.6,175.1,772,176.6,771.6,178.6z"/>
							</g>
						</g>
						<g id="XMLID_366_">
							<g id="XMLID_367_">
								<path id="XMLID_368_" class="st14" d="M762.1,232.3C762.1,232.3,762.1,232.3,762.1,232.3c-0.4-0.1-0.5-0.3-0.5-0.6l9.7-53.9
									c0-0.3,0.3-0.5,0.6-0.4c0.3,0,0.5,0.3,0.4,0.6l-9.7,53.9C762.6,232.1,762.4,232.3,762.1,232.3z"/>
							</g>
						</g>
					</g>
					<g id="XMLID_369_">
						<g id="XMLID_370_">
							<g id="XMLID_371_">
								<path id="XMLID_2155_" class="st14" d="M782.5,203.5c-0.4,3,1.6,5.2,4.6,4.9c2.9-0.3,5.6-2.9,6-5.9c0.4-3-1.6-5.2-4.6-4.9
									C785.6,197.8,782.9,200.5,782.5,203.5z"/>
							</g>
						</g>
					</g>
				</g>
				<g id="XMLID_372_">
					<g id="XMLID_373_">
						<g id="XMLID_374_">
							<g id="XMLID_375_">
								<path id="XMLID_376_" class="st6" d="M740.7,216.5c0,0,15.5-3.5,20.9-0.9l-1.9,9.8c0,0-8.7-0.6-10.8,0.4
									c-2,1-2.2,4.9-10,5.2L740.7,216.5z"/>
							</g>
						</g>
					</g>
					<g id="XMLID_377_">
						<g id="XMLID_378_">
							<g id="XMLID_379_">
								<path id="XMLID_380_" class="st4" d="M739,214.5l-1.8-0.3l-3.7-0.6c-2.4-0.4-4.9-0.8-7.3-1.3c-4.8-0.9-9.7-1.9-14.4-2.9
									c-2.4-0.5-4.7-1.1-7-1.7c-2.3-0.6-4.5-1.3-6.7-2c-2.1-0.7-4.2-1.5-5.8-2.3c-0.8-0.4-1.6-0.8-2.1-1.1c0,0,0,0,0,0l-0.1-0.1
									c-0.3-0.4-0.5-0.9-0.8-1.4c-0.5-0.9-1-1.8-1.5-2.8c-0.9-1.9-1.8-3.8-2.5-5.8c-1.5-4-2.6-8.2-3.4-12.5
									c-0.4-2.1-0.7-4.3-0.9-6.5c-0.2-2.2-0.4-4.4-0.5-6.6c-0.1-2.2-0.1-4.4,0-6.6c0-1.1,0.1-2.2,0.2-3.2c0-0.5,0.1-1.1,0.1-1.6
									l0.1-0.7l0.1-0.5l-25.1-3.9l-0.1,0.5l0,0.3l-0.1,0.6l-0.1,1.2c-0.1,0.8-0.1,1.5-0.2,2.2c-0.1,1.5-0.2,2.9-0.2,4.3
									c-0.1,2.9,0,5.7,0.1,8.6c0.3,5.7,1.1,11.4,2.3,17c0.3,1.4,0.7,2.8,1,4.2c0.4,1.4,0.8,2.8,1.2,4.2c0.9,2.8,1.9,5.5,3,8.2
									c1.1,2.5,2.3,4.9,3.6,7.3c0.1,0.2,0.2,0.4,0.3,0.6c0.7,1.3,1.5,2.6,2.3,3.8c0.4,0.6,0.8,1.3,1.2,1.9l0.3,0.5l0.2,0.2
									l0.3,0.5c0.6,0.8,1.1,1.5,1.7,2c0.5,0.6,1.1,1.1,1.6,1.5c0.5,0.4,1,0.8,1.5,1.2c0.9,0.7,1.8,1.2,2.7,1.7
									c1.2,0.7,2.3,1.2,3.4,1.7c0.5,0.2,0.9,0.4,1.3,0.6c1.5,0.6,2.9,1.1,4.3,1.6c1.4,0.5,2.8,0.9,4.2,1.2c2.7,0.7,5.4,1.4,8,1.9
									c2.6,0.6,5.3,1,7.9,1.5c5.2,0.9,10.4,1.5,15.6,2.1c2.6,0.3,5.2,0.5,7.8,0.7c1.3,0.1,2.6,0.2,3.9,0.3l2,0.1l2,0.1l1.9-19.6
									L739,214.5z M689.8,201.9C689.8,201.9,689.8,201.9,689.8,201.9c0,0,0.1,0,0.2,0.1c0,0,0.1,0.1,0.1,0.1
									C690,202.1,689.9,202,689.8,201.9z"/>
							</g>
						</g>
					</g>
					<g id="XMLID_381_">
						<g id="XMLID_382_">
							<path id="XMLID_383_" class="st5" d="M681.9,224.2c-1.1-0.5-2.2-1-3.4-1.7c-0.8-0.5-1.7-1-2.7-1.7c-0.5-0.3-1-0.7-1.5-1.2
								c-0.5-0.4-1-0.9-1.6-1.5c-0.5-0.6-1.1-1.2-1.7-2l-0.3-0.5l-0.2-0.2l-0.3-0.5c-0.4-0.6-0.8-1.2-1.2-1.9
								c-0.8-1.3-1.6-2.5-2.3-3.8c-0.1-0.2-0.2-0.4-0.3-0.6c0.1,0,0.1-0.1,0.2-0.1C666.7,208.6,682.9,208.8,681.9,224.2z"/>
						</g>
					</g>
					<g id="XMLID_384_">
						<g id="XMLID_385_">
							<g id="XMLID_386_">
								<path id="XMLID_387_" class="st5" d="M715.7,232.8c-0.1,0-0.2,0-0.2,0c-0.2,0-20.5-2-31.9-7.3
									c-11.5-5.4-16.8-15.6-17.1-16.1c-0.2-0.3,0-0.7,0.3-0.8c0.3-0.2,0.7,0,0.8,0.3c0.1,0.1,5.4,10.3,16.5,15.5
									c11.2,5.3,31.3,7.2,31.5,7.2c0.3,0,0.6,0.3,0.5,0.7C716.1,232.5,715.9,232.7,715.7,232.8z"/>
							</g>
						</g>
					</g>
					<g id="XMLID_388_">
						<g id="XMLID_389_">
							<g id="XMLID_390_">
								<g id="XMLID_391_">
									<path id="XMLID_392_" class="st5" d="M682.9,209.4c-0.2,0.1-0.4,0-0.6-0.1c-0.2-0.2-0.3-0.6,0-0.9c2.8-3,6.9-6,7-6.1
										c0.3-0.2,0.6-0.1,0.8,0.1c0.2,0.3,0.1,0.6-0.1,0.8c0,0-4.1,3.1-6.9,6C683.1,209.3,683,209.3,682.9,209.4z"/>
								</g>
							</g>
						</g>
						<g id="XMLID_393_">
							<g id="XMLID_394_">
								<g id="XMLID_395_">
									<path id="XMLID_396_" class="st5" d="M689.6,203.5C689.6,203.5,689.6,203.5,689.6,203.5c-2.5,0.5-5.6,1.5-5.6,1.6
										c-0.3,0.1-0.7-0.1-0.8-0.4c-0.1-0.3,0.1-0.7,0.4-0.8c0,0,0,0,0,0c0.1,0,3.2-1.1,5.7-1.6c0.3-0.1,0.6,0.1,0.7,0.5
										C690.1,203.1,689.9,203.4,689.6,203.5z"/>
								</g>
							</g>
						</g>
					</g>
					<g id="XMLID_397_">
						<g id="XMLID_398_">
							<g id="XMLID_399_">
								<g id="XMLID_400_">
									<path id="XMLID_2124_" class="st5" d="M684.2,188.8C684.2,188.8,684.2,188.8,684.2,188.8c-0.3,0.1-0.7-0.1-0.8-0.4
										c-0.2-0.8-5.6-19.1-5.6-28.3c0-0.3,0.3-0.6,0.6-0.6c0.3,0,0.6,0.3,0.6,0.6c0,9,5.5,27.8,5.6,27.9
										C684.7,188.4,684.5,188.7,684.2,188.8z"/>
								</g>
							</g>
						</g>
						<g id="XMLID_401_">
							<g id="XMLID_402_">
								<g id="XMLID_403_">
									<path id="XMLID_404_" class="st5" d="M679,165.8c-0.2,0.1-0.4,0-0.5-0.1c-0.3-0.2-0.4-0.5-0.2-0.8l2-3.1
										c0.2-0.3,0.5-0.4,0.8-0.2c0.3,0.2,0.4,0.5,0.2,0.8l-2,3.1C679.2,165.7,679.1,165.8,679,165.8z"/>
								</g>
							</g>
						</g>
					</g>
					<g id="XMLID_405_">
						<g id="XMLID_406_">
							<g id="XMLID_407_">
								<g id="XMLID_408_">
									<g id="XMLID_409_">
										<path id="XMLID_410_" class="st5" d="M729.5,233.5c-0.1,0-0.2,0-0.3,0c-0.3,0-0.6-0.3-0.5-0.7l2.1-19
											c0-0.3,0.3-0.6,0.7-0.5c0.3,0,0.6,0.3,0.5,0.7l-2.1,19C729.9,233.3,729.7,233.5,729.5,233.5z"/>
									</g>
								</g>
							</g>
						</g>
					</g>
				</g>
				<g id="XMLID_411_">
					<path id="XMLID_412_" class="st12" d="M713.7,203.4c-0.2,0-0.4-0.1-0.5-0.3c-5.8-17.4-14.2-60.7-14.3-61.1
						c-0.1-0.3,0.1-0.5,0.4-0.6c0.3-0.1,0.5,0.1,0.6,0.4c0.1,0.4,8.5,43.6,14.3,61c0.1,0.3-0.1,0.5-0.3,0.6
						C713.8,203.4,713.7,203.4,713.7,203.4z"/>
				</g>
				<g id="XMLID_413_">
					<path id="XMLID_414_" class="st12" d="M726.1,201.8c-0.2,0-0.5-0.2-0.5-0.4c-3.5-25.9-18.3-60.7-18.5-61
						c-0.1-0.3,0-0.5,0.3-0.7c0.3-0.1,0.5,0,0.7,0.3c0.1,0.3,15,35.3,18.6,61.3C726.7,201.5,726.5,201.7,726.1,201.8
						C726.2,201.8,726.2,201.8,726.1,201.8z"/>
				</g>
				<g id="XMLID_415_">
					<path id="XMLID_416_" class="st12" d="M690.4,269.2c-1.1,0-2.2-0.4-3.4-1.1c-4.3-2.7-9.4-10.8-11.3-22.8c0-0.3,0.1-0.5,0.4-0.6
						c0.3,0,0.5,0.1,0.6,0.4c1.9,11.7,6.8,19.6,10.9,22.1c1.4,0.9,2.7,1.1,3.8,0.8c0.9-0.3,1.6-0.9,2.1-1.9
						c3.6-6.7-2.6-26.9-2.7-27.1c-0.1-0.3,0.1-0.5,0.3-0.6c0.3-0.1,0.5,0.1,0.6,0.3c0.3,0.8,6.4,20.8,2.6,27.8
						c-0.6,1.2-1.5,2-2.7,2.3C691.2,269.2,690.8,269.2,690.4,269.2z"/>
				</g>
			</g>
		</g>
		<g id="XMLID_417_">
			<g id="XMLID_418_">
				<g id="XMLID_419_">
					<g id="XMLID_420_">
						<path id="XMLID_421_" class="st2" d="M662.6,333.3c-0.1,0.6-0.3,1.1-0.5,1.7c-1.2,3.6-3.3,6.5-6.3,7.7
							c-11.1,4.5-21.6,3-42.9,2.5c-21.3-0.5-37.2-6.1-35.2-23.7c0.2-1.4,0.4-2.7,0.8-3.9c0.5-1.6,1.1-3,1.9-4.3c0,0,0,0,0,0
							c0.9-1.5,2-2.9,3.1-4c6-6.1,15-8.1,23.1-5.3c8,2.7,22.1,4.1,36.7,4.3C659.1,308.6,665,323.3,662.6,333.3z"/>
					</g>
				</g>
				<g id="XMLID_422_">
					<g id="XMLID_423_">
						<g id="XMLID_424_">
							<path id="XMLID_425_" class="st3" d="M662.6,333.3c-0.1,0.6-0.3,1.1-0.5,1.7c-3.8,3.3-10.9,5.4-21.2,6.2
								c-3.2,0.3-6.8,0.4-10.6,0.4c-8.9,0-19.2-0.7-30.5-2c-9.6-1.1-16-4.5-19.2-10c-2.4-4.1-2.5-8.6-2-12c0.5-1.6,1.1-3,1.9-4.3
								c-0.8,2.5-2.6,9.8,0.9,15.9c3.1,5.3,9.3,8.5,18.6,9.6C633.4,342.7,656.2,340.7,662.6,333.3z"/>
						</g>
					</g>
				</g>
				<g id="XMLID_426_">
					<g id="XMLID_427_">
						<path id="XMLID_428_" class="st3" d="M598.9,311.6c-6.5,0.5-11.4,6.5-10.3,13c0,0.1,0,0.3,0.1,0.4c1.4,7.1,10.9,6.9,37.3,7.1
							c20.7,0.2,31.3-7.2,25.8-16.3C647.4,308.5,612.9,310.5,598.9,311.6z"/>
					</g>
				</g>
			</g>
			<g id="XMLID_429_">
				<g id="XMLID_430_">
					<g id="XMLID_431_">
						<path id="XMLID_2089_" class="st10" d="M648.8,316.9c-9.6,12-48.8,12.6-54,3.7c-2.5-4.4-1.8-10-0.4-14.5
							c0.1-0.5,0.3-1,0.5-1.4c1.4-4.1,3.2-7.1,3.2-7.1s-0.2,4.3,14.3,2.7c1.7-0.2,3.5-0.2,5.5-0.2c0.4,0,0.8,0,1.1,0
							C634.6,300.5,657.1,306.6,648.8,316.9z"/>
					</g>
				</g>
				<g id="XMLID_432_">
					<g id="XMLID_433_">
						<g id="XMLID_434_">
							<g id="XMLID_435_">
								<path id="XMLID_436_" class="st2" d="M617.3,309.8c-2.3,2.5-6.2,3.5-11.4,2.8c-0.1,0-0.2,0-0.3-0.1c-6.5-1-9.7-4.1-11.2-6.4
									c0.1-0.5,0.3-1,0.5-1.4c1.1,2.1,4,5.8,11.2,6.8c4.8,0.7,8.4-0.2,10.4-2.4c1.8-2,2.3-5.1,1.4-9c0.4,0,0.8,0,1.1,0
									C619.9,304.2,619.3,307.6,617.3,309.8z"/>
							</g>
						</g>
					</g>
				</g>
				<g id="XMLID_437_">
					<g id="XMLID_438_">
						<path id="XMLID_2081_" class="st10" d="M643.3,308.2c0,0,9.2-0.7,10.3-5.3c1.1-4.6-20-0.6-22.4-10.1c-2.3-9.6,7-17.2,10-14.4
							c3.6,3.3-4.3,4.7-4.7,9.6c-0.4,4.1,2.2,7.9,10,8.4c7.9,0.6,11.4,1.8,11.3,5.4c0,4-6.4,8.1-10.3,8.3
							C643.9,310.5,643.3,308.2,643.3,308.2z"/>
					</g>
				</g>
				<g id="XMLID_439_">
					<g id="XMLID_440_">
						<g id="XMLID_441_">
							<g id="XMLID_442_">
								<path id="XMLID_2078_" class="st10" d="M602.9,294c0,0-2.7-3.6-7.2-5.9c-0.6-0.3-1.4,0.2-1.3,0.9l0.8,8.1
									C595.3,297.1,601.6,297.7,602.9,294z"/>
							</g>
						</g>
						<g id="XMLID_443_">
							<g id="XMLID_444_">
								<path id="XMLID_2075_" class="st14" d="M596.8,296.2c-0.4-1.8-0.5-3.8-0.9-6c0,0,4.8,2.9,5.1,4.4
									C601,294.6,598.4,296.6,596.8,296.2z"/>
							</g>
						</g>
					</g>
					<g id="XMLID_445_">
						<g id="XMLID_446_">
							<g id="XMLID_447_">
								<path id="XMLID_2071_" class="st10" d="M611.3,294.3c0,0,3.8-2.3,8.7-2.9c0.8-0.1,1.4,0.7,1,1.5l-3.4,6.7
									C617.6,299.6,611.1,298.2,611.3,294.3z"/>
							</g>
						</g>
						<g id="XMLID_448_">
							<g id="XMLID_449_">
								<path id="XMLID_2068_" class="st14" d="M616.2,298.6c1-1.6,1.8-3.4,3-5.2c0,0-5.5,0.9-6.4,2.3
									C612.8,295.6,614.6,298.4,616.2,298.6z"/>
							</g>
						</g>
					</g>
					<g id="XMLID_450_">
						<g id="XMLID_451_">
							<path id="XMLID_2064_" class="st10" d="M599.4,294.1c0,0-5.7,0.9-5.3,7.5c0.4,6.7,6.9,7.4,6.9,7.4s1.2,2.1,5.2,3
								c2.6,0.6,6.4,0.4,7.4-1.5c0,0,5.6-2,5.5-7C619,298,612.3,291.3,599.4,294.1z"/>
						</g>
					</g>
				</g>
				<g id="XMLID_452_">
					<g id="XMLID_453_">
						<path id="XMLID_2060_" class="st10" d="M593.6,309.9c0,0,2.3,9.5,4.3,11.4c1.9,2,4.1,3,6.8,3.3c4.4,0.5,3.6,3.4,2.3,4.4
							c-1.5,1.2-4.2,0.5-8.2,0.5c-3.5,0-6.7-0.7-7.9-3c-1.2-2.3-1.1-9,0.2-12.8C591.7,311.4,592.8,310.2,593.6,309.9z"/>
					</g>
				</g>
				<g id="XMLID_454_">
					<g id="XMLID_455_">
						<path id="XMLID_2057_" class="st10" d="M623,310.5c0,0-2.3,9.5-4.3,11.4c-1.9,2-4.1,2.9-6.8,3.3c-3.3,0.5-3,3.6-2.3,4.4
							c1.3,1.4,4.2,0.5,8.2,0.5c3.5,0,7.6-1.4,8.8-3.7c1.2-2.3,0.3-8.3-1-12.1C624.9,312.1,623.8,310.8,623,310.5z"/>
					</g>
				</g>
				<g id="XMLID_456_">
					<g id="XMLID_457_">
						<path id="XMLID_2054_" class="st10" d="M642.4,308.6c0,0,6.1-1.5,8.1,3.1c3.1,7.3,0.6,11.4-7.6,12.5
							c-8.3,1.2-17.7,2.7-10.6-3.2C639.4,315.3,642.4,308.6,642.4,308.6z"/>
					</g>
				</g>
				<g id="XMLID_458_">
					<g id="XMLID_459_">
						<g id="XMLID_460_">
							<path id="XMLID_2051_" class="st14" d="M609.5,304.9c0,0-2.5-0.3-3.1,0c-1.1,0.5,0.7,2.6,1.8,2.7c1.1,0.2,2.2-1.1,2.2-2
								C610.3,304.8,609.5,304.9,609.5,304.9z"/>
						</g>
					</g>
				</g>
				<g id="XMLID_461_">
					<g id="XMLID_462_">
						<path id="XMLID_2047_" class="st14" d="M610.7,303c-0.1-0.1-0.2,0.1-0.2,0.2c0.5,0.6,1.4,1.4,2.6,1.1c1-0.2,1.4-0.9,1.5-1.5
							c0-0.1-0.2-0.2-0.2-0.1c-0.3,0.5-0.8,0.9-1.8,1C612,303.7,611.2,303.3,610.7,303z"/>
					</g>
				</g>
				<g id="XMLID_463_">
					<g id="XMLID_464_">
						<path id="XMLID_2044_" class="st14" d="M601.2,302.5c-0.1-0.1-0.3,0-0.2,0.2c0.4,0.7,1.1,1.6,2.4,1.6c1,0,1.5-0.7,1.8-1.2
							c0.1-0.1-0.1-0.2-0.2-0.1c-0.3,0.4-0.9,0.8-1.9,0.6C602.3,303.4,601.6,302.9,601.2,302.5z"/>
					</g>
				</g>
			</g>
		</g>
	</g>
	<g id="XMLID_1655_">
		<g id="XMLID_466_">
			<g id="XMLID_467_">
				<g id="XMLID_468_">
					<g id="XMLID_469_">
						<g id="XMLID_470_">
							<path id="XMLID_471_" class="st12" d="M859.4,47.8c0,2.1,0,2.1,0,2.1v55.5c0,1.5-1.2,2.7-2.7,2.7h-97.5
								c-1.5,0-2.7-1.2-2.7-2.7V47.8c0-1.5,1.2-2.7,2.7-2.7h97.5C858.2,45,859.4,46.3,859.4,47.8z"/>
						</g>
					</g>
				</g>
			</g>
			<g id="XMLID_472_">
				<g id="XMLID_479_">
					<g>
						<g id="XMLID_1234_">
							<g id="XMLID_1235_">
								<g id="XMLID_1236_">
									<path id="XMLID_1238_" class="st15" d="M799.5,80.4c0,4.7-1.8,8.9-4.7,12.2c-3.3,3.7-8.1,6-13.5,6
										c-10,0-18.1-8.1-18.1-18.1c0-2.5,0.5-4.9,1.4-7l16.7,7l-0.9-18.1c0.3,0,0.6,0,0.9,0C791.3,62.3,799.5,70.4,799.5,80.4z"/>
								</g>
							</g>
						</g>
					</g>
				</g>
				<g id="XMLID_484_">
					<g id="XMLID_485_">
						<g id="XMLID_486_">
							<g id="XMLID_487_">
								<path id="XMLID_490_" class="st16" d="M778.7,59.3c-5.4,0.3-10.2,2.9-13.4,6.9c-1,1.3-1.9,2.7-2.5,4.2l16.7,7L778.7,59.3z"
									/>
							</g>
						</g>
					</g>
				</g>
			</g>
			<g id="XMLID_491_">
				<g id="XMLID_492_">
					<g id="XMLID_493_">
						<g id="XMLID_494_">
							<g id="XMLID_495_">
								<g id="XMLID_496_">
									<rect id="XMLID_499_" x="840.6" y="67.9" class="st15" width="2.5" height="2.5"/>
								</g>
							</g>
						</g>
					</g>
					<g id="XMLID_500_">
						<g id="XMLID_501_">
							<g id="XMLID_502_">
								<path id="XMLID_503_" class="st17" d="M853.7,69.5h-8.9c0,0,0,0,0,0v-0.6c0,0,0,0,0,0h8.9c0,0,0,0,0,0L853.7,69.5
									C853.8,69.5,853.8,69.5,853.7,69.5z"/>
							</g>
						</g>
					</g>
				</g>
				<g id="XMLID_504_">
					<g id="XMLID_505_">
						<g id="XMLID_506_">
							<g id="XMLID_507_">
								<g id="XMLID_508_">
									<rect id="XMLID_509_" x="840.6" y="63.5" class="st18" width="2.5" height="2.5"/>
								</g>
							</g>
						</g>
					</g>
					<g id="XMLID_510_">
						<g id="XMLID_511_">
							<g id="XMLID_512_">
								<g id="XMLID_513_">
									<path id="XMLID_514_" class="st17" d="M853.7,65h-8.9c0,0,0,0,0,0v-0.6c0,0,0,0,0,0h8.9c0,0,0,0,0,0L853.7,65
										C853.8,65,853.8,65,853.7,65z"/>
								</g>
							</g>
						</g>
					</g>
				</g>
				<g id="XMLID_515_">
					<g id="XMLID_516_">
						<g id="XMLID_517_">
							<g id="XMLID_518_">
								<g id="XMLID_519_">
									<rect id="XMLID_522_" x="840.6" y="72.3" class="st16" width="2.5" height="2.5"/>
								</g>
							</g>
						</g>
					</g>
					<g id="XMLID_523_">
						<g id="XMLID_524_">
							<g id="XMLID_525_">
								<g id="XMLID_526_">
									<path id="XMLID_527_" class="st17" d="M853.7,73.9h-8.9c0,0,0,0,0,0v-0.6c0,0,0,0,0,0h8.9c0,0,0,0,0,0L853.7,73.9
										C853.8,73.9,853.8,73.9,853.7,73.9z"/>
								</g>
							</g>
						</g>
					</g>
				</g>
				<g id="XMLID_528_">
					<g id="XMLID_529_">
						<g id="XMLID_530_">
							<g id="XMLID_531_">
								<g id="XMLID_532_">
									<path id="XMLID_533_" class="st17" d="M853.5,82.6H841c-0.2,0-0.3-0.1-0.3-0.3l0,0c0-0.2,0.1-0.3,0.3-0.3h12.5
										c0.2,0,0.3,0.1,0.3,0.3l0,0C853.8,82.5,853.6,82.6,853.5,82.6z"/>
								</g>
							</g>
						</g>
					</g>
					<g id="XMLID_534_">
						<g id="XMLID_535_">
							<g id="XMLID_536_">
								<g id="XMLID_537_">
									<path id="XMLID_538_" class="st17" d="M853.5,85.2H841c-0.2,0-0.3-0.1-0.3-0.3l0,0c0-0.2,0.1-0.3,0.3-0.3h12.5
										c0.2,0,0.3,0.1,0.3,0.3l0,0C853.8,85.1,853.6,85.2,853.5,85.2z"/>
								</g>
							</g>
						</g>
					</g>
					<g id="XMLID_539_">
						<g id="XMLID_540_">
							<g id="XMLID_541_">
								<g id="XMLID_542_">
									<path id="XMLID_543_" class="st17" d="M853.5,87.8H841c-0.2,0-0.3-0.1-0.3-0.3l0,0c0-0.2,0.1-0.3,0.3-0.3h12.5
										c0.2,0,0.3,0.1,0.3,0.3l0,0C853.8,87.6,853.6,87.8,853.5,87.8z"/>
								</g>
							</g>
						</g>
					</g>
					<g id="XMLID_544_">
						<g id="XMLID_545_">
							<g id="XMLID_546_">
								<g id="XMLID_547_">
									<path id="XMLID_548_" class="st17" d="M853.5,90.3H841c-0.2,0-0.3-0.1-0.3-0.3l0,0c0-0.2,0.1-0.3,0.3-0.3h12.5
										c0.2,0,0.3,0.1,0.3,0.3l0,0C853.8,90.2,853.6,90.3,853.5,90.3z"/>
								</g>
							</g>
						</g>
					</g>
					<g id="XMLID_549_">
						<g id="XMLID_550_">
							<g id="XMLID_551_">
								<g id="XMLID_552_">
									<path id="XMLID_553_" class="st17" d="M853.5,92.9H841c-0.2,0-0.3-0.1-0.3-0.3l0,0c0-0.2,0.1-0.3,0.3-0.3h12.5
										c0.2,0,0.3,0.1,0.3,0.3l0,0C853.8,92.7,853.6,92.9,853.5,92.9z"/>
								</g>
							</g>
						</g>
					</g>
					<g id="XMLID_554_">
						<g id="XMLID_555_">
							<g id="XMLID_556_">
								<g id="XMLID_557_">
									<path id="XMLID_558_" class="st17" d="M853.5,95.5H841c-0.2,0-0.3-0.1-0.3-0.3l0,0c0-0.2,0.1-0.3,0.3-0.3h12.5
										c0.2,0,0.3,0.1,0.3,0.3l0,0C853.8,95.3,853.6,95.5,853.5,95.5z"/>
								</g>
							</g>
						</g>
					</g>
					<g id="XMLID_559_">
						<g id="XMLID_560_">
							<g id="XMLID_561_">
								<g id="XMLID_562_">
									<path id="XMLID_563_" class="st17" d="M853.5,98H841c-0.2,0-0.3-0.1-0.3-0.3l0,0c0-0.2,0.1-0.3,0.3-0.3h12.5
										c0.2,0,0.3,0.1,0.3,0.3l0,0C853.8,97.9,853.6,98,853.5,98z"/>
								</g>
							</g>
						</g>
					</g>
				</g>
			</g>
			<g id="XMLID_564_">
				<g id="XMLID_565_">
					<g id="XMLID_566_">
						<g id="XMLID_567_">
							<path id="XMLID_568_" class="st10" d="M859.4,47.8c0,2.1,0,2.1,0,2.1v2.7H756.5v-4.8c0-1.5,1.2-2.7,2.7-2.7h97.5
								C858.2,45,859.4,46.3,859.4,47.8z"/>
						</g>
					</g>
				</g>
			</g>
			<g id="XMLID_569_">
				<g id="XMLID_570_">
					<g id="XMLID_571_">
						<g id="XMLID_572_">
							<g id="XMLID_573_">
								<g id="XMLID_574_">
									<g id="XMLID_575_">
										<g id="XMLID_576_">
											<circle id="XMLID_577_" class="st16" cx="847.3" cy="48.8" r="1.3"/>
										</g>
									</g>
								</g>
							</g>
						</g>
					</g>
				</g>
				<g id="XMLID_578_">
					<g id="XMLID_579_">
						<g id="XMLID_580_">
							<g id="XMLID_581_">
								<g id="XMLID_582_">
									<g id="XMLID_583_">
										<g id="XMLID_584_">
											<circle id="XMLID_587_" class="st15" cx="851.4" cy="48.8" r="1.3"/>
										</g>
									</g>
								</g>
							</g>
						</g>
					</g>
				</g>
				<g id="XMLID_588_">
					<g>
						<g id="XMLID_1268_">
							<g id="XMLID_1270_">
								<g id="XMLID_1271_">
									<g id="XMLID_1272_">
										<g id="XMLID_1273_">
											<g id="XMLID_1274_">
												<g id="XMLID_1276_">
													<circle class="st18" cx="855.3" cy="48.8" r="1.3"/>
												</g>
											</g>
										</g>
									</g>
								</g>
							</g>
						</g>
					</g>
				</g>
			</g>
			<g id="XMLID_598_">
				<g id="XMLID_599_">
					<g id="XMLID_600_">
						<path id="XMLID_601_" class="st18" d="M799.5,80.4c0,4.7-1.8,8.9-4.7,12.2l-13.5-12.2l-0.9-18.1c0.3,0,0.6,0,0.9,0
							C791.3,62.3,799.5,70.4,799.5,80.4z"/>
					</g>
				</g>
			</g>
			<g id="XMLID_602_">
				<g id="XMLID_603_">
					<g id="XMLID_604_">
						<g id="XMLID_605_">
							<g id="XMLID_606_">
								<g id="XMLID_607_">
									<g id="XMLID_608_">
										<rect id="XMLID_611_" x="817.1" y="75.8" class="st15" width="5.8" height="24.7"/>
									</g>
								</g>
							</g>
						</g>
						<g id="XMLID_612_">
							<g id="XMLID_613_">
								<g id="XMLID_614_">
									<g id="XMLID_615_">
										<path id="XMLID_616_" class="st18" d="M817.1,94c2-0.6,4-1.8,5.8-3v9.5h-5.8V94z"/>
									</g>
								</g>
							</g>
						</g>
					</g>
					<g id="XMLID_617_">
						<g id="XMLID_618_">
							<g id="XMLID_619_">
								<g id="XMLID_620_">
									<g id="XMLID_621_">
										<rect id="XMLID_624_" x="807.7" y="82.7" class="st15" width="5.8" height="17.9"/>
									</g>
								</g>
							</g>
						</g>
						<g id="XMLID_625_">
							<g id="XMLID_626_">
								<g id="XMLID_627_">
									<g id="XMLID_628_">
										<path id="XMLID_629_" class="st18" d="M812.4,94.5c0.4,0.1,0.7,0.1,1.1,0.1v6h-5.8v-6C808.7,94.3,810.2,94.1,812.4,94.5z"
											/>
									</g>
								</g>
							</g>
						</g>
					</g>
					<g id="XMLID_630_">
						<g id="XMLID_631_">
							<g id="XMLID_632_">
								<g id="XMLID_633_">
									<g id="XMLID_634_">
										<rect id="XMLID_637_" x="826.6" y="68.4" class="st15" width="5.8" height="32.1"/>
									</g>
								</g>
							</g>
						</g>
						<g id="XMLID_638_">
							<g id="XMLID_639_">
								<g id="XMLID_640_">
									<g id="XMLID_641_">
										<path id="XMLID_642_" class="st18" d="M832.3,86v14.5h-5.8V88.5C828.6,87.1,830.5,86,832.3,86z"/>
									</g>
								</g>
							</g>
						</g>
					</g>
				</g>
				<g id="XMLID_643_">
					<g id="XMLID_644_">
						<g id="XMLID_645_">
							<g id="XMLID_646_">
								<path id="XMLID_649_" class="st2" d="M832.1,59.1l-5.2,1.1l1.4,1.4l-8,8.1l-2.8-2.7L807.6,77c-0.4,0.4-0.4,1,0,1.4l0,0
									c0.4,0.4,1,0.4,1.4,0l8.5-8.7l2.8,2.7l9.3-9.5l1.4,1.4L832.1,59.1z"/>
							</g>
						</g>
					</g>
				</g>
			</g>
		</g>
		<g id="XMLID_650_">
			<g id="XMLID_651_">
				<g id="XMLID_652_">
					<g id="XMLID_653_">
						<g id="XMLID_654_">
							
								<rect id="XMLID_1852_" x="618.1" y="104.3" transform="matrix(-1.441821e-003 -1 1 -1.441821e-003 508.5761 756.1499)" class="st15" width="27.5" height="39.8"/>
						</g>
					</g>
				</g>
				<g id="XMLID_655_">
					<g id="XMLID_657_">
						<g id="XMLID_658_">
							<g id="XMLID_659_">
								<polygon id="XMLID_1848_" class="st18" points="611.9,110.4 611.9,112.2 631.8,129.8 651.7,112.2 651.7,110.4 631.8,128.1 
																	"/>
							</g>
						</g>
					</g>
				</g>
				<g id="XMLID_660_">
					<g id="XMLID_661_">
						<g id="XMLID_662_">
							<g id="XMLID_663_">
								<g id="XMLID_664_">
									<polygon id="XMLID_665_" class="st18" points="635.6,124.6 650.6,137.9 651.7,137.9 651.7,137.2 636.5,123.7 									"/>
								</g>
							</g>
						</g>
					</g>
				</g>
				<g id="XMLID_666_">
					<g id="XMLID_667_">
						<g id="XMLID_668_">
							<g id="XMLID_669_">
								<g id="XMLID_670_">
									<polygon id="XMLID_671_" class="st18" points="612,137.3 612,137.9 613.2,137.9 628.1,124.6 627.2,123.7 									"/>
								</g>
							</g>
						</g>
					</g>
				</g>
				<g id="XMLID_677_">
					<g>
						<g id="XMLID_806_">
							<g id="XMLID_1227_">
								<g id="XMLID_1228_">
									<polygon id="XMLID_1229_" class="st15" points="651.7,110.4 631.8,128.1 611.9,110.4 									"/>
								</g>
							</g>
						</g>
					</g>
				</g>
			</g>
			<g id="XMLID_681_">
				<g id="XMLID_682_">
					<circle id="XMLID_1817_" class="st16" cx="649.8" cy="111.8" r="8.6"/>
				</g>
				<g id="XMLID_683_">
					<g id="XMLID_685_">
						<path id="XMLID_686_" class="st12" d="M648,115.9L648,115.9c-0.2,0-0.4-0.1-0.6-0.2l-2.1-2.1c-0.3-0.3-0.3-0.9,0-1.2
							c0.3-0.3,0.9-0.3,1.2,0l1.5,1.5l5.9-5.9c0.3-0.3,0.9-0.3,1.2,0c0.3,0.3,0.3,0.9,0,1.2l-6.5,6.5
							C648.5,115.8,648.3,115.9,648,115.9z"/>
					</g>
				</g>
			</g>
		</g>
		<g id="XMLID_687_">
			<g id="XMLID_688_">
				<g id="XMLID_689_">
					<g id="XMLID_690_">
						<g id="XMLID_691_">
							<g id="XMLID_692_">
								<path id="XMLID_693_" class="st12" d="M878.5,220.2v-97.6c0-1.5-1.2-2.7-2.7-2.7h-49.4c-1.5,0-2.7,1.2-2.7,2.7v97.6
									c0,3,2.4,5.5,5.5,5.5H873C876,225.6,878.5,223.2,878.5,220.2z"/>
							</g>
						</g>
					</g>
					<g id="XMLID_694_">
						<g id="XMLID_695_">
							<g id="XMLID_696_">
								<g id="XMLID_697_">
									<path id="XMLID_698_" class="st17" d="M870.3,194h-36.5c-0.7,0-1.2-0.5-1.2-1.2l0,0c0-0.7,0.5-1.2,1.2-1.2h36.5
										c0.7,0,1.2,0.5,1.2,1.2l0,0C871.5,193.5,871,194,870.3,194z"/>
								</g>
							</g>
						</g>
						<g id="XMLID_699_">
							<g id="XMLID_700_">
								<g id="XMLID_701_">
									<g id="XMLID_702_">
										<path id="XMLID_703_" class="st17" d="M870.3,201.6h-36.5c-0.7,0-1.2-0.5-1.2-1.2l0,0c0-0.7,0.5-1.2,1.2-1.2h36.5
											c0.7,0,1.2,0.5,1.2,1.2l0,0C871.5,201.1,871,201.6,870.3,201.6z"/>
									</g>
								</g>
							</g>
						</g>
						<g id="XMLID_704_">
							<g id="XMLID_705_">
								<g id="XMLID_706_">
									<g id="XMLID_707_">
										<path id="XMLID_708_" class="st17" d="M870.3,209.3h-36.5c-0.7,0-1.2-0.5-1.2-1.2l0,0c0-0.7,0.5-1.2,1.2-1.2h36.5
											c0.7,0,1.2,0.5,1.2,1.2l0,0C871.5,208.7,871,209.3,870.3,209.3z"/>
									</g>
								</g>
							</g>
						</g>
						<g id="XMLID_709_">
							<g id="XMLID_710_">
								<g id="XMLID_711_">
									<g id="XMLID_712_">
										<path id="XMLID_1792_" class="st17" d="M870.3,216.9h-36.5c-0.7,0-1.2-0.5-1.2-1.2l0,0c0-0.7,0.5-1.2,1.2-1.2h36.5
											c0.7,0,1.2,0.5,1.2,1.2l0,0C871.5,216.4,871,216.9,870.3,216.9z"/>
									</g>
								</g>
							</g>
						</g>
					</g>
					<g id="XMLID_713_">
						<g id="XMLID_714_">
							<g id="XMLID_715_">
								<path id="XMLID_716_" class="st10" d="M878.5,122.6v7.5h-54.8v-7.5c0-1.5,1.2-2.7,2.7-2.7h49.4
									C877.3,119.9,878.5,121.1,878.5,122.6z"/>
							</g>
						</g>
					</g>
				</g>
				<g id="XMLID_717_">
					<g id="XMLID_718_">
						<g>
							<g id="XMLID_776_">
								<g id="XMLID_784_">
									<circle id="XMLID_793_" class="st16" cx="863.4" cy="124.5" r="1.8"/>
								</g>
							</g>
						</g>
					</g>
					<g id="XMLID_722_">
						<g id="XMLID_723_">
							<g id="XMLID_724_">
								<circle id="XMLID_727_" class="st15" cx="869.2" cy="124.5" r="1.8"/>
							</g>
						</g>
					</g>
					<g id="XMLID_728_">
						<g id="XMLID_729_">
							<g id="XMLID_730_">
								<g id="XMLID_731_">
									<circle id="XMLID_734_" class="st18" cx="874.7" cy="124.5" r="1.8"/>
								</g>
							</g>
						</g>
					</g>
				</g>
			</g>
			<g id="XMLID_735_">
				<g id="XMLID_736_">
					<g id="XMLID_737_">
						<g id="XMLID_738_">
							<g id="XMLID_739_">
								<rect id="XMLID_1760_" x="834.6" y="171.8" class="st15" width="6.2" height="14.9"/>
							</g>
						</g>
					</g>
				</g>
				<g id="XMLID_740_">
					<g id="XMLID_742_">
						<g id="XMLID_743_">
							<g id="XMLID_744_">
								<g id="XMLID_745_">
									<rect id="XMLID_746_" x="843.6" y="161.3" class="st18" width="6.2" height="25.5"/>
								</g>
							</g>
						</g>
					</g>
				</g>
				<g id="XMLID_747_">
					<g id="XMLID_748_">
						<g id="XMLID_749_">
							<g id="XMLID_750_">
								<rect id="XMLID_1747_" x="853.7" y="153.5" class="st15" width="6.2" height="33.3"/>
							</g>
						</g>
					</g>
				</g>
				<g id="XMLID_751_">
					<g id="XMLID_753_">
						<g id="XMLID_754_">
							<g id="XMLID_755_">
								<g id="XMLID_756_">
									<rect id="XMLID_759_" x="863.6" y="144.3" class="st16" width="6.2" height="42.4"/>
								</g>
							</g>
						</g>
					</g>
				</g>
				<g id="XMLID_760_">
					<g id="XMLID_761_">
						<g id="XMLID_762_">
							<g id="XMLID_763_">
								<polygon id="XMLID_1734_" class="st17" points="858.4,137.8 862.6,139.4 862.2,134.4 								"/>
							</g>
						</g>
					</g>
				</g>
				<g id="XMLID_764_">
					<g id="XMLID_765_">
						<g id="XMLID_766_">
							<g id="XMLID_767_">
								<g id="XMLID_768_">
									<path id="XMLID_769_" class="st17" d="M832.9,164.6c-0.2,0-0.4-0.1-0.4-0.3c-0.1-0.2,0-0.5,0.3-0.6
										c0.2-0.1,18.7-7.2,27.8-26.3c0.1-0.2,0.4-0.3,0.6-0.2c0.2,0.1,0.3,0.4,0.2,0.6c-9.2,19.4-28.1,26.7-28.3,26.7
										C833,164.6,832.9,164.6,832.9,164.6z"/>
								</g>
							</g>
						</g>
					</g>
				</g>
			</g>
		</g>
		<g id="XMLID_770_">
			<g id="XMLID_771_">
				<g id="XMLID_772_">
					<g id="XMLID_773_">
						<g id="XMLID_774_">
							<path id="XMLID_1719_" class="st15" d="M623.1,61.6v15.2c0,2,1.6,3.6,3.6,3.6h27.6l8.3,3c0.9,0.3,1.7-0.5,1.3-1.4l-3.2-8.2
								V61.6c0-2-1.6-3.6-3.6-3.6h-30.5C624.7,57.9,623.1,59.6,623.1,61.6z"/>
						</g>
					</g>
				</g>
			</g>
			<g id="XMLID_775_">
				<g id="XMLID_777_">
					<g id="XMLID_778_">
						<g id="XMLID_779_">
							<circle id="XMLID_1714_" class="st18" cx="649.7" cy="69.6" r="2.6"/>
						</g>
					</g>
				</g>
				<g id="XMLID_780_">
					<g id="XMLID_781_">
						<g id="XMLID_782_">
							<circle id="XMLID_1708_" class="st18" cx="641.4" cy="69.6" r="2.6"/>
						</g>
					</g>
				</g>
				<g id="XMLID_783_">
					<g id="XMLID_785_">
						<g id="XMLID_786_">
							<circle id="XMLID_1704_" class="st18" cx="633" cy="69.6" r="2.6"/>
						</g>
					</g>
				</g>
			</g>
		</g>
		<g id="XMLID_787_">
			<g id="XMLID_788_">
				<g id="XMLID_789_">
					<g id="XMLID_790_">
						<g id="XMLID_791_">
							<g id="XMLID_792_">
								<path id="XMLID_795_" class="st16" d="M688.7,61.6h-13.2c-0.8,0-1.5-0.7-1.5-1.5V46.9c0-0.8,0.7-1.5,1.5-1.5h13.2
									c0.8,0,1.5,0.7,1.5,1.5V60C690.2,60.9,689.5,61.6,688.7,61.6z"/>
							</g>
						</g>
					</g>
				</g>
				<g id="XMLID_796_">
					<g id="XMLID_797_">
						<g id="XMLID_798_">
							<g id="XMLID_799_">
								<path id="XMLID_1691_" class="st12" d="M686.7,50.1c0-0.1-0.1-0.2-0.1-0.3c-0.1-0.4-0.3-0.7-0.6-1c-0.2-0.2-0.4-0.4-0.7-0.6
									c-0.3-0.2-0.7-0.1-1,0.2c-0.5,0.5-0.9,1.1-1.3,1.6c-0.3,0.3-0.2,0.8,0.1,1.1c0.2,0.2,0.5,0.4,0.8,0.6c0,0,0.1,0,0.1,0.1
									c-0.6,1.6-1.6,2.9-3.1,3.8c-0.2-0.1-0.4-0.3-0.5-0.5c-0.1-0.1-0.2-0.2-0.3-0.2c-0.3-0.2-0.6-0.2-0.9,0
									c-0.1,0.1-0.2,0.2-0.3,0.2c-0.4,0.5-0.8,1-1.2,1.5c-0.1,0.2-0.2,0.3-0.2,0.5c0,0.1,0,0.1,0,0.2c0.1,0.1,0.1,0.3,0.2,0.4
									c0.2,0.2,0.5,0.5,0.8,0.6c0.4,0.2,0.8,0.3,1.2,0.2c0.3,0,0.5-0.1,0.8-0.2c0.7-0.2,1.3-0.5,1.8-0.9c0.6-0.4,1.1-0.8,1.5-1.3
									c0.6-0.7,1.2-1.4,1.7-2.1c0.4-0.6,0.7-1.2,1-1.9c0.1-0.3,0.2-0.7,0.2-1.1c0-0.1,0-0.3,0-0.4
									C686.7,50.4,686.7,50.3,686.7,50.1z"/>
							</g>
						</g>
					</g>
				</g>
			</g>
			<g id="XMLID_800_">
				<g id="XMLID_801_">
					<g id="XMLID_802_">
						<g id="XMLID_803_">
							<g id="XMLID_804_">
								<path id="XMLID_807_" class="st1" d="M712.6,61.5h-13.7c-0.8,0-1.4-0.6-1.4-1.4V46.4c0-0.8,0.6-1.4,1.4-1.4h13.7
									c0.8,0,1.4,0.6,1.4,1.4v13.7C713.9,60.9,713.3,61.5,712.6,61.5z"/>
							</g>
						</g>
					</g>
				</g>
				<g id="XMLID_808_">
					<g id="XMLID_809_">
						<g id="XMLID_810_">
							<g id="XMLID_811_">
								<path id="XMLID_812_" class="st12" d="M711,53c0,2.1-1.2,3.1-2.5,3.1c-0.8,0-1.4-0.3-1.7-0.9c-0.3,0.6-0.8,0.9-1.6,0.9
									c-1.2,0-2.3-1-2.3-2.7c0-1.7,1.1-2.7,2.3-2.7c0.6,0,1,0.2,1.3,0.5v-0.4h2.1v3.1c0,0.5,0.2,0.6,0.4,0.6
									c0.3,0,0.5-0.3,0.5-1.5c0-1.9-1.5-3.3-3.7-3.3c-2.2,0-3.7,1.5-3.7,3.6c0,2.1,1.5,3.6,3.6,3.6c0.7,0,1.4-0.1,2.2-0.5l0.5,1.3
									c-0.6,0.3-1.7,0.5-2.6,0.5c-3.2,0-5.3-2.2-5.3-5c0-2.8,2.1-5,5.4-5C708.9,48.3,711,50.4,711,53z M706.5,53.4
									c0-0.6-0.3-1-0.8-1c-0.4,0-0.8,0.3-0.8,1c0,0.7,0.3,1,0.8,1C706.1,54.4,706.5,54.1,706.5,53.4z"/>
							</g>
						</g>
					</g>
				</g>
			</g>
			<g id="XMLID_815_">
				<g id="XMLID_816_">
					<g id="XMLID_817_">
						<g id="XMLID_818_">
							<g id="XMLID_819_">
								<g id="XMLID_820_">
									<g id="XMLID_821_">
										<path id="XMLID_822_" class="st18" d="M734.8,61.5H721c-0.8,0-1.4-0.6-1.4-1.4V46.4c0-0.8,0.6-1.4,1.4-1.4h13.7
											c0.8,0,1.4,0.6,1.4,1.4v13.7C736.1,60.9,735.5,61.5,734.8,61.5z"/>
									</g>
								</g>
							</g>
						</g>
					</g>
				</g>
				<g id="XMLID_823_">
					<g id="XMLID_824_">
						<g id="XMLID_825_">
							<g id="XMLID_826_">
								<path id="XMLID_1662_" class="st12" d="M728.8,57.1l0,1.2l-1.5,0l0-1.1c-1.1-0.1-2.1-0.4-2.7-0.8l0.8-1.8
									c0.7,0.4,1.6,0.7,2.4,0.7c0.7,0,1-0.1,1-0.4c0-0.9-4.1-0.2-4.1-3c0-1.2,0.9-2.2,2.6-2.4l0-1.2l1.5,0l0,1.1
									c0.8,0.1,1.5,0.3,2.1,0.6l-0.8,1.8c-0.7-0.4-1.4-0.6-2.1-0.6c-0.7,0-1,0.2-1,0.5c0,0.9,4.1,0.2,4.1,2.9
									C731.2,55.8,730.4,56.8,728.8,57.1z"/>
							</g>
						</g>
					</g>
				</g>
			</g>
		</g>
	</g>
	<g id="XMLID_465_">
		<g id="XMLID_827_">
			<g id="XMLID_828_">
				<g id="XMLID_829_">
					<g id="XMLID_830_">
						<ellipse id="XMLID_831_" class="st1" cx="525.9" cy="338" rx="51" ry="4.2"/>
					</g>
				</g>
			</g>
			<g id="XMLID_832_">
				<g id="XMLID_833_">
					<g id="XMLID_834_">
						<g id="XMLID_835_">
							<g id="XMLID_836_">
								<path id="XMLID_837_" class="st19" d="M556.8,302.3h-63.6c-0.4,0-0.7-0.3-0.7-0.7v-3.7c0-0.4,0.3-0.7,0.7-0.7h63.6
									c0.4,0,0.7,0.3,0.7,0.7v3.7C557.5,302,557.2,302.3,556.8,302.3z"/>
							</g>
						</g>
					</g>
				</g>
				<g id="XMLID_838_">
					<g id="XMLID_839_">
						<g id="XMLID_840_">
							<g id="XMLID_841_">
								<g id="XMLID_842_">
									<path id="XMLID_843_" class="st20" d="M495.3,240.1h59.5c1,0,1.8,0.8,1.8,1.8v7.3c0,1-0.8,1.8-1.8,1.8h-59.5
										c-1,0-1.8-0.8-1.8-1.8v-7.3C493.5,240.9,494.3,240.1,495.3,240.1z"/>
								</g>
							</g>
						</g>
					</g>
				</g>
				<g id="XMLID_844_">
					<g id="XMLID_845_">
						<g id="XMLID_846_">
							<g id="XMLID_847_">
								<g id="XMLID_848_">
									<g id="XMLID_849_">
										<g id="XMLID_850_">
											<g id="XMLID_851_">
												<g id="XMLID_852_">
													<g id="XMLID_853_">
														<path id="XMLID_854_" class="st8" d="M524.4,211.7h-5.8c0,0-0.3-0.6-0.8-1.6c-0.2-0.5-0.5-1.1-0.8-1.8
															c-0.8-1.7-1.9-4.1-3.1-6.9c0,0,0,0,0-0.1c-7.8-17.3-21.8-51-16.1-57.7c6.5-7.6,14.2,3.8,19.9,25.3
															c0.4,1.5,0.8,3,1.1,4.6c2,8.7,3.7,18.7,4.9,29.7c0.2,1.6,0.3,3.3,0.5,5C524.3,209.5,524.3,210.6,524.4,211.7z"/>
													</g>
												</g>
											</g>
										</g>
									</g>
								</g>
							</g>
							<g id="XMLID_855_">
								<g id="XMLID_856_">
									<path id="XMLID_857_" class="st7" d="M524.1,208.3l-1.7,3.4h-3.7c0,0-0.3-0.6-0.8-1.6l-0.2-41.1
										C520.5,179.9,522.8,193.4,524.1,208.3z"/>
								</g>
							</g>
							<g id="XMLID_858_">
								<g id="XMLID_859_">
									<g id="XMLID_860_">
										<g id="XMLID_861_">
											<g id="XMLID_862_">
												<g id="XMLID_863_">
													<g id="XMLID_864_">
														<g id="XMLID_865_">
															<path id="XMLID_866_" class="st7" d="M522.6,211.7h-0.9l-18.2-59.6c-0.1-0.2,0.1-0.5,0.3-0.6
																c0.2-0.1,0.5,0.1,0.6,0.3L522.6,211.7z"/>
														</g>
													</g>
												</g>
											</g>
										</g>
									</g>
								</g>
							</g>
						</g>
						<g id="XMLID_867_">
							<g id="XMLID_868_">
								<g id="XMLID_869_">
									<g id="XMLID_870_">
										<g id="XMLID_871_">
											<g id="XMLID_872_">
												<g id="XMLID_873_">
													<g id="XMLID_874_">
														<path id="XMLID_875_" class="st8" d="M539.2,199.6c-0.4,1-0.8,1.9-1.2,2.8c-1.1,2.4-2,4.4-2.7,5.9
															c-1,2.2-1.6,3.4-1.6,3.4h-5.8c0.1-1.2,0.2-2.3,0.3-3.4c0.1-1.6,0.3-3.2,0.5-4.7c1.1-10.7,2.7-20.5,4.7-29.1
															c0.3-1.3,0.6-2.6,0.9-3.9c5.7-22.5,13.6-34.6,20.3-26.9C560,150.2,547.1,181.9,539.2,199.6z"/>
													</g>
												</g>
											</g>
										</g>
									</g>
								</g>
							</g>
							<g id="XMLID_876_">
								<g id="XMLID_877_">
									<path id="XMLID_1610_" class="st7" d="M528.1,208.3l1.7,3.4h3.7c0,0,0.3-0.6,0.8-1.6l0.2-41.1
										C531.8,179.9,529.5,193.4,528.1,208.3z"/>
								</g>
							</g>
							<g id="XMLID_878_">
								<g id="XMLID_879_">
									<g id="XMLID_880_">
										<g id="XMLID_881_">
											<g id="XMLID_882_">
												<g id="XMLID_883_">
													<g id="XMLID_884_">
														<g id="XMLID_885_">
															<path id="XMLID_1607_" class="st7" d="M529.7,211.7h0.9l18.2-59.6c0.1-0.2-0.1-0.5-0.3-0.6c-0.2-0.1-0.5,0.1-0.6,0.3
																L529.7,211.7z"/>
														</g>
													</g>
												</g>
											</g>
										</g>
									</g>
								</g>
							</g>
						</g>
						<g id="XMLID_886_">
							<g id="XMLID_887_">
								<g id="XMLID_888_">
									<g id="XMLID_889_">
										<g id="XMLID_890_">
											<g id="XMLID_891_">
												<g id="XMLID_892_">
													<g id="XMLID_893_">
														<path id="XMLID_894_" class="st8" d="M533.3,174.5c-0.8,11.4-1.9,22.1-2.7,29c-0.6,5.1-1,8.2-1,8.2h-5.1
															c-0.6-2.9-1.2-5.7-1.7-8.5c-1.9-10.4-3.2-20.4-4-29.6c-3-35.3,1.7-59.3,10.3-52.9
															C535.3,125.3,534.9,151.4,533.3,174.5z"/>
													</g>
												</g>
											</g>
										</g>
									</g>
								</g>
							</g>
							<g id="XMLID_895_">
								<g id="XMLID_896_">
									<path id="XMLID_897_" class="st7" d="M538,202.4c-1.1,2.4-2,4.4-2.7,5.9c-1,2.2-1.6,3.4-1.6,3.4h-15c0,0-0.3-0.6-0.8-1.6
										c-0.2-0.5-0.5-1.1-0.8-1.8c-0.8-1.7-1.9-4.1-3.1-6.9c1.8,0.5,5,1.3,8.9,1.8c0.3,0,0.6,0.1,0.9,0.1c1.6,0.2,3.2,0.2,4.9,0.2
										c0.6,0,1.3,0,2-0.1C533,203.4,535.5,203.1,538,202.4z"/>
								</g>
							</g>
							<g id="XMLID_898_">
								<g id="XMLID_899_">
									<g id="XMLID_900_">
										<g id="XMLID_901_">
											<g id="XMLID_902_">
												<g id="XMLID_903_">
													<g id="XMLID_904_">
														<g id="XMLID_905_">
															<path id="XMLID_906_" class="st7" d="M526.6,131.7l-0.6,80H525l0.6-80c0-0.2,0.2-0.4,0.5-0.4
																C526.4,131.3,526.6,131.5,526.6,131.7z"/>
														</g>
													</g>
												</g>
											</g>
										</g>
									</g>
								</g>
							</g>
						</g>
					</g>
					<g id="XMLID_907_">
						<g id="XMLID_908_">
							<g id="XMLID_909_">
								<path id="XMLID_910_" class="st4" d="M552.3,211.1l-0.7,2l-0.5,1.3l-1.4,3.6l-0.5,1.3l-1.4,3.7l-0.5,1.3l-6,15.9h-32.7
									l-6-15.9l-0.5-1.3l-1.4-3.7l-0.5-1.3l-1.4-3.6l-0.5-1.3l-0.7-2c-0.5-1.4,0.5-2.8,1.9-2.8h50.6
									C551.8,208.3,552.8,209.8,552.3,211.1z"/>
							</g>
						</g>
					</g>
					<g id="XMLID_911_">
						<g id="XMLID_912_">
							<g id="XMLID_913_">
								<g id="XMLID_914_">
									<g id="XMLID_915_">
										<g id="XMLID_916_">
											<g id="XMLID_917_">
												<polygon id="XMLID_918_" class="st5" points="551.5,213.1 551,214.4 499,214.4 498.6,213.1 												"/>
											</g>
										</g>
									</g>
								</g>
							</g>
						</g>
						<g id="XMLID_919_">
							<g id="XMLID_920_">
								<g id="XMLID_921_">
									<g id="XMLID_922_">
										<g id="XMLID_923_">
											<g id="XMLID_924_">
												<polygon id="XMLID_925_" class="st5" points="549.7,218 549.2,219.2 500.9,219.2 500.4,218 												"/>
											</g>
										</g>
									</g>
								</g>
							</g>
						</g>
						<g id="XMLID_926_">
							<g id="XMLID_927_">
								<g id="XMLID_928_">
									<g id="XMLID_929_">
										<g id="XMLID_930_">
											<g id="XMLID_931_">
												<polygon id="XMLID_932_" class="st5" points="547.8,222.9 547.3,224.2 502.7,224.2 502.3,222.9 												"/>
											</g>
										</g>
									</g>
								</g>
							</g>
						</g>
					</g>
				</g>
				<g id="XMLID_933_">
					<g id="XMLID_934_">
						<g id="XMLID_935_">
							<polygon id="XMLID_936_" class="st21" points="516.3,250.9 514.5,256.8 489.3,338 484.3,338 500.3,258.4 501.8,250.9 							
								"/>
						</g>
					</g>
				</g>
				<g id="XMLID_937_">
					<g id="XMLID_938_">
						<g id="XMLID_939_">
							<g id="XMLID_940_">
								<polygon id="XMLID_941_" class="st19" points="501.8,250.9 516.3,250.9 514.5,256.8 500.3,258.4 								"/>
							</g>
						</g>
					</g>
				</g>
				<g id="XMLID_942_">
					<g id="XMLID_943_">
						<g id="XMLID_944_">
							<polygon id="XMLID_945_" class="st21" points="565.9,338 560.9,338 535,254.4 533.9,250.9 548.4,250.9 548.7,252.8 
								548.7,252.8 							"/>
						</g>
					</g>
				</g>
				<g id="XMLID_946_">
					<g id="XMLID_947_">
						<g id="XMLID_948_">
							<g id="XMLID_949_">
								<g id="XMLID_950_">
									<polygon id="XMLID_951_" class="st19" points="548.7,252.8 535,254.4 533.9,250.9 548.4,250.9 									"/>
								</g>
							</g>
						</g>
					</g>
				</g>
				<g id="XMLID_952_">
					<g id="XMLID_953_">
						<g id="XMLID_954_">
							<g id="XMLID_955_">
								<g id="XMLID_956_">
									<path id="XMLID_1226_" class="st20" d="M555.2,291.1h-60.4c-1.3,0-2.3-1-2.3-2.3v-0.5c0-1.3,1-2.3,2.3-2.3h60.4
										c1.3,0,2.3,1,2.3,2.3v0.5C557.5,290.1,556.5,291.1,555.2,291.1z"/>
								</g>
							</g>
						</g>
					</g>
				</g>
			</g>
		</g>
		<g id="XMLID_957_">
			<g id="XMLID_958_">
				<g id="XMLID_959_">
					<g id="XMLID_960_">
						<g id="XMLID_961_">
							<g id="XMLID_962_">
								<g id="XMLID_963_">
									<g id="XMLID_964_">
										<circle id="XMLID_1521_" class="st22" cx="912.2" cy="76.4" r="22.8"/>
									</g>
								</g>
							</g>
						</g>
					</g>
				</g>
				<g id="XMLID_965_">
					<g id="XMLID_966_">
						<g id="XMLID_967_">
							<g id="XMLID_968_">
								<g id="XMLID_969_">
									<g id="XMLID_970_">
										<circle id="XMLID_1514_" class="st4" cx="912.2" cy="73.4" r="22.8"/>
									</g>
								</g>
							</g>
						</g>
					</g>
				</g>
				<g id="XMLID_971_">
					<g id="XMLID_972_">
						<g id="XMLID_973_">
							<g id="XMLID_974_">
								<g id="XMLID_975_">
									<g id="XMLID_976_">
										<g id="XMLID_977_">
											<path id="XMLID_1507_" class="st12" d="M912.2,91.9c-10.2,0-18.5-8.3-18.5-18.5c0-10.2,8.3-18.5,18.5-18.5
												c10.2,0,18.5,8.3,18.5,18.5C930.7,83.6,922.4,91.9,912.2,91.9z"/>
										</g>
									</g>
								</g>
							</g>
						</g>
					</g>
				</g>
				<g id="XMLID_978_">
					<g id="XMLID_979_">
						<g id="XMLID_980_">
							<g id="XMLID_981_">
								<g id="XMLID_982_">
									<g id="XMLID_983_">
										<path id="XMLID_1499_" class="st22" d="M930.7,73.4c0,0.5,0,1-0.1,1.5c-0.7-9.5-8.7-17-18.4-17c-9.7,0-17.7,7.5-18.4,17
											c0-0.5-0.1-1-0.1-1.5c0-10.2,8.3-18.5,18.5-18.5C922.4,54.9,930.7,63.2,930.7,73.4z"/>
									</g>
								</g>
							</g>
						</g>
					</g>
				</g>
			</g>
			<g id="XMLID_984_">
				<g id="XMLID_985_">
					<g id="XMLID_986_">
						<g id="XMLID_987_">
							<g id="XMLID_988_">
								<path id="XMLID_1491_" class="st10" d="M912.2,75.4c-0.1,0-0.3-0.1-0.4-0.2l-9.1-12.2c-0.2-0.2-0.1-0.5,0.1-0.6
									c0.2-0.2,0.5-0.1,0.6,0.1l8.9,11.9l10.1-4.4c0.2-0.1,0.5,0,0.6,0.2c0.1,0.2,0,0.5-0.2,0.6l-10.4,4.6
									C912.3,75.3,912.2,75.4,912.2,75.4z"/>
							</g>
						</g>
					</g>
				</g>
			</g>
		</g>
		<g id="XMLID_989_">
			<g id="XMLID_990_">
				<g id="XMLID_991_">
					<g id="XMLID_992_">
						<g id="XMLID_993_">
							<g id="XMLID_994_">
								<ellipse id="XMLID_995_" class="st1" cx="932.1" cy="339.2" rx="44" ry="5.3"/>
							</g>
						</g>
					</g>
				</g>
				<g id="XMLID_996_">
					<g id="XMLID_997_">
						<g id="XMLID_998_">
							<g id="XMLID_999_">
								<polygon id="XMLID_1000_" class="st21" points="973.1,188.7 962.8,338.9 901.3,338.9 891,188.7 								"/>
							</g>
						</g>
					</g>
				</g>
				<g id="XMLID_1001_">
					<g id="XMLID_1002_">
						<g id="XMLID_1003_">
							<g id="XMLID_1004_">
								<polygon id="XMLID_1005_" class="st19" points="972.4,198.7 892,203.4 891.5,194.9 972.7,194.9 								"/>
							</g>
						</g>
					</g>
				</g>
				<g id="XMLID_1006_">
					<g id="XMLID_1007_">
						<g id="XMLID_1008_">
							<g id="XMLID_1009_">
								<path id="XMLID_1010_" class="st20" d="M976.2,194.9H888c-1,0-1.9-0.8-1.9-1.9v-5.6c0-1,0.8-1.9,1.9-1.9h88.2
									c1,0,1.9,0.8,1.9,1.9v5.6C978,194.1,977.2,194.9,976.2,194.9z"/>
							</g>
						</g>
					</g>
				</g>
				<g id="XMLID_1011_">
					<g id="XMLID_1012_">
						<g id="XMLID_1013_">
							<polygon id="XMLID_1014_" class="st19" points="963.9,212 961.9,247.6 902.2,247.6 900.2,212 							"/>
						</g>
					</g>
				</g>
				<g id="XMLID_1015_">
					<g id="XMLID_1016_">
						<g id="XMLID_1017_">
							<g id="XMLID_1018_">
								<circle id="XMLID_1019_" class="st21" cx="932.1" cy="231.3" r="3"/>
							</g>
						</g>
					</g>
				</g>
				<g id="XMLID_1020_">
					<g id="XMLID_1021_">
						<g id="XMLID_1022_">
							<polygon id="XMLID_1023_" class="st19" points="961.1,255.9 959.3,288.3 904.9,288.3 903,255.9 							"/>
						</g>
					</g>
				</g>
				<g id="XMLID_1024_">
					<g id="XMLID_1025_">
						<g id="XMLID_1026_">
							<g id="XMLID_1027_">
								<circle id="XMLID_1028_" class="st21" cx="932.1" cy="273.3" r="3"/>
							</g>
						</g>
					</g>
				</g>
				<g id="XMLID_1029_">
					<g id="XMLID_1030_">
						<g id="XMLID_1031_">
							<polygon id="XMLID_1032_" class="st19" points="958.7,296.5 957,326.2 907.1,326.2 905.5,296.5 							"/>
						</g>
					</g>
				</g>
				<g id="XMLID_1033_">
					<g id="XMLID_1034_">
						<g id="XMLID_1035_">
							<g id="XMLID_1036_">
								<circle id="XMLID_1037_" class="st21" cx="932.1" cy="311.4" r="3"/>
							</g>
						</g>
					</g>
				</g>
			</g>
			<g id="XMLID_1038_">
				<g id="XMLID_1039_">
					<g id="XMLID_1040_">
						<path id="XMLID_1041_" class="st8" d="M958.4,132.8c-0.9,5-1.9,8.8-1.9,8.8s-2.5,5.6-4.7,7.2c-1.6,1.1-3,0.4-3.3-5.5
							c-0.1-1-0.1-2.1-0.1-3.3c0,0-0.4-2.8-0.5-6.7c-0.4-8.5,0.1-22,7-22.3C961.3,110.7,960,123.6,958.4,132.8z"/>
					</g>
					<g id="XMLID_1042_">
						<path id="XMLID_1043_" class="st7" d="M947.8,133.2c1,2,2.7,4.2,5,4c2.5-0.2,4.4-2.5,5.5-4.4c-0.9,5-1.9,8.8-1.9,8.8
							s-2.5,5.6-4.7,7.2c-1.4-0.9-2.5-2.9-3.3-5.5L947.8,133.2z"/>
					</g>
					<g id="XMLID_1044_">
						<path id="XMLID_1045_" class="st7" d="M952,147.5c-0.2,0-0.4-0.2-0.4-0.4c-0.4-5.9,1.6-25,1.7-25.8c0-0.2,0.2-0.4,0.4-0.4
							c0.2,0,0.4,0.2,0.4,0.4c0,0.2-2.1,19.9-1.7,25.7C952.4,147.3,952.3,147.4,952,147.5C952,147.5,952,147.5,952,147.5z"/>
					</g>
				</g>
				<g id="XMLID_1046_">
					<g id="XMLID_1047_">
						<path id="XMLID_1048_" class="st8" d="M953.6,158.9h-8.3c0,0-7.5-0.6-5.2-6.9c2.4-6.4-0.7-7.9-4.3-12.1
							c-3.6-4.2-9.1-13.1-3-15.8c6.1-2.7,12.1,3.9,14.6,10.9c0.8,2.2,1,4.2,1.3,6.2c0.1,1.1,0.3,2.1,0.5,3.1
							c0.4,1.8,1.1,3.6,2.5,5.4c0,0,0.1,0.1,0.1,0.1C955.7,154.7,953.6,158.9,953.6,158.9z"/>
					</g>
					<g id="XMLID_1049_">
						<path id="XMLID_1050_" class="st7" d="M953.6,158.9h-7.2c-1.4-6.4,1-11.7,2.8-14.6c0.4,1.8,1.1,3.6,2.5,5.4
							c0,0,0.1,0.1,0.1,0.1C955.7,154.7,953.6,158.9,953.6,158.9z"/>
					</g>
					<g id="XMLID_1051_">
						<path id="XMLID_1052_" class="st7" d="M947.7,158.7c-0.2,0-0.4-0.2-0.4-0.4c-0.4-14.2-9.9-26.6-10-26.7
							c-0.1-0.2-0.1-0.4,0.1-0.6c0.2-0.1,0.4-0.1,0.6,0.1c0.1,0.1,9.8,12.7,10.2,27.2C948.1,158.5,947.9,158.7,947.7,158.7
							C947.7,158.7,947.7,158.7,947.7,158.7z"/>
					</g>
				</g>
				<g id="XMLID_1053_">
					<g id="XMLID_1054_">
						<path id="XMLID_1055_" class="st8" d="M972.8,139.9c-6.3,5.1-9.5,5.6-8.7,10.5c0.3,1.6,0.5,3.2,0.5,4.6c0,2.8-0.9,4.9-4.3,5.3
							c-5.1,0.5-9.3-1.4-9.3-1.4s-1.5-3.6-1.7-7.8c-0.2-4,0.7-8.5,4.9-11.2c8.8-5.6,7.1-27.8,18.7-25.7
							C984.4,116.3,979.1,134.8,972.8,139.9z"/>
					</g>
					<g id="XMLID_1056_">
						<path id="XMLID_1057_" class="st7" d="M964.6,155c0,2.8-0.9,4.9-4.3,5.3c-5.1,0.5-9.3-1.4-9.3-1.4s-1.5-3.6-1.7-7.8
							C951.2,152.3,957.3,155.6,964.6,155z"/>
					</g>
					<g id="XMLID_1058_">
						<path id="XMLID_1059_" class="st7" d="M955.9,158c-0.2,0-0.4-0.1-0.4-0.3c0-0.1-1.3-11.2,6-17.9c7-6.5,9.8-17.2,9.8-17.3
							c0.1-0.2,0.3-0.3,0.5-0.3c0.2,0.1,0.3,0.3,0.3,0.5c0,0.1-2.8,11-10,17.7c-6.9,6.5-5.7,17.1-5.7,17.2
							C956.3,157.8,956.2,158,955.9,158C956,158,955.9,158,955.9,158z"/>
					</g>
				</g>
				<g id="XMLID_1060_">
					<g id="XMLID_1061_">
						<g id="XMLID_1062_">
							<g id="XMLID_1063_">
								<polygon id="XMLID_1064_" class="st4" points="963.9,185.8 965.9,168.5 966,167.7 966.3,165.3 966.3,164.5 966.6,162.2 
									966.7,161.4 967.3,156.5 938.4,156.5 939,161.4 939.1,162.2 939.3,164.5 939.4,165.3 939.7,167.7 939.8,168.5 941.8,185.8 
																	"/>
							</g>
						</g>
					</g>
					<g id="XMLID_1065_">
						<g id="XMLID_1066_">
							<g id="XMLID_1067_">
								<g id="XMLID_1068_">
									<g id="XMLID_1069_">
										<polygon id="XMLID_1070_" class="st5" points="966.7,161.4 966.6,162.2 939.1,162.2 939,161.4 										"/>
									</g>
								</g>
							</g>
						</g>
						<g id="XMLID_1071_">
							<g id="XMLID_1072_">
								<g id="XMLID_1073_">
									<g id="XMLID_1074_">
										<polygon id="XMLID_1075_" class="st5" points="966.3,164.5 966.3,165.3 939.4,165.3 939.3,164.5 										"/>
									</g>
								</g>
							</g>
						</g>
						<g id="XMLID_1076_">
							<g id="XMLID_1077_">
								<g id="XMLID_1078_">
									<g id="XMLID_1079_">
										<polygon id="XMLID_1080_" class="st5" points="966,167.7 965.9,168.5 939.8,168.5 939.7,167.7 										"/>
									</g>
								</g>
							</g>
						</g>
					</g>
				</g>
			</g>
			<g id="XMLID_1081_">
				<g id="XMLID_1082_">
					<g id="XMLID_1083_">
						<polygon id="XMLID_1084_" class="st8" points="921.2,158.1 921,160.5 920.8,161.8 920.7,163 920.6,164.6 920.5,165.4 
							920.2,168.9 919.9,172.7 919.9,172.8 919.7,175.2 919.6,176.4 919.5,177.2 919.2,181 918.8,185.8 905.4,185.8 905.4,184.7 
							905,180.1 904.7,177.3 904.6,176.4 904.5,175.2 904.3,172.7 904.3,172.6 904.1,169.8 903.7,165.4 903.6,165.1 903.5,163 
							903.4,162.3 903.4,161.8 903,158.1 						"/>
					</g>
				</g>
				<g id="XMLID_1085_">
					<polygon id="XMLID_1086_" class="st7" points="920.8,161.8 920.7,163 903.5,163 903.4,162.3 903.4,161.8 					"/>
				</g>
				<g id="XMLID_1087_">
					<polygon id="XMLID_1088_" class="st7" points="919.7,175.2 919.6,176.4 904.6,176.4 904.5,175.2 					"/>
				</g>
				<g id="XMLID_1089_">
					<g id="XMLID_1090_">
						<polygon id="XMLID_1091_" class="st12" points="920.5,165.4 920.2,168.9 919.9,172.7 904.3,172.7 904.3,172.6 904.1,169.8 
							903.7,165.4 						"/>
					</g>
				</g>
				<g id="XMLID_1092_">
					<g id="XMLID_1093_">
						<g id="XMLID_1094_">
							<rect id="XMLID_1383_" x="902.1" y="154.6" class="st13" width="20" height="3.5"/>
						</g>
					</g>
					<g id="XMLID_1095_">
						<g id="XMLID_1096_">
							<path id="XMLID_1380_" class="st8" d="M920.6,154.6h-17v-1.5c0-0.8,0.7-1.5,1.5-1.5h14c0.8,0,1.5,0.7,1.5,1.5V154.6z"/>
						</g>
					</g>
				</g>
			</g>
		</g>
		<g id="XMLID_1097_">
			<g id="XMLID_1098_">
				<g id="XMLID_1099_">
					<g id="XMLID_1100_">
						<g id="XMLID_1101_">
							<g id="XMLID_1102_">
								<g id="XMLID_1103_">
									<g id="XMLID_1104_">
										<polygon id="XMLID_1374_" class="st20" points="525.8,90.2 496.2,90.2 491.8,60.6 521.4,60.6 										"/>
									</g>
								</g>
							</g>
						</g>
					</g>
				</g>
				<g id="XMLID_1105_">
					<g id="XMLID_1106_">
						<g id="XMLID_1107_">
							<g id="XMLID_1108_">
								<polygon id="XMLID_1109_" class="st19" points="491.8,60.6 487.7,90.2 496.2,90.2 								"/>
							</g>
						</g>
					</g>
				</g>
				<g id="XMLID_1110_">
					<g id="XMLID_1111_">
						<g id="XMLID_1112_">
							<g id="XMLID_1113_">
								<g id="XMLID_1114_">
									<g id="XMLID_1115_">
										<polygon id="XMLID_1362_" class="st23" points="498,88.1 494.3,62.7 519.6,62.7 523.4,88.1 										"/>
									</g>
								</g>
							</g>
						</g>
					</g>
				</g>
				<g id="XMLID_1116_">
					<g id="XMLID_1117_">
						<g id="XMLID_1118_">
							<g id="XMLID_1119_">
								<g id="XMLID_1120_">
									<g id="XMLID_1121_">
										<polygon id="XMLID_1355_" class="st12" points="498.3,87.7 494.7,63.1 519.3,63.1 522.9,87.7 										"/>
									</g>
								</g>
							</g>
						</g>
					</g>
				</g>
				<g id="XMLID_1122_">
					<g id="XMLID_1123_">
						<g id="XMLID_1124_">
							<g id="XMLID_1125_">
								<g id="XMLID_1126_">
									<g id="XMLID_1127_">
										<g id="XMLID_1128_">
											<polygon id="XMLID_1129_" class="st24" points="517.1,66.1 519.8,84.7 500.5,84.7 497.8,66.1 											"/>
										</g>
									</g>
								</g>
							</g>
						</g>
					</g>
				</g>
				<g id="XMLID_1130_">
					<circle id="XMLID_1340_" class="st22" cx="508" cy="74.6" r="6.2"/>
				</g>
				<g id="XMLID_1131_">
					<g id="XMLID_1132_">
						<g id="XMLID_1133_">
							<path id="XMLID_1134_" class="st7" d="M507.4,75c0,0,3.9-4.6,10.3-4.3l2,13.9L507.4,75z"/>
						</g>
					</g>
				</g>
				<g id="XMLID_1135_">
					<g id="XMLID_1136_">
						<g id="XMLID_1137_">
							<path id="XMLID_1138_" class="st8" d="M498.7,72.2c0,0,5.5-1.1,11.2,3.2c5.7,4.3,9.8,9.3,9.8,9.3h-19.3L498.7,72.2z"/>
						</g>
					</g>
				</g>
			</g>
			<g id="XMLID_1139_">
				<g id="XMLID_1140_">
					<g id="XMLID_1141_">
						<g id="XMLID_1142_">
							<g id="XMLID_1143_">
								<polygon id="XMLID_1144_" class="st24" points="600.4,102.5 476.8,102.5 475.2,96.9 602.2,96.9 								"/>
							</g>
						</g>
					</g>
					<g id="XMLID_1145_">
						<g id="XMLID_1146_">
							<g id="XMLID_1147_">
								<g id="XMLID_1148_">
									<rect id="XMLID_1325_" x="475.1" y="90.2" class="st21" width="127.2" height="6.7"/>
								</g>
							</g>
						</g>
						<g id="XMLID_1149_">
							<g id="XMLID_1150_">
								<g id="XMLID_1151_">
									<g id="XMLID_1152_">
										<polygon id="XMLID_1153_" class="st19" points="481.5,96.9 484.2,102.6 490.6,102.6 492.4,96.9 										"/>
									</g>
								</g>
							</g>
							<g id="XMLID_1154_">
								<g id="XMLID_1155_">
									<g id="XMLID_1156_">
										<polygon id="XMLID_1317_" class="st19" points="594,96.9 591.3,102.6 584.9,102.6 583.1,96.9 										"/>
									</g>
								</g>
							</g>
						</g>
					</g>
				</g>
			</g>
			<g id="XMLID_1157_">
				<g id="XMLID_1158_">
					<g id="XMLID_1159_">
						<g id="XMLID_1160_">
							<g id="XMLID_1161_">
								<g id="XMLID_1162_">
									<g id="XMLID_1163_">
										<g id="XMLID_1164_">
											<g id="XMLID_1165_">
												<path id="XMLID_1166_" class="st4" d="M587.6,83l0.9,0l0-1.4l-35.6,0c-1.2,0-2.3,0.5-3,1.3c-0.8,0.8-1.2,1.8-1.2,3
													c0,2.4,1.9,4.3,4.3,4.3l35.6,0l0-1.2l-0.9,0L587.6,83z"/>
											</g>
										</g>
									</g>
								</g>
							</g>
						</g>
					</g>
					<g id="XMLID_1167_">
						<g id="XMLID_1168_">
							<g id="XMLID_1169_">
								<g id="XMLID_1170_">
									<g id="XMLID_1171_">
										<path id="XMLID_1301_" class="st12" d="M587.8,83l0,5.9l-32.7,0c-1.6,0-2.9-1.3-2.9-3c0-0.8,0.3-1.6,0.8-2.1
											c0.5-0.5,1.2-0.9,2-0.9L587.8,83z"/>
									</g>
								</g>
							</g>
						</g>
					</g>
					<g id="XMLID_1172_">
						<g id="XMLID_1173_">
							<g id="XMLID_1174_">
								<g id="XMLID_1175_">
									<g id="XMLID_1176_">
										<path id="XMLID_1295_" class="st24" d="M587.8,84.5l0,0.9l-31.8,0c-0.2,0-0.5-0.2-0.5-0.5v0c0-0.2,0.2-0.5,0.5-0.5
											L587.8,84.5z"/>
									</g>
								</g>
							</g>
						</g>
					</g>
					<g id="XMLID_1177_">
						<g id="XMLID_1178_">
							<g id="XMLID_1179_">
								<g id="XMLID_1180_">
									<g id="XMLID_1181_">
										<path id="XMLID_1289_" class="st24" d="M587.8,86.7l0,0.9l-31.8,0c-0.2,0-0.5-0.2-0.5-0.5v0c0-0.2,0.2-0.5,0.5-0.5
											L587.8,86.7z"/>
									</g>
								</g>
							</g>
						</g>
					</g>
				</g>
				<g id="XMLID_1182_">
					<g id="XMLID_1183_">
						<g id="XMLID_1184_">
							<g id="XMLID_1185_">
								<g id="XMLID_1186_">
									<g id="XMLID_1187_">
										<g id="XMLID_1188_">
											<path id="XMLID_1282_" class="st2" d="M584.4,74.4l0.9,0l0-1.4l-35.6,0c-1.2,0-2.3,0.5-3,1.3c-0.8,0.8-1.2,1.8-1.2,3
												c0,2.4,1.9,4.3,4.3,4.3l35.6,0l0-1.2l-0.9,0L584.4,74.4z"/>
										</g>
									</g>
								</g>
							</g>
						</g>
					</g>
					<g id="XMLID_1189_">
						<g id="XMLID_1190_">
							<g id="XMLID_1191_">
								<g id="XMLID_1192_">
									<g id="XMLID_1193_">
										<path id="XMLID_1275_" class="st12" d="M584.6,74.4l0,5.9l-32.7,0c-1.6,0-2.9-1.3-2.9-3c0-0.8,0.3-1.6,0.8-2.1
											c0.5-0.5,1.2-0.9,2-0.9L584.6,74.4z"/>
									</g>
								</g>
							</g>
						</g>
					</g>
					<g id="XMLID_1194_">
						<g id="XMLID_1195_">
							<g id="XMLID_1196_">
								<g id="XMLID_1197_">
									<g id="XMLID_1198_">
										<path id="XMLID_1269_" class="st24" d="M584.6,75.9l0,0.9l-31.8,0c-0.2,0-0.5-0.2-0.5-0.5v0c0-0.2,0.2-0.5,0.5-0.5
											L584.6,75.9z"/>
									</g>
								</g>
							</g>
						</g>
					</g>
					<g id="XMLID_1199_">
						<g id="XMLID_1200_">
							<g id="XMLID_1201_">
								<g id="XMLID_1202_">
									<g id="XMLID_1203_">
										<path id="XMLID_1263_" class="st24" d="M584.6,78.2l0,0.9l-31.8,0c-0.2,0-0.5-0.2-0.5-0.5v0c0-0.2,0.2-0.5,0.5-0.5
											L584.6,78.2z"/>
									</g>
								</g>
							</g>
						</g>
					</g>
				</g>
				<g id="XMLID_1204_">
					<g id="XMLID_1205_">
						<g id="XMLID_1206_">
							<g id="XMLID_1207_">
								<g id="XMLID_1208_">
									<g id="XMLID_1209_">
										<g id="XMLID_1210_">
											<path id="XMLID_1256_" class="st8" d="M590.6,65.9l0.9,0l0-1.4l-35.6,0c-1.2,0-2.3,0.5-3,1.3c-0.8,0.8-1.2,1.8-1.2,3
												c0,2.4,1.9,4.3,4.3,4.3l35.6,0l0-1.2l-0.9,0L590.6,65.9z"/>
										</g>
									</g>
								</g>
							</g>
						</g>
					</g>
					<g id="XMLID_1211_">
						<g id="XMLID_1212_">
							<g id="XMLID_1213_">
								<g id="XMLID_1214_">
									<g id="XMLID_1215_">
										<path id="XMLID_1249_" class="st12" d="M590.8,65.9l0,5.9l-32.7,0c-1.6,0-2.9-1.3-2.9-3c0-0.8,0.3-1.6,0.8-2.1
											c0.5-0.5,1.2-0.9,2-0.9L590.8,65.9z"/>
									</g>
								</g>
							</g>
						</g>
					</g>
					<g id="XMLID_1216_">
						<g id="XMLID_1217_">
							<g id="XMLID_1218_">
								<g id="XMLID_1219_">
									<g id="XMLID_1220_">
										<path id="XMLID_1243_" class="st24" d="M590.8,67.4l0,0.9l-31.8,0c-0.2,0-0.5-0.2-0.5-0.5v0c0-0.2,0.2-0.5,0.5-0.5
											L590.8,67.4z"/>
									</g>
								</g>
							</g>
						</g>
					</g>
					<g id="XMLID_1221_">
						<g id="XMLID_1222_">
							<g id="XMLID_1223_">
								<g id="XMLID_1224_">
									<g id="XMLID_1225_">
										<path id="XMLID_1237_" class="st24" d="M590.8,69.6l0,0.9l-31.8,0c-0.2,0-0.5-0.2-0.5-0.5v0c0-0.2,0.2-0.5,0.5-0.5
											L590.8,69.6z"/>
									</g>
								</g>
							</g>
						</g>
					</g>
				</g>
			</g>
		</g>
	</g>
</g>
</svg>
